{
.appVersion = "1352";
DisplayStrings = (
"xH/sinkundaliya"
);
copyright = "Copyright 2021 The Stick No Bills Project Authors (https://github.com/mooniak/stick-no-bills-font)";
customParameters = (
{
name = trademark;
value = "STICK NO BILLS is a trademark of STICK NO BILLS Gallery, Sri Lanka (http://sticknobillsonline.com)";
},
{
name = fsType;
value = (
);
},
{
name = license;
value = "This Font Software is licensed under the SIL Open Font License, Version 1.1. This license is available with a FAQ at: http://scripts.sil.org/OFL";
},
{
name = Axes;
value = (
{
Name = Weight;
Tag = wght;
}
);
},
{
name = unicodeRanges;
value = (
0,
1,
2,
20,
73
);
},
{
name = sampleText;
value = "දැරණියගලට ඉහල අහසේ දඟකරන වලාපෙළ මවනා සොඳුරු දසුන රාත්‍රිය උදාවත් සමග ක්‍ෂයවේ.";
},
{
name = vendorID;
value = MNIK;
},
{
name = licenseURL;
value = "http://scripts.sil.org/OFL";
},
{
name = glyphOrder;
value = (
sinA,
sinAa,
sinAe,
sinAae,
sinI,
sinIi,
sinU,
sinUu,
sinRVocalic,
sinRrVocalic,
sinLVocalic,
sinLlVocalic,
sinE,
sinEe,
sinAi,
sinO,
sinOo,
sinAu,
sinKa,
sinKha,
sinGa,
sinGha,
sinNga,
sinNnga,
sinCa,
sinCha,
sinJa,
sinJha,
sinNya,
sinJnya,
sinNyja,
sinTta,
sinTtha,
sinDda,
sinDdha,
sinNna,
sinNndda,
sinTa,
sinTha,
sinDa,
sinDha,
sinNa,
sinNda,
sinPa,
sinPha,
sinBa,
sinBha,
sinMa,
sinMba,
sinYa,
sinRa,
sinLa,
sinVa,
sinSha,
sinSsa,
sinSa,
sinHa,
sinLla,
sinFa,
sinfPa,
sinKSsa,
sinKVa,
sinTVa,
sinTTha,
sinNDa,
sinNDha,
sinNVa,
sinNTha,
sinGDha,
sinDVa,
sinDDha,
sinTtTtha,
sinNyCa,
sinNyCha,
sinCCa,
sinBBa,
sinMatraAa,
sinMatraAae,
sinMatraAe,
sinMatraAi,
sinMatraAu,
sinMatraE,
sinMatraEe,
sinMatraI,
sinMatraIi,
sinMatraLl,
sinMatraLs,
sinMatraO,
sinMatraOo,
sinMatraR,
sinMatraRr,
sinMatraU,
sinMatraUu,
sinMatraU.sub,
sinMatraUu.sub,
sinVirama,
sinRakar,
sinReph,
sinYansaya,
sinAnusvara,
sinCandrabindu,
sinVisarga,
sinMatraAa,
sinMatraAa.virama,
sinTouch,
sinK,
sinKh,
sinG,
sinGh,
sinNg,
sinNng,
sinC,
sinCh,
sinJ,
sinJh,
sinNy,
sinJny,
sinNyj,
sinTt,
sinTth,
sinDd,
sinDdh,
sinNn,

glyphs = (
{
glyphname = sinA;
lastChange = "2021-06-28 01:49:49 +0000";
layers = (
{
layerId = "DC4431BF-9234-4C16-9154-22D387E42D10";
paths = (
{
closed = 1;
nodes = (
"337 40 LINE",
"257 40 LINE SMOOTH",
"133 40 OFFCURVE",
"72 108 OFFCURVE",
"72 199 CURVE SMOOTH",
"72 293 OFFCURVE",
"130 362 OFFCURVE",
"246 362 CURVE SMOOTH",
"432 362 LINE",
"432 389 LINE SMOOTH",
"432 519 OFFCURVE",
"339 579 OFFCURVE",
"241 579 CURVE SMOOTH",
"163 579 OFFCURVE",
"89 536 OFFCURVE",
"68 456 CURVE",
"107 443 LINE",
"124 505 OFFCURVE",
"182 538 OFFCURVE",
"243 538 CURVE SMOOTH",
"320 538 OFFCURVE",
"392 493 OFFCURVE",
"392 402 CURVE",
"256 402 LINE SMOOTH",
"125 402 OFFCURVE",
"30 335 OFFCURVE",
"30 199 CURVE SMOOTH",
"30 60 OFFCURVE",
"137 0 OFFCURVE",
"257 0 CURVE SMOOTH",
"337 0 LINE"
);
},
{
closed = 1;
nodes = (
"432 -169 LINE",
"432 0 LINE",
"494 0 LINE",
"494 41 LINE",
"432 41 LINE",
"432 433 LINE SMOOTH",
"432 474.004 OFFCURVE",
"453 532 OFFCURVE",
"511 545 CURVE",
"503 583 LINE",
"446 570 OFFCURVE",
"392 519 OFFCURVE",
"392 433 CURVE SMOOTH",
"392 -169 LINE"
);
}
);
width = 541;
},
{
layerId = "4EACF7E3-2421-4EEA-928B-7BA9BC4A845D";
paths = (
{
closed = 1;
nodes = (
"257 136 LINE",
"241 136 LINE SMOOTH",
"208 136 OFFCURVE",
"173 152 OFFCURVE",
"173 201 CURVE SMOOTH",
"173 263 OFFCURVE",
"231 263 OFFCURVE",
"256 263 CURVE SMOOTH",
"442 263 LINE",
"442 402 LINE SMOOTH",
"442 518 OFFCURVE",
"338 578 OFFCURVE",
"238 578 CURVE SMOOTH",
"158 578 OFFCURVE",
"79 539 OFFCURVE",
"58 459 CURVE",
"176 420 LINE",
"185 444 OFFCURVE",
"214 457 OFFCURVE",
"243 457 CURVE SMOOTH",
"278 457 OFFCURVE",
"313 439 OFFCURVE",
"313 402 CURVE",
"256 402 LINE SMOOTH",
"125 402 OFFCURVE",
"30 336 OFFCURVE",
"30 201 CURVE SMOOTH",
"30 65 OFFCURVE",
"126 0 OFFCURVE",
"239 0 CURVE SMOOTH",
"257 0 LINE"
);
},
{
closed = 1;
nodes = (
"442 -169 LINE",
"442 0 LINE",
"494 0 LINE",
"494 140 LINE",
"442 140 LINE",
"442 362 LINE SMOOTH",
"442 395 OFFCURVE",
"446 416 OFFCURVE",
"514 434 CURVE",
"484 579 LINE",
"338 529 OFFCURVE",
"312 466 OFFCURVE",
"312 380 CURVE SMOOTH",
"312 -169 LINE"
);
}
);
width = 544;
}
);
unicode = 0D85;
},
{
glyphname = sinI;
lastChange = "2021-06-28 01:55:44 +0000";
layers = (
{
layerId = "DC4431BF-9234-4C16-9154-22D387E42D10";
paths = (
{
closed = 1;
nodes = (
"283 0 LINE SMOOTH",
"448 0 OFFCURVE",
"525 96 OFFCURVE",
"525 249 CURVE SMOOTH",
"525 377 LINE SMOOTH",
"525 506 OFFCURVE",
"428 569 OFFCURVE",
"324 569 CURVE SMOOTH",
"308 569 LINE",
"308 529 LINE",
"362 529 OFFCURVE",
"485 510 OFFCURVE",
"485 377 CURVE SMOOTH",
"485 249 LINE SMOOTH",
"485 83 OFFCURVE",
"368 40 OFFCURVE",
"283 40 CURVE SMOOTH",
"192 40 LINE",
"192 0 LINE"
);
},
{
closed = 1;
nodes = (
"337 -204 OFFCURVE",
"430 -151 OFFCURVE",
"430 -45 CURVE",
"390 -45 LINE",
"390 -121 OFFCURVE",
"314 -164 OFFCURVE",
"248 -164 CURVE SMOOTH",
"192 -164 OFFCURVE",
"126 -134 OFFCURVE",
"110 -66 CURVE",
"71 -76 LINE",
"89 -161 OFFCURVE",
"176 -204 OFFCURVE",
"252 -204 CURVE SMOOTH"
);
},
{
closed = 1;
nodes = (
"233 174 OFFCURVE",
"300 214 OFFCURVE",
"300 292 CURVE SMOOTH",
"300 365 LINE",
"260 365 LINE",
"260 292 LINE SMOOTH",
"260 242 OFFCURVE",
"213 217 OFFCURVE",
"166 217 CURVE SMOOTH",
"119 217 OFFCURVE",
"62 241 OFFCURVE",
"62 312 CURVE SMOOTH",
"62 385 LINE SMOOTH",
"62 500 OFFCURVE",
"195 529 OFFCURVE",
"237 529 CURVE SMOOTH",
"253 529 LINE",
"253 569 LINE",
"237 569 LINE SMOOTH",
"133 569 OFFCURVE",
"20 503 OFFCURVE",
"20 384 CURVE SMOOTH",
"20 312 LINE SMOOTH",
"20 213 OFFCURVE",
"98 174 OFFCURVE",
"165 174 CURVE SMOOTH"
);
}
);
width = 555;
},
{
layerId = "4EACF7E3-2421-4EEA-928B-7BA9BC4A845D";
paths = (
{
closed = 1;
nodes = (
"287 0 LINE SMOOTH",
"412 0 OFFCURVE",
"539 86 OFFCURVE",
"539 249 CURVE SMOOTH",
"539 389 LINE SMOOTH",
"539 505 OFFCURVE",
"432 578 OFFCURVE",
"328 578 CURVE SMOOTH",
"312 578 LINE",
"312 437 LINE",
"366 437 OFFCURVE",
"402 417 OFFCURVE",
"402 345 CURVE SMOOTH",
"402 278 LINE SMOOTH",
"402 172 OFFCURVE",
"331 128 OFFCURVE",
"225 128 CURVE SMOOTH",
"196 128 LINE",
"196 0 LINE"
);
},
{
closed = 1;
nodes = (
"367.001 -204 OFFCURVE",
"434 -136 OFFCURVE",
"434 -45 CURVE",
"297 -45 LINE",
"297 -61 OFFCURVE",
"277 -78 OFFCURVE",
"248 -78 CURVE SMOOTH",
"227 -78 OFFCURVE",
"203 -67 OFFCURVE",
"198 -47 CURVE",
"65 -81 LINE",
"87 -148 OFFCURVE",
"142 -204 OFFCURVE",
"248 -204 CURVE SMOOTH"
);
},
{
closed = 1;
nodes = (
"354 176 OFFCURVE",
"354 259 OFFCURVE",
"354 277 CURVE SMOOTH",
"354 365 LINE",
"224 365 LINE",
"224 347 LINE SMOOTH",
"224 333 OFFCURVE",
"222 316 OFFCURVE",
"196 316 CURVE SMOOTH",
"170 316 OFFCURVE",
"168 333 OFFCURVE",
"168 346 CURVE SMOOTH",
"168 373 LINE SMOOTH",
"168 414 OFFCURVE",
"199 437 OFFCURVE",
"241 437 CURVE SMOOTH",
"257 437 LINE",
"257 578 LINE",
"241 578 LINE SMOOTH",
"137 578 OFFCURVE",
"30 505 OFFCURVE",
"30 390 CURVE SMOOTH",
"30 318 LINE SMOOTH",
"30 250 OFFCURVE",
"68 176 OFFCURVE",
"207 176 CURVE SMOOTH"
);
}
);
width = 569;
}
);
unicode = 0D89;
userData = {
com.fontlab.hintData = {
hhints = (
{
position = -204;
width = 126;
},
{
position = 0;
width = 128;
},
{
position = 176;
width = 140;
},
{
position = 428;
width = 141;
}
);
vhints = (
{
position = 30;
width = 138;
},
{
position = 402;
width = 137;
}
);
};
};
},
{
glyphname = sinIi;
lastChange = "2021-05-19 08:51:46 +0000";
layers = (
{
components = (
{
name = sinRa;
}
);
layerId = "DC4431BF-9234-4C16-9154-22D387E42D10";
paths = (
{
closed = 1;
nodes = (
"463 595 OFFCURVE",
"496 628 OFFCURVE",
"496 667 CURVE SMOOTH",
"496 707 OFFCURVE",
"463 740 OFFCURVE",
"423 740 CURVE SMOOTH",
"383 740 OFFCURVE",
"350 707 OFFCURVE",
"350 667 CURVE SMOOTH",
"350 628 OFFCURVE",
"383 595 OFFCURVE",
"423 595 CURVE SMOOTH"
);
},
{
closed = 1;
nodes = (
"163 697.002 OFFCURVE",
"196 730.002 OFFCURVE",
"196 769.002 CURVE SMOOTH",
"196 809.002 OFFCURVE",
"163 842.002 OFFCURVE",
"123 842.002 CURVE SMOOTH",
"83 842.002 OFFCURVE",
"50 809.002 OFFCURVE",
"50 769.002 CURVE SMOOTH",
"50 730.002 OFFCURVE",
"83 697.002 OFFCURVE",
"123 697.002 CURVE SMOOTH"
);
}
);
width = 526;
},
{
components = (
{
name = sinRa;
}
);
layerId = "4EACF7E3-2421-4EEA-928B-7BA9BC4A845D";
paths = (
{
closed = 1;
nodes = (
"576 587 OFFCURVE",
"609 620 OFFCURVE",
"609 659 CURVE SMOOTH",
"609 699 OFFCURVE",
"576 732 OFFCURVE",
"536 732 CURVE SMOOTH",
"496 732 OFFCURVE",
"463 699 OFFCURVE",
"463 659 CURVE SMOOTH",
"463 620 OFFCURVE",
"496 587 OFFCURVE",
"536 587 CURVE SMOOTH"
);
},
{
closed = 1;
nodes = (
"163 697.002 OFFCURVE",
"196 730.002 OFFCURVE",
"196 769.002 CURVE SMOOTH",
"196 809.002 OFFCURVE",
"163 842.002 OFFCURVE",
"123 842.002 CURVE SMOOTH",
"83 842.002 OFFCURVE",
"50 809.002 OFFCURVE",
"50 769.002 CURVE SMOOTH",
"50 730.002 OFFCURVE",
"83 697.002 OFFCURVE",
"123 697.002 CURVE SMOOTH"
);
}
);
width = 609;
}
);
unicode = 0D8A;
userData = {
com.fontlab.hintData = {
hhints = (
{
position = -6;
width = 145;
},
{
position = 587;
width = 145;
},
{
position = 697;
width = 145;
}
);
vhints = (
{
position = 30;
width = 140;
},
{
position = 50;
width = 146;
},
{
position = 375;
width = 140;
},
{
position = 463;
width = 146;
}
);
};
};
},
{
glyphname = sinU;
lastChange = "2021-06-28 01:55:44 +0000";
layers = (
{
layerId = "DC4431BF-9234-4C16-9154-22D387E42D10";
paths = (
{
closed = 1;
nodes = (
"268 -129 LINE",
"244 -129 OFFCURVE",
"70 -96 OFFCURVE",
"70 85 CURVE SMOOTH",
"70 133 LINE SMOOTH",
"70 339 OFFCURVE",
"189 357 OFFCURVE",
"268 357 CURVE SMOOTH",
"513 357 LINE",
"513 395 LINE",
"506 521 OFFCURVE",
"411 574 OFFCURVE",
"316 574 CURVE SMOOTH",
"233 574 OFFCURVE",
"150 533 OFFCURVE",
"128 464 CURVE",
"166 450 LINE",
"181 499 OFFCURVE",
"249 533 OFFCURVE",
"318 533 CURVE SMOOTH",
"389 533 OFFCURVE",
"461 496 OFFCURVE",
"471 397 CURVE",
"268 397 LINE SMOOTH",
"61 397 OFFCURVE",
"30 247 OFFCURVE",
"30 133 CURVE SMOOTH",
"30 85 LINE SMOOTH",
"30 -83 OFFCURVE",
"164 -169 OFFCURVE",
"268 -169 CURVE"
);
},
{
closed = 1;
nodes = (
"423 -168 OFFCURVE",
"540 -135 OFFCURVE",
"569 4 CURVE",
"530 15 LINE",
"502 -117 OFFCURVE",
"378 -128 OFFCURVE",
"324 -128 CURVE",
"324 -168 LINE"
);
}
);
width = 544;
},
{
layerId = "4EACF7E3-2421-4EEA-928B-7BA9BC4A845D";
paths = (
{
closed = 1;
nodes = (
"268 -28 LINE",
"245 -26 OFFCURVE",
"171 -16 OFFCURVE",
"171 85 CURVE SMOOTH",
"171 133 LINE SMOOTH",
"171 209 OFFCURVE",
"189 257 OFFCURVE",
"268 257 CURVE SMOOTH",
"513 257 LINE",
"513 385 LINE SMOOTH",
"513 520 OFFCURVE",
"419 575 OFFCURVE",
"315 575 CURVE SMOOTH",
"232 575 OFFCURVE",
"149 540 OFFCURVE",
"128 464 CURVE",
"243 420 LINE",
"254 454 OFFCURVE",
"297 454 OFFCURVE",
"312 454 CURVE SMOOTH",
"330 454 OFFCURVE",
"384 446 OFFCURVE",
"384 398 CURVE",
"264 398 LINE SMOOTH",
"61 398 OFFCURVE",
"30 247 OFFCURVE",
"30 133 CURVE SMOOTH",
"30 85 LINE SMOOTH",
"30 -83 OFFCURVE",
"164 -169 OFFCURVE",
"268 -169 CURVE"
);
},
{
closed = 1;
nodes = (
"423 -168 OFFCURVE",
"540 -135 OFFCURVE",
"569 4 CURVE",
"434 42 LINE",
"421 -8 OFFCURVE",
"378 -28 OFFCURVE",
"324 -28 CURVE",
"324 -168 LINE"
);
}
);
width = 569;
}
);
unicode = 0D8B;
userData = {
com.fontlab.hintData = {
hhints = (
{
position = -169;
width = 40;
},
{
position = 357;
width = 40;
},
{
position = 533;
width = 41;
}
);
vhints = (
{
position = 30;
width = 40;
},
{
position = 128;
width = 38;
},
{
position = 530;
width = 39;
}
);
};
};
},
{
glyphname = sinRVocalic;
lastChange = "2021-06-28 02:10:27 +0000";
layers = (
{
components = (
{
name = sinMatraR;
transform = "{1, 0, 0, 1, 651, 0}";
}
);
layerId = "DC4431BF-9234-4C16-9154-22D387E42D10";
paths = (
{
closed = 1;
nodes = (
"239 0 OFFCURVE",
"289 25 OFFCURVE",
"315 67 CURVE",
"341 25 OFFCURVE",
"391 0 OFFCURVE",
"448 0 CURVE SMOOTH",
"532 0 OFFCURVE",
"600 56 OFFCURVE",
"600 140 CURVE SMOOTH",
"600 192 LINE",
"560 192 LINE",
"560 141 LINE SMOOTH",
"560 74 OFFCURVE",
"511 40 OFFCURVE",
"448 40 CURVE SMOOTH",
"384 40 OFFCURVE",
"335 74 OFFCURVE",
"335 141 CURVE SMOOTH",
"335 192 LINE",
"295 192 LINE",
"295 141 LINE SMOOTH",
"295 74 OFFCURVE",
"246 40 OFFCURVE",
"182 40 CURVE SMOOTH",
"119 40 OFFCURVE",
"70 74 OFFCURVE",
"70 141 CURVE SMOOTH",
"70 192 LINE",
"30 192 LINE",
"30 140 LINE SMOOTH",
"30 56 OFFCURVE",
"98 0 OFFCURVE",
"182 0 CURVE SMOOTH"
);
},
{
closed = 1;
nodes = (
"70 241 LINE",
"70 288 LINE SMOOTH",
"70 355 OFFCURVE",
"109 362 OFFCURVE",
"145 362 CURVE SMOOTH",
"485 362 LINE SMOOTH",
"521 362 OFFCURVE",
"560 355 OFFCURVE",
"560 288 CURVE SMOOTH",
"560 241 LINE",
"600 241 LINE",
"600 288 LINE SMOOTH",
"600 337 OFFCURVE",
"595 402 OFFCURVE",
"484 402 CURVE SMOOTH",
"146 402 LINE SMOOTH",
"35 402 OFFCURVE",
"30 337 OFFCURVE",
"30 288 CURVE SMOOTH",
"30 241 LINE"
);
},
{
closed = 1;
nodes = (
"335 379 LINE",
"335 415 LINE SMOOTH",
"335 469 OFFCURVE",
"366 524 OFFCURVE",
"444 524 CURVE SMOOTH",
"507 524 OFFCURVE",
"542 500 OFFCURVE",
"555 464 CURVE",
"594 477 LINE",
"568 542 OFFCURVE",
"508 564 OFFCURVE",
"444 564 CURVE SMOOTH",
"407 564 OFFCURVE",
"346 551 OFFCURVE",
"315 498 CURVE",
"284 551 OFFCURVE",
"223 564 OFFCURVE",
"186 564 CURVE SMOOTH",
"122 564 OFFCURVE",
"62 542 OFFCURVE",
"36 477 CURVE",
"75 464 LINE",
"88 500 OFFCURVE",
"123 524 OFFCURVE",
"186 524 CURVE SMOOTH",
"264 524 OFFCURVE",
"295 469 OFFCURVE",
"295 415 CURVE SMOOTH",
"295 379 LINE"
);
}
);
width = 965;
},
{
components = (
{
name = sinMatraR;
transform = "{1, 0, 0, 1, 640, 0}";
}
);
layerId = "4EACF7E3-2421-4EEA-928B-7BA9BC4A845D";
paths = (
{
closed = 1;
nodes = (
"255 -8 OFFCURVE",
"293 4 OFFCURVE",
"322 36 CURVE",
"352 4 OFFCURVE",
"394 -8 OFFCURVE",
"442 -8 CURVE SMOOTH",
"547 -8 OFFCURVE",
"620 50 OFFCURVE",
"620 160 CURVE SMOOTH",
"620 202 LINE",
"481 202 LINE",
"481 171 LINE SMOOTH",
"481 145 OFFCURVE",
"458 131 OFFCURVE",
"435 131 CURVE SMOOTH",
"412 131 OFFCURVE",
"389 145 OFFCURVE",
"389 173 CURVE SMOOTH",
"389 202 LINE",
"261 202 LINE",
"261 173 LINE SMOOTH",
"261 145 OFFCURVE",
"238 131 OFFCURVE",
"215 131 CURVE SMOOTH",
"192 131 OFFCURVE",
"169 145 OFFCURVE",
"169 171 CURVE SMOOTH",
"169 202 LINE",
"30 202 LINE",
"30 160 LINE SMOOTH",
"30 58 OFFCURVE",
"105 -8 OFFCURVE",
"210 -8 CURVE SMOOTH"
);
},
{
closed = 1;
nodes = (
"169 251 LINE",
"169 258 LINE SMOOTH",
"169 271 OFFCURVE",
"182 283 OFFCURVE",
"206 283 CURVE SMOOTH",
"444 283 LINE SMOOTH",
"468 283 OFFCURVE",
"481 271 OFFCURVE",
"481 258 CURVE SMOOTH",
"481 251 LINE",
"620 251 LINE",
"620 279 LINE SMOOTH",
"620 392 OFFCURVE",
"528 402 OFFCURVE",
"466 402 CURVE SMOOTH",
"184 402 LINE SMOOTH",
"122 402 OFFCURVE",
"30 392 OFFCURVE",
"30 279 CURVE SMOOTH",
"30 251 LINE"
);
},
{
closed = 1;
nodes = (
"389 378 LINE",
"389 397 LINE SMOOTH",
"389 443 OFFCURVE",
"429 451 OFFCURVE",
"447 451 CURVE SMOOTH",
"471 451 OFFCURVE",
"487 436 OFFCURVE",
"491 421 CURVE",
"609 460 LINE",
"585 537 OFFCURVE",
"517 575 OFFCURVE",
"446 575 CURVE SMOOTH",
"404 575 OFFCURVE",
"361 562 OFFCURVE",
"325 536 CURVE",
"289 562 OFFCURVE",
"246 575 OFFCURVE",
"204 575 CURVE SMOOTH",
"133 575 OFFCURVE",
"65 537 OFFCURVE",
"41 460 CURVE",
"159 421 LINE",
"163 436 OFFCURVE",
"179 451 OFFCURVE",
"203 451 CURVE SMOOTH",
"221 451 OFFCURVE",
"261 443 OFFCURVE",
"261 397 CURVE SMOOTH",
"261 378 LINE"
);
}
);
width = 1015;
}
);
unicode = 0D8D;
},
{
glyphname = sinLVocalic;
lastChange = "2021-06-28 02:09:47 +0000";
layers = (
{
components = (
{
name = sinPa;
transform = "{1, 0, 0, 1, 132, 0}";
}
);
layerId = "DC4431BF-9234-4C16-9154-22D387E42D10";
paths = (
{
closed = 1;
nodes = (
"171 -6 OFFCURVE",
"204 27 OFFCURVE",
"204 69 CURVE SMOOTH",
"204 111 OFFCURVE",
"171 144 OFFCURVE",
"129 144 CURVE SMOOTH",
"87 144 OFFCURVE",
"54 111 OFFCURVE",
"54 69 CURVE SMOOTH",
"54 27 OFFCURVE",
"87 -6 OFFCURVE",
"129 -6 CURVE SMOOTH"
);
},
{
closed = 1;
nodes = (
"96 69 LINE",
"82 95 OFFCURVE",
"70 155 OFFCURVE",
"70 202 CURVE",
"30 202 LINE",
"30 139 OFFCURVE",
"41 74 OFFCURVE",
"63 33 CURVE"
);
},
{
closed = 1;
nodes = (
"70 251 LINE",
"70 373 LINE SMOOTH",
"70 455 OFFCURVE",
"110 477 OFFCURVE",
"146 477 CURVE SMOOTH",
"157 477 OFFCURVE",
"168 475 OFFCURVE",
"178 472 CURVE SMOOTH",
"202 464 LINE",
"202 507 LINE",
"181 514 OFFCURVE",
"162 518 OFFCURVE",
"144 518 CURVE SMOOTH",
"75 518 OFFCURVE",
"30 465 OFFCURVE",
"30 371 CURVE SMOOTH",
"30 251 LINE"
);
},
{
closed = 1;
nodes = (
"854 251 LINE",
"854 371 LINE SMOOTH",
"854 465 OFFCURVE",
"809 518 OFFCURVE",
"740 518 CURVE SMOOTH",
"722 518 OFFCURVE",
"703 514 OFFCURVE",
"682 507 CURVE",
"682 464 LINE",
"706 472 LINE SMOOTH",
"716 475 OFFCURVE",
"727 477 OFFCURVE",
"738 477 CURVE SMOOTH",
"774 477 OFFCURVE",
"814 455 OFFCURVE",
"814 373 CURVE SMOOTH",
"814 251 LINE"
);
},
{
closed = 1;
nodes = (
"843 74 OFFCURVE",
"854 139 OFFCURVE",
"854 202 CURVE",
"814 202 LINE",
"814 155 OFFCURVE",
"802 95 OFFCURVE",
"788 69 CURVE",
"821 33 LINE"
);
},
{
closed = 1;
nodes = (
"797 -6 OFFCURVE",
"830 27 OFFCURVE",
"830 69 CURVE SMOOTH",
"830 111 OFFCURVE",
"797 144 OFFCURVE",
"755 144 CURVE SMOOTH",
"713 144 OFFCURVE",
"680 111 OFFCURVE",
"680 69 CURVE SMOOTH",
"680 27 OFFCURVE",
"713 -6 OFFCURVE",
"755 -6 CURVE SMOOTH"
);
}
);
width = 884;
},
{
components = (
{
name = sinPa;
transform = "{1, 0, 0, 1, 175, 0}";
}
);
layerId = "4EACF7E3-2421-4EEA-928B-7BA9BC4A845D";
paths = (
{
closed = 1;
nodes = (
"191 -6 OFFCURVE",
"233 36 OFFCURVE",
"233 88 CURVE SMOOTH",
"233 140 OFFCURVE",
"191 182 OFFCURVE",
"139 182 CURVE SMOOTH",
"87 182 OFFCURVE",
"45 140 OFFCURVE",
"45 88 CURVE SMOOTH",
"45 36 OFFCURVE",
"87 -6 OFFCURVE",
"139 -6 CURVE SMOOTH"
);
},
{
closed = 1;
nodes = (
"178 86 LINE",
"168 122 OFFCURVE",
"161 155 OFFCURVE",
"161 202 CURVE",
"30 202 LINE",
"30 139 OFFCURVE",
"34 94 OFFCURVE",
"53 50 CURVE"
);
},
{
closed = 1;
nodes = (
"161 251 LINE",
"161 307 LINE SMOOTH",
"161 414 OFFCURVE",
"211 437 OFFCURVE",
"254 437 CURVE SMOOTH",
"270 437 OFFCURVE",
"287 434 OFFCURVE",
"298 430 CURVE SMOOTH",
"321 422 LINE",
"321 556 LINE",
"293 567 OFFCURVE",
"265 572 OFFCURVE",
"239 572 CURVE SMOOTH",
"120 572 OFFCURVE",
"30 467 OFFCURVE",
"30 332 CURVE SMOOTH",
"30 251 LINE"
);
},
{
closed = 1;
nodes = (
"948 251 LINE",
"948 332 LINE SMOOTH",
"948 467 OFFCURVE",
"858 572 OFFCURVE",
"739 572 CURVE SMOOTH",
"713 572 OFFCURVE",
"685 567 OFFCURVE",
"657 556 CURVE",
"657 422 LINE",
"680 430 LINE SMOOTH",
"691 434 OFFCURVE",
"708 437 OFFCURVE",
"724 437 CURVE SMOOTH",
"767 437 OFFCURVE",
"817 414 OFFCURVE",
"817 307 CURVE SMOOTH",
"817 251 LINE"
);
},
{
closed = 1;
nodes = (
"944 94 OFFCURVE",
"948 139 OFFCURVE",
"948 202 CURVE",
"817 202 LINE",
"817 155 OFFCURVE",
"810 122 OFFCURVE",
"800 86 CURVE",
"925 50 LINE"
);
},
{
closed = 1;
nodes = (
"891 -6 OFFCURVE",
"933 36 OFFCURVE",
"933 88 CURVE SMOOTH",
"933 140 OFFCURVE",
"891 182 OFFCURVE",
"839 182 CURVE SMOOTH",
"787 182 OFFCURVE",
"745 140 OFFCURVE",
"745 88 CURVE SMOOTH",
"745 36 OFFCURVE",
"787 -6 OFFCURVE",
"839 -6 CURVE SMOOTH"
);
}
);
width = 978;
}
);
unicode = 0D8F;
},
{
glyphname = sinE;
lastChange = "2021-06-28 01:49:49 +0000";
layers = (
{
layerId = "DC4431BF-9234-4C16-9154-22D387E42D10";
paths = (
{
closed = 1;
nodes = (
"279 40 LINE",
"164 40 OFFCURVE",
"115 119 OFFCURVE",
"115 191 CURVE SMOOTH",
"115 252 OFFCURVE",
"150 309 OFFCURVE",
"209 309 CURVE SMOOTH",
"335 309 LINE",
"335 354 LINE SMOOTH",
"335 396 OFFCURVE",
"318 427 OFFCURVE",
"292 448 CURVE SMOOTH",
"266 469 OFFCURVE",
"232 479 OFFCURVE",
"199 479 CURVE SMOOTH",
"144 479 OFFCURVE",
"91 452 OFFCURVE",
"77 399 CURVE",
"116 389 LINE",
"130 422 OFFCURVE",
"164 438 OFFCURVE",
"198 438 CURVE SMOOTH",
"244 438 OFFCURVE",
"295 405 OFFCURVE",
"295 357 CURVE SMOOTH",
"295 349 LINE",
"30 349 LINE",
"30 309 LINE",
"115 309 LINE",
"88 279 OFFCURVE",
"73 236 OFFCURVE",
"73 191 CURVE SMOOTH",
"73 99 OFFCURVE",
"136 0 OFFCURVE",
"279 0 CURVE"
);
},
{
closed = 1;
nodes = (
"493 0 OFFCURVE",
"559 84 OFFCURVE",
"559 241 CURVE",
"517 241 LINE",
"517 95 OFFCURVE",
"447 40 OFFCURVE",
"334 40 CURVE",
"334 0 LINE"
);
},
{
closed = 1;
nodes = (
"292 755 LINE",
"292 637 LINE SMOOTH",
"292 541 OFFCURVE",
"345 464 OFFCURVE",
"462 464 CURVE",
"462 504 LINE",
"399 504 OFFCURVE",
"332 537 OFFCURVE",
"332 637 CURVE SMOOTH",
"332 715 LINE",
"333 715 LINE SMOOTH",
"469 715 OFFCURVE",
"517 643 OFFCURVE",
"517 498 CURVE SMOOTH",
"517 241 LINE",
"559 241 LINE",
"559 517 LINE SMOOTH",
"559 700 OFFCURVE",
"462 755 OFFCURVE",
"332 755 CURVE SMOOTH"
);
}
);
width = 589;
},
{
layerId = "4EACF7E3-2421-4EEA-928B-7BA9BC4A845D";
paths = (
{
closed = 1;
nodes = (
"283 140 LINE",
"230 140 OFFCURVE",
"207 166 OFFCURVE",
"207 201 CURVE SMOOTH",
"207 252 OFFCURVE",
"258 252 OFFCURVE",
"266 252 CURVE SMOOTH",
"350 252 LINE",
"350 350 LINE SMOOTH",
"350 403 OFFCURVE",
"340 434 OFFCURVE",
"317 459 CURVE SMOOTH",
"292 486 OFFCURVE",
"251 503 OFFCURVE",
"207 503 CURVE SMOOTH",
"169 503 OFFCURVE",
"92 490 OFFCURVE",
"66 402 CURVE",
"165 376 LINE",
"169 395 OFFCURVE",
"192 400 OFFCURVE",
"205 400 CURVE SMOOTH",
"226 400 OFFCURVE",
"247 389 OFFCURVE",
"247 360 CURVE SMOOTH",
"247 354 LINE",
"30 354 LINE",
"30 252 LINE",
"80 252 LINE",
"70 232 OFFCURVE",
"69 211 OFFCURVE",
"69 198 CURVE SMOOTH",
"69 85 OFFCURVE",
"156 -5 OFFCURVE",
"283 -5 CURVE"
);
},
{
closed = 1;
nodes = (
"494 -5 OFFCURVE",
"574 78 OFFCURVE",
"574 250 CURVE",
"434 250 LINE",
"434 154 OFFCURVE",
"381 140 OFFCURVE",
"339 140 CURVE",
"339 -5 LINE"
);
},
{
closed = 1;
nodes = (
"218 755 LINE",
"218 606 LINE SMOOTH",
"218 519 OFFCURVE",
"269 441 OFFCURVE",
"398 441 CURVE",
"398 548 LINE",
"345 548 OFFCURVE",
"339 581 OFFCURVE",
"339 614 CURVE SMOOTH",
"339 629 LINE",
"350 629 LINE SMOOTH",
"418 629 OFFCURVE",
"434 593 OFFCURVE",
"434 508 CURVE SMOOTH",
"434 250 LINE",
"574 250 LINE",
"574 517 LINE SMOOTH",
"574 700 OFFCURVE",
"473 755 OFFCURVE",
"339 755 CURVE SMOOTH"
);
}
);
width = 604;
},
{
associatedMasterId = "4EACF7E3-2421-4EEA-928B-7BA9BC4A845D";
layerId = "2AE68F0B-E7D3-44CB-828E-723C5F3F960F";
name = "27 Jun 21, 16:32";
paths = (
{
closed = 1;
nodes = (
"283 140 LINE",
"230 140 OFFCURVE",
"207 168 OFFCURVE",
"207 195 CURVE SMOOTH",
"207 242 OFFCURVE",
"236 252 OFFCURVE",
"266 252 CURVE SMOOTH",
"350 252 LINE",
"350 350 LINE SMOOTH",
"350 406 OFFCURVE",
"340 432 OFFCURVE",
"317 459 CURVE SMOOTH",
"294 486 OFFCURVE",
"249 503 OFFCURVE",
"205 503 CURVE SMOOTH",
"169 503 OFFCURVE",
"92 490 OFFCURVE",
"66 402 CURVE",
"165 376 LINE",
"170 397 OFFCURVE",
"195 400 OFFCURVE",
"205 400 CURVE SMOOTH",
"226 400 OFFCURVE",
"247 389 OFFCURVE",
"247 360 CURVE SMOOTH",
"247 354 LINE",
"30 354 LINE",
"30 252 LINE",
"80 252 LINE",
"70 232 OFFCURVE",
"69 212 OFFCURVE",
"69 192 CURVE SMOOTH",
"69 87 OFFCURVE",
"156 -5 OFFCURVE",
"283 -5 CURVE"
);
},
{
closed = 1;
nodes = (
"494 -5 OFFCURVE",
"574 78 OFFCURVE",
"574 250 CURVE",
"434 250 LINE",
"434 154 OFFCURVE",
"381 140 OFFCURVE",
"339 140 CURVE",
"339 -5 LINE"
);
},
{
closed = 1;
nodes = (
"574 250 LINE",
"574 517 LINE SMOOTH",
"574 700 OFFCURVE",
"473 755 OFFCURVE",
"339 755 CURVE SMOOTH",
"259 755 LINE",
"259 617 LINE SMOOTH",
"259 544 OFFCURVE",
"295 474 OFFCURVE",
"398 454 CURVE",
"398 540 LINE",
"368 546 OFFCURVE",
"339 567 OFFCURVE",
"339 604 CURVE",
"339 616 LINE",
"417 616 OFFCURVE",
"434 577 OFFCURVE",
"434 498 CURVE SMOOTH",
"434 250 LINE"
);
}
);
width = 604;
},
{
associatedMasterId = "DC4431BF-9234-4C16-9154-22D387E42D10";
layerId = "76E7CAF3-56EC-44B8-948C-35C451D471B7";
name = "27 Jun 21, 16:32";
paths = (
{
closed = 1;
nodes = (
"279 40 LINE",
"164 40 OFFCURVE",
"115 119 OFFCURVE",
"115 191 CURVE SMOOTH",
"115 252 OFFCURVE",
"150 309 OFFCURVE",
"209 309 CURVE SMOOTH",
"335 309 LINE",
"335 354 LINE SMOOTH",
"335 396 OFFCURVE",
"318 427 OFFCURVE",
"292 448 CURVE SMOOTH",
"266 469 OFFCURVE",
"232 479 OFFCURVE",
"199 479 CURVE SMOOTH",
"144 479 OFFCURVE",
"91 452 OFFCURVE",
"77 399 CURVE",
"116 389 LINE",
"130 422 OFFCURVE",
"164 438 OFFCURVE",
"198 438 CURVE SMOOTH",
"244 438 OFFCURVE",
"295 405 OFFCURVE",
"295 357 CURVE",
"295 349 LINE",
"30 349 LINE",
"30 309 LINE",
"115 309 LINE",
"88 279 OFFCURVE",
"73 236 OFFCURVE",
"73 191 CURVE SMOOTH",
"73 99 OFFCURVE",
"136 0 OFFCURVE",
"279 0 CURVE"
);
},
{
closed = 1;
nodes = (
"493 0 OFFCURVE",
"559 84 OFFCURVE",
"559 241 CURVE",
"517 241 LINE",
"517 95 OFFCURVE",
"447 40 OFFCURVE",
"334 40 CURVE",
"334 0 LINE"
);
},
{
closed = 1;
nodes = (
"559 241 LINE",
"559 517 LINE SMOOTH",
"559 700 OFFCURVE",
"462 755 OFFCURVE",
"332 755 CURVE SMOOTH",
"292 755 LINE",
"292 637 LINE SMOOTH",
"292 541 OFFCURVE",
"345 464 OFFCURVE",
"462 464 CURVE",
"462 504 LINE",
"399 504 OFFCURVE",
"332 537 OFFCURVE",
"332 637 CURVE SMOOTH",
"332 715 LINE",
"469 715 OFFCURVE",
"517 643 OFFCURVE",
"517 498 CURVE SMOOTH",
"517 241 LINE"
);
}
);
width = 589;
}
);
unicode = 0D91;
userData = {
com.fontlab.hintData = {
hhints = (
{
position = 0;
width = 40;
},
{
position = 235;
width = 6;
},
{
position = 309;
width = 40;
},
{
position = 464;
width = 40;
},
{
position = 715;
width = 40;
}
);
vhints = (
{
position = 292;
width = 40;
},
{
position = 517;
width = 42;
}
);
};
};
},
{
glyphname = sinEe;
lastChange = "2021-05-19 08:51:46 +0000";
layers = (
{
components = (
{
name = sinE;
}
);
layerId = "DC4431BF-9234-4C16-9154-22D387E42D10";
paths = (
{
closed = 1;
nodes = (
"559 518 LINE",
"559 819 LINE",
"517 819 LINE",
"517 518 LINE"
);
}
);
width = 589;
},
{
components = (
{
name = sinE;
}
);
layerId = "4EACF7E3-2421-4EEA-928B-7BA9BC4A845D";
paths = (
{
closed = 1;
nodes = (
"573 518 LINE",
"573 819 LINE",
"437.001 819 LINE",
"437.001 518 LINE"
);
}
);
width = 604;
}
);
unicode = 0D92;
userData = {
com.fontlab.hintData = {
hhints = (
{
position = 0;
width = 40;
},
{
position = 235;
width = 6;
},
{
position = 309;
width = 40;
},
{
position = 464;
width = 40;
},
{
position = 715;
width = 40;
}
);
vhints = (
{
position = 292;
width = 40;
},
{
position = 517;
width = 42;
}
);
};
};
},
{
glyphname = sinO;
lastChange = "2021-06-28 02:07:40 +0000";
layers = (
{
layerId = "DC4431BF-9234-4C16-9154-22D387E42D10";
paths = (
{
closed = 1;
nodes = (
"223 0 OFFCURVE",
"266 21 OFFCURVE",
"290 58 CURVE",
"314 21 OFFCURVE",
"357 0 OFFCURVE",
"409 0 CURVE SMOOTH",
"492 0 OFFCURVE",
"550 52 OFFCURVE",
"550 133 CURVE SMOOTH",
"550 201 LINE",
"508 201 LINE",
"508 139 LINE SMOOTH",
"508 104 OFFCURVE",
"485 40 OFFCURVE",
"409 40 CURVE SMOOTH",
"334 40 OFFCURVE",
"311 104 OFFCURVE",
"311 139 CURVE SMOOTH",
"311 192 LINE",
"269 192 LINE",
"269 139 LINE SMOOTH",
"269 104 OFFCURVE",
"246 40 OFFCURVE",
"171 40 CURVE SMOOTH",
"95 40 OFFCURVE",
"72 104 OFFCURVE",
"72 139 CURVE SMOOTH",
"72 366 LINE SMOOTH",
"72 415 OFFCURVE",
"106 439 OFFCURVE",
"140 439 CURVE SMOOTH",
"173 439 OFFCURVE",
"206 416 OFFCURVE",
"206 370 CURVE SMOOTH",
"206 310 LINE SMOOTH",
"206 257 OFFCURVE",
"247 230 OFFCURVE",
"287 230 CURVE SMOOTH",
"328 230 OFFCURVE",
"369 257 OFFCURVE",
"369 310 CURVE SMOOTH",
"369 469 LINE",
"329 469 LINE",
"329 315 LINE SMOOTH",
"329 289 OFFCURVE",
"308 276 OFFCURVE",
"287 276 CURVE SMOOTH",
"267 276 OFFCURVE",
"246 289 OFFCURVE",
"246 315 CURVE SMOOTH",
"246 370 LINE SMOOTH",
"246 444 OFFCURVE",
"194 480 OFFCURVE",
"142 480 CURVE SMOOTH",
"86 480 OFFCURVE",
"30 441 OFFCURVE",
"30 366 CURVE SMOOTH",
"30 133 LINE SMOOTH",
"30 52 OFFCURVE",
"88 0 OFFCURVE",
"171 0 CURVE SMOOTH"
);
},
{
closed = 1;
nodes = (
"74 651 OFFCURVE",
"164 715 OFFCURVE",
"257 715 CURVE",
"257 755 LINE",
"153 755 OFFCURVE",
"35 681 OFFCURVE",
"35 563 CURVE",
"74 553 LINE"
);
},
{
closed = 1;
nodes = (
"550 201 LINE",
"550 514 LINE SMOOTH",
"550 678 OFFCURVE",
"481 755 OFFCURVE",
"314 755 CURVE",
"314 715 LINE",
"435 715 OFFCURVE",
"508 668 OFFCURVE",
"508 514 CURVE SMOOTH",
"508 201 LINE"
);
}
);
width = 580;
},
{
layerId = "4EACF7E3-2421-4EEA-928B-7BA9BC4A845D";
paths = (
{
closed = 1;
nodes = (
"234 -8 OFFCURVE",
"274 3 OFFCURVE",
"303 35 CURVE",
"329 6 OFFCURVE",
"365 -8 OFFCURVE",
"409 -8 CURVE SMOOTH",
"504 -8 OFFCURVE",
"576 58 OFFCURVE",
"576 160 CURVE SMOOTH",
"576 202 LINE",
"439 202 LINE",
"439 169 LINE SMOOTH",
"439 143 OFFCURVE",
"417 129 OFFCURVE",
"395 129 CURVE SMOOTH",
"374 129 OFFCURVE",
"353 142 OFFCURVE",
"353 169 CURVE SMOOTH",
"353 202 LINE",
"253 202 LINE",
"253 169 LINE SMOOTH",
"253 141 OFFCURVE",
"232 128 OFFCURVE",
"211 128 CURVE SMOOTH",
"189 128 OFFCURVE",
"167 143 OFFCURVE",
"167 169 CURVE SMOOTH",
"167 328 LINE SMOOTH",
"167 340.999 OFFCURVE",
"175 348 OFFCURVE",
"182 348 CURVE SMOOTH",
"190 348 OFFCURVE",
"198 341 OFFCURVE",
"198 328 CURVE SMOOTH",
"198 320 LINE SMOOTH",
"198 260 OFFCURVE",
"245 229 OFFCURVE",
"295 229 CURVE SMOOTH",
"348 229 OFFCURVE",
"404 265 OFFCURVE",
"404 340 CURVE SMOOTH",
"404 469 LINE",
"312 469 LINE",
"312 348 LINE SMOOTH",
"312 337 OFFCURVE",
"304 331 OFFCURVE",
"296 331 CURVE SMOOTH",
"289 331 OFFCURVE",
"281 337 OFFCURVE",
"281 348 CURVE SMOOTH",
"281 364 LINE SMOOTH",
"281 437 OFFCURVE",
"224 473 OFFCURVE",
"164 473 CURVE SMOOTH",
"99 473 OFFCURVE",
"30 428 OFFCURVE",
"30 342 CURVE SMOOTH",
"30 160 LINE SMOOTH",
"30 58 OFFCURVE",
"102 -8 OFFCURVE",
"196 -8 CURVE SMOOTH"
);
},
{
closed = 1;
nodes = (
"172 602 OFFCURVE",
"214 617 OFFCURVE",
"262 617 CURVE",
"262 755 LINE",
"149 755 OFFCURVE",
"35 678 OFFCURVE",
"35 566 CURVE",
"172 530 LINE"
);
},
{
closed = 1;
nodes = (
"576 202 LINE",
"576 520 LINE SMOOTH",
"576 695 OFFCURVE",
"495 755 OFFCURVE",
"319 755 CURVE",
"319 616 LINE",
"390 616 OFFCURVE",
"439 616 OFFCURVE",
"439 508 CURVE SMOOTH",
"439 202 LINE"
);
}
);
width = 606;
}
);
unicode = 0D94;
},
{
glyphname = sinOo;
lastChange = "2021-06-28 01:55:44 +0000";
layers = (
{
layerId = "DC4431BF-9234-4C16-9154-22D387E42D10";
paths = (
{
closed = 1;
nodes = (
"223 0 OFFCURVE",
"266 21 OFFCURVE",
"290 58 CURVE",
"314 21 OFFCURVE",
"357 0 OFFCURVE",
"409 0 CURVE SMOOTH",
"492 0 OFFCURVE",
"550 52 OFFCURVE",
"550 133 CURVE SMOOTH",
"550 197 LINE",
"508 197 LINE",
"508 139 LINE SMOOTH",
"508 104 OFFCURVE",
"485 40 OFFCURVE",
"409 40 CURVE SMOOTH",
"334 40 OFFCURVE",
"311 104 OFFCURVE",
"311 139 CURVE SMOOTH",
"311 192 LINE",
"269 192 LINE",
"269 139 LINE SMOOTH",
"269 104 OFFCURVE",
"246 40 OFFCURVE",
"171 40 CURVE SMOOTH",
"95 40 OFFCURVE",
"72 104 OFFCURVE",
"72 139 CURVE SMOOTH",
"72 366 LINE SMOOTH",
"72 415 OFFCURVE",
"106 439 OFFCURVE",
"140 439 CURVE SMOOTH",
"173 439 OFFCURVE",
"206 416 OFFCURVE",
"206 370 CURVE SMOOTH",
"206 310 LINE SMOOTH",
"206 257 OFFCURVE",
"247 230 OFFCURVE",
"287 230 CURVE SMOOTH",
"328 230 OFFCURVE",
"369 257 OFFCURVE",
"369 310 CURVE SMOOTH",
"369 469 LINE",
"329 469 LINE",
"329 315 LINE SMOOTH",
"329 289 OFFCURVE",
"308 276 OFFCURVE",
"287 276 CURVE SMOOTH",
"267 276 OFFCURVE",
"246 289 OFFCURVE",
"246 315 CURVE SMOOTH",
"246 370 LINE SMOOTH",
"246 444.003 OFFCURVE",
"194 480 OFFCURVE",
"141 480 CURVE SMOOTH",
"86 480 OFFCURVE",
"30 441 OFFCURVE",
"30 366 CURVE SMOOTH",
"30 133 LINE SMOOTH",
"30 52 OFFCURVE",
"88 0 OFFCURVE",
"171 0 CURVE SMOOTH"
);
},
{
closed = 1;
nodes = (
"550 197 LINE",
"550 474 LINE SMOOTH",
"550 590 OFFCURVE",
"508 652 OFFCURVE",
"348 652 CURVE",
"348 612 LINE",
"464 612 OFFCURVE",
"508 584 OFFCURVE",
"508 465 CURVE SMOOTH",
"508 197 LINE"
);
},
{
closed = 1;
nodes = (
"348 612 LINE",
"348 652 LINE",
"180 652 LINE SMOOTH",
"132 652 OFFCURVE",
"109 684 OFFCURVE",
"109 716 CURVE SMOOTH",
"109 747 OFFCURVE",
"132 779 OFFCURVE",
"180 779 CURVE SMOOTH",
"270 779 LINE",
"270 819 LINE",
"184 819 LINE SMOOTH",
"115 819 OFFCURVE",
"67 770 OFFCURVE",
"67 718 CURVE SMOOTH",
"67 695 OFFCURVE",
"73 672 OFFCURVE",
"94 652 CURVE",
"59 652 LINE",
"59 612 LINE"
);
},
{
closed = 1;
nodes = (
"546 673 LINE",
"546 742 OFFCURVE",
"539 819 OFFCURVE",
"391 819 CURVE SMOOTH",
"326 819 LINE",
"326 779 LINE",
"391 779 LINE SMOOTH",
"452 779 OFFCURVE",
"506 778 OFFCURVE",
"506 673 CURVE"
);
}
);
width = 580;
},
{
layerId = "4EACF7E3-2421-4EEA-928B-7BA9BC4A845D";
paths = (
{
closed = 1;
nodes = (
"234 -8 OFFCURVE",
"274 3 OFFCURVE",
"303 35 CURVE",
"329 6 OFFCURVE",
"365 -8 OFFCURVE",
"409 -8 CURVE SMOOTH",
"504 -8 OFFCURVE",
"576 58 OFFCURVE",
"576 160 CURVE SMOOTH",
"576 203 LINE",
"439 203 LINE",
"439 169 LINE SMOOTH",
"439 143 OFFCURVE",
"417 129 OFFCURVE",
"395 129 CURVE SMOOTH",
"374 129 OFFCURVE",
"353 142 OFFCURVE",
"353 169 CURVE SMOOTH",
"353 202 LINE",
"253 202 LINE",
"253 169 LINE SMOOTH",
"253 141 OFFCURVE",
"232 128 OFFCURVE",
"211 128 CURVE SMOOTH",
"189 128 OFFCURVE",
"167 143 OFFCURVE",
"167 169 CURVE SMOOTH",
"167 328 LINE SMOOTH",
"167 340.999 OFFCURVE",
"175 348 OFFCURVE",
"182 348 CURVE SMOOTH",
"190 348 OFFCURVE",
"198 341 OFFCURVE",
"198 328 CURVE SMOOTH",
"198 320 LINE SMOOTH",
"198 262 OFFCURVE",
"248 229 OFFCURVE",
"299 229 CURVE SMOOTH",
"351 229 OFFCURVE",
"404 263 OFFCURVE",
"404 340 CURVE SMOOTH",
"404 469 LINE",
"312 469 LINE",
"312 348 LINE SMOOTH",
"312 337 OFFCURVE",
"304 331 OFFCURVE",
"296 331 CURVE SMOOTH",
"289 331 OFFCURVE",
"281 337 OFFCURVE",
"281 348 CURVE SMOOTH",
"281 364 LINE SMOOTH",
"281 437 OFFCURVE",
"224 473 OFFCURVE",
"164 473 CURVE SMOOTH",
"99 473 OFFCURVE",
"30 428 OFFCURVE",
"30 342 CURVE SMOOTH",
"30 160 LINE SMOOTH",
"30 58 OFFCURVE",
"102 -8 OFFCURVE",
"196 -8 CURVE SMOOTH"
);
},
{
closed = 1;
nodes = (
"576 203 LINE",
"576 474 LINE SMOOTH",
"576 590 OFFCURVE",
"508 652 OFFCURVE",
"348 652 CURVE",
"348 522 LINE",
"398 522 OFFCURVE",
"439 514 OFFCURVE",
"439 455 CURVE SMOOTH",
"439 203 LINE"
);
},
{
closed = 1;
nodes = (
"348 522 LINE",
"348 652 LINE",
"239 652 LINE SMOOTH",
"218 652 OFFCURVE",
"204 661 OFFCURVE",
"204 678 CURVE SMOOTH",
"204 689 OFFCURVE",
"210 703 OFFCURVE",
"239 703 CURVE SMOOTH",
"284 703 LINE",
"284 819 LINE",
"193 819 LINE SMOOTH",
"130 819 OFFCURVE",
"74 764 OFFCURVE",
"74 711 CURVE SMOOTH",
"74 690 OFFCURVE",
"83 669 OFFCURVE",
"103 652 CURVE",
"68 652 LINE",
"68 522 LINE"
);
},
{
closed = 1;
nodes = (
"566 673 LINE",
"566 756 OFFCURVE",
"541 819 OFFCURVE",
"393 819 CURVE SMOOTH",
"341 819 LINE",
"341 703 LINE",
"361 703 LINE SMOOTH",
"406 703 OFFCURVE",
"431 700 OFFCURVE",
"431 673 CURVE"
);
}
);
width = 606;
}
);
unicode = 0D95;
},
{
glyphname = sinKa;
lastChange = "2021-06-28 02:51:59 +0000";
layers = (
{
layerId = "DC4431BF-9234-4C16-9154-22D387E42D10";
paths = (
{
closed = 1;
nodes = (
"124 565 OFFCURVE",
"64 533 OFFCURVE",
"33 452 CURVE",
"72 440 LINE",
"95 498 OFFCURVE",
"139 521 OFFCURVE",
"181 521 CURVE SMOOTH",
"230 521 OFFCURVE",
"276 491 OFFCURVE",
"289 445 CURVE",
"320 473 LINE",
"305 527 OFFCURVE",
"245 565 OFFCURVE",
"182 565 CURVE SMOOTH"
);
},
{
closed = 1;
nodes = (
"443 560 OFFCURVE",
"375 537 OFFCURVE",
"320 494 CURVE",
"30 238 LINE",
"30 196 LINE",
"69 225 LINE",
"349 466 LINE SMOOTH",
"392 503 OFFCURVE",
"447 521 OFFCURVE",
"499 521 CURVE SMOOTH",
"598 521 OFFCURVE",
"690 454 OFFCURVE",
"690 314 CURVE SMOOTH",
"690 192 LINE SMOOTH",
"690 48 OFFCURVE",
"616 39 OFFCURVE",
"554 39 CURVE",
"554 -1 LINE",
"693 -1 OFFCURVE",
"730 66 OFFCURVE",
"730 192 CURVE SMOOTH",
"730 314 LINE SMOOTH",
"730 485 OFFCURVE",
"624 560 OFFCURVE",
"508 560 CURVE SMOOTH"
);
},
{
closed = 1;
nodes = (
"217 -5 OFFCURVE",
"250 8 OFFCURVE",
"276 36 CURVE",
"306 10 OFFCURVE",
"345 -4 OFFCURVE",
"382 -4 CURVE SMOOTH",
"445 -4 OFFCURVE",
"503 35 OFFCURVE",
"503 114 CURVE SMOOTH",
"503 240 LINE SMOOTH",
"503 362 OFFCURVE",
"441 391 OFFCURVE",
"365 403 CURVE",
"327 370 LINE",
"426 355 OFFCURVE",
"463 331 OFFCURVE",
"463.004 240 CURVE SMOOTH",
"463 114 LINE SMOOTH",
"463 65 OFFCURVE",
"418 38 OFFCURVE",
"375 38 CURVE SMOOTH",
"335 38 OFFCURVE",
"296 61 OFFCURVE",
"296 114 CURVE SMOOTH",
"296 192 LINE",
"256 192 LINE",
"256 114 LINE SMOOTH",
"256 61 OFFCURVE",
"221 38 OFFCURVE",
"185 38 CURVE SMOOTH",
"146 38 OFFCURVE",
"106 65 OFFCURVE",
"106 114 CURVE SMOOTH",
"106 166 LINE SMOOTH",
"106 185 OFFCURVE",
"100 229 OFFCURVE",
"30 238 CURVE",
"30 196 LINE",
"34 197 OFFCURVE",
"41 199 OFFCURVE",
"44 199 CURVE SMOOTH",
"54 199 OFFCURVE",
"65 168 OFFCURVE",
"65 146 CURVE SMOOTH",
"65.003 114 LINE SMOOTH",
"65 39 OFFCURVE",
"123 -5 OFFCURVE",
"184 -5 CURVE SMOOTH"
);
}
);
width = 760;
},
{
layerId = "4EACF7E3-2421-4EEA-928B-7BA9BC4A845D";
paths = (
{
closed = 1;
nodes = (
"136 567 OFFCURVE",
"44 537 OFFCURVE",
"30 439 CURVE",
"147 402 LINE",
"147 425 OFFCURVE",
"167 446 OFFCURVE",
"196 446 CURVE SMOOTH",
"216 446 OFFCURVE",
"245 436 OFFCURVE",
"245 402 CURVE",
"337 502 LINE",
"319 535 OFFCURVE",
"267 567 OFFCURVE",
"200 567 CURVE SMOOTH"
);
},
{
closed = 1;
nodes = (
"445 574 OFFCURVE",
"361 542 OFFCURVE",
"301 480 CURVE",
"30 250 LINE",
"30 160 LINE",
"155 181 LINE",
"425 400 LINE",
"451 423 OFFCURVE",
"481 434 OFFCURVE",
"509 434 CURVE SMOOTH",
"572 434 OFFCURVE",
"630 382 OFFCURVE",
"630 307 CURVE SMOOTH",
"630 205 LINE SMOOTH",
"630 181 OFFCURVE",
"626 142 OFFCURVE",
"574 142 CURVE",
"574 -1 LINE",
"713 -1 OFFCURVE",
"770 89 OFFCURVE",
"770 205 CURVE SMOOTH",
"770 321 LINE SMOOTH",
"770 493 OFFCURVE",
"652 574 OFFCURVE",
"525 574 CURVE SMOOTH"
);
},
{
closed = 1;
nodes = (
"237 -7 OFFCURVE",
"270 6 OFFCURVE",
"290 36 CURVE",
"314 6 OFFCURVE",
"349 -7 OFFCURVE",
"385 -7 CURVE SMOOTH",
"455 -7 OFFCURVE",
"529 47 OFFCURVE",
"529 136 CURVE SMOOTH",
"529 218 LINE SMOOTH",
"529 280 OFFCURVE",
"512 327 OFFCURVE",
"448 354 CURVE",
"351 276 LINE",
"394 259 OFFCURVE",
"400 233 OFFCURVE",
"400 202 CURVE SMOOTH",
"400 162 LINE SMOOTH",
"400 142 OFFCURVE",
"385 132 OFFCURVE",
"370 132 CURVE SMOOTH",
"355 132 OFFCURVE",
"340 142 OFFCURVE",
"340 162 CURVE SMOOTH",
"340 202 LINE",
"240 202 LINE",
"240 160 LINE SMOOTH",
"240 141 OFFCURVE",
"225 132 OFFCURVE",
"211 132 CURVE SMOOTH",
"196 132 OFFCURVE",
"181 141 OFFCURVE",
"181 160 CURVE SMOOTH",
"181 202 LINE SMOOTH",
"181 221 OFFCURVE",
"166 239 OFFCURVE",
"147 255 CURVE",
"30 160 LINE",
"34 161 OFFCURVE",
"38 162 OFFCURVE",
"43 162 CURVE SMOOTH",
"65 162 OFFCURVE",
"65 139 OFFCURVE",
"65 122 CURVE SMOOTH",
"65 106 LINE SMOOTH",
"65 42 OFFCURVE",
"137 -7 OFFCURVE",
"203 -7 CURVE SMOOTH"
);
}
);
width = 800;
}
);
unicode = 0D9A;
},
{
glyphname = sinKha;
lastChange = "2021-06-28 01:55:44 +0000";
layers = (
{
layerId = "DC4431BF-9234-4C16-9154-22D387E42D10";
paths = (
{
closed = 1;
nodes = (
"484 -4 OFFCURVE",
"556 44 OFFCURVE",
"556 142 CURVE SMOOTH",
"556 514 LINE SMOOTH",
"556 671 OFFCURVE",
"490 755 OFFCURVE",
"331 755 CURVE SMOOTH",
"320 755 LINE",
"320 715 LINE",
"331 715 LINE SMOOTH",
"444 715 OFFCURVE",
"514 662 OFFCURVE",
"514 514 CURVE SMOOTH",
"514 142 LINE SMOOTH",
"514 75 OFFCURVE",
"463 42 OFFCURVE",
"412 42 CURVE SMOOTH",
"361 42 OFFCURVE",
"309 75 OFFCURVE",
"309 142 CURVE SMOOTH",
"309 192 LINE",
"268 192 LINE",
"268 142 LINE SMOOTH",
"268 44 OFFCURVE",
"340 -4 OFFCURVE",
"412 -4 CURVE SMOOTH"
);
},
{
closed = 1;
nodes = (
"309 -65 LINE",
"309 284 LINE SMOOTH",
"309 391 OFFCURVE",
"240 443 OFFCURVE",
"170 443 CURVE SMOOTH",
"100 443 OFFCURVE",
"30 390 OFFCURVE",
"30 284 CURVE SMOOTH",
"30 177 LINE SMOOTH",
"30 45 OFFCURVE",
"91 0 OFFCURVE",
"211 0 CURVE",
"211 40 LINE",
"123 40 OFFCURVE",
"71 65 OFFCURVE",
"71 177 CURVE SMOOTH",
"71 284 LINE SMOOTH",
"71 360 OFFCURVE",
"120 398 OFFCURVE",
"170 398 CURVE SMOOTH",
"219 398 OFFCURVE",
"268 360 OFFCURVE",
"268 284 CURVE SMOOTH",
"268 -65 LINE"
);
},
{
closed = 1;
nodes = (
"81 651 OFFCURVE",
"171 715 OFFCURVE",
"264 715 CURVE",
"264 755 LINE",
"160 755 OFFCURVE",
"42 681 OFFCURVE",
"42 563 CURVE",
"81 553 LINE"
);
}
);
width = 586;
},
{
layerId = "4EACF7E3-2421-4EEA-928B-7BA9BC4A845D";
paths = (
{
closed = 1;
nodes = (
"519 -7 OFFCURVE",
"595 48 OFFCURVE",
"595 199 CURVE SMOOTH",
"595 500 LINE SMOOTH",
"595 699 OFFCURVE",
"494 755 OFFCURVE",
"360 755 CURVE SMOOTH",
"329 755 LINE",
"329 616 LINE",
"360 616 LINE SMOOTH",
"438 616 OFFCURVE",
"455 579 OFFCURVE",
"455 500 CURVE SMOOTH",
"455 176 LINE SMOOTH",
"455 155 OFFCURVE",
"440 145 OFFCURVE",
"425 145 CURVE SMOOTH",
"410 145 OFFCURVE",
"395 155 OFFCURVE",
"395 176 CURVE SMOOTH",
"395 222 LINE",
"260 222 LINE",
"260 134 LINE SMOOTH",
"260 59 OFFCURVE",
"352 -7 OFFCURVE",
"440 -7 CURVE SMOOTH"
);
},
{
closed = 1;
nodes = (
"395 -65 LINE",
"395 300 LINE SMOOTH",
"395 399 OFFCURVE",
"308 452 OFFCURVE",
"218 452 CURVE SMOOTH",
"125 452 OFFCURVE",
"30 395 OFFCURVE",
"30 273 CURVE SMOOTH",
"30 189 LINE SMOOTH",
"30 92 OFFCURVE",
"62 0 OFFCURVE",
"214 0 CURVE",
"214 140 LINE",
"169 140 OFFCURVE",
"165 166 OFFCURVE",
"165 202 CURVE SMOOTH",
"165 261 LINE SMOOTH",
"165 295 OFFCURVE",
"189 313 OFFCURVE",
"213 313 CURVE SMOOTH",
"237 313 OFFCURVE",
"260 296 OFFCURVE",
"260 261 CURVE SMOOTH",
"260 -65 LINE"
);
},
{
closed = 1;
nodes = (
"183 602 OFFCURVE",
"225 616 OFFCURVE",
"273 616 CURVE",
"273 755 LINE",
"160 755 OFFCURVE",
"46 678 OFFCURVE",
"46 566 CURVE",
"183 530 LINE"
);
}
);
width = 625;
}
);
unicode = 0D9B;
userData = {
com.fontlab.hintData = {
hhints = (
{
position = 0;
width = 40;
},
{
position = 241;
width = 23;
},
{
position = 715;
width = 40;
}
);
vhints = (
{
position = 30;
width = 41;
},
{
position = 42;
width = 39;
},
{
position = 268;
width = 41;
},
{
position = 514;
width = 42;
}
);
};
};
},
{
glyphname = sinGa;
lastChange = "2021-06-28 01:55:44 +0000";
layers = (
{
layerId = "DC4431BF-9234-4C16-9154-22D387E42D10";
paths = (
{
closed = 1;
nodes = (
"606 -8 OFFCURVE",
"673 80 OFFCURVE",
"673 216 CURVE SMOOTH",
"673 340 LINE SMOOTH",
"673 476 OFFCURVE",
"606 564 OFFCURVE",
"487 564 CURVE",
"487 524 LINE",
"582 524 OFFCURVE",
"633 458 OFFCURVE",
"633 340 CURVE SMOOTH",
"633 216 LINE SMOOTH",
"633 98 OFFCURVE",
"579 32 OFFCURVE",
"487 32 CURVE",
"487 -8 LINE"
);
},
{
closed = 1;
nodes = (
"216 32 LINE",
"124 32 OFFCURVE",
"70 98 OFFCURVE",
"70 216 CURVE SMOOTH",
"70 340 LINE SMOOTH",
"70 458 OFFCURVE",
"121 524 OFFCURVE",
"216 524 CURVE",
"216 564 LINE",
"97 564 OFFCURVE",
"30 476 OFFCURVE",
"30 340 CURVE SMOOTH",
"30 216 LINE SMOOTH",
"30 80 OFFCURVE",
"97 -8 OFFCURVE",
"216 -8 CURVE"
);
},
{
closed = 1;
nodes = (
"372 -8 OFFCURVE",
"439 43 OFFCURVE",
"439 145 CURVE SMOOTH",
"439 164 LINE SMOOTH",
"439 233 OFFCURVE",
"408 311 OFFCURVE",
"306 311 CURVE SMOOTH",
"269 311 LINE",
"269 271 LINE",
"306 271 LINE SMOOTH",
"391 271 OFFCURVE",
"399 200 OFFCURVE",
"399 152 CURVE SMOOTH",
"399 66 OFFCURVE",
"352 32 OFFCURVE",
"272 32 CURVE",
"272 -8 LINE"
);
},
{
closed = 1;
nodes = (
"293 271 LINE",
"293 361 LINE SMOOTH",
"293 443 OFFCURVE",
"324 524 OFFCURVE",
"431 524 CURVE",
"431 564 LINE",
"309 564 OFFCURVE",
"252 478.007 OFFCURVE",
"252 360 CURVE SMOOTH",
"252 271 LINE"
);
}
);
width = 703;
},
{
layerId = "4EACF7E3-2421-4EEA-928B-7BA9BC4A845D";
paths = (
{
closed = 1;
nodes = (
"629 -8 OFFCURVE",
"687 82 OFFCURVE",
"687 198 CURVE SMOOTH",
"687 358 LINE SMOOTH",
"687 474 OFFCURVE",
"629 564 OFFCURVE",
"490 564 CURVE",
"490 421 LINE",
"542 421 OFFCURVE",
"546 376 OFFCURVE",
"546 348 CURVE SMOOTH",
"546 198 LINE SMOOTH",
"546 174 OFFCURVE",
"542 135 OFFCURVE",
"490 135 CURVE",
"490 -8 LINE"
);
},
{
closed = 1;
nodes = (
"227 135 LINE",
"175 135 OFFCURVE",
"171 174 OFFCURVE",
"171 198 CURVE SMOOTH",
"171 348 LINE SMOOTH",
"171 376 OFFCURVE",
"175 421 OFFCURVE",
"227 421 CURVE",
"227 564 LINE",
"88 564 OFFCURVE",
"30 474 OFFCURVE",
"30 358 CURVE SMOOTH",
"30 198 LINE SMOOTH",
"30 82 OFFCURVE",
"88 -8 OFFCURVE",
"227 -8 CURVE"
);
},
{
closed = 1;
nodes = (
"400 -8 OFFCURVE",
"461 45 OFFCURVE",
"461 166 CURVE SMOOTH",
"461 216 LINE SMOOTH",
"461 325 OFFCURVE",
"407 347 OFFCURVE",
"371 347 CURVE SMOOTH",
"271 347 LINE",
"271 241 LINE",
"283 241 LINE SMOOTH",
"336 241 OFFCURVE",
"337 205 OFFCURVE",
"337 188 CURVE SMOOTH",
"337 171 OFFCURVE",
"336 135 OFFCURVE",
"283 135 CURVE",
"283 -8 LINE"
);
},
{
closed = 1;
nodes = (
"393 241 LINE",
"393 350 LINE SMOOTH",
"393 376 OFFCURVE",
"388 421 OFFCURVE",
"434 421 CURVE",
"434 564 LINE",
"290 564 OFFCURVE",
"254 468.007 OFFCURVE",
"254 350 CURVE SMOOTH",
"254 241 LINE"
);
}
);
width = 717;
}
);
unicode = 0D9C;
userData = {
com.fontlab.hintData = {
hhints = (
{
position = -8;
width = 40;
},
{
position = 271;
width = 40;
},
{
position = 524;
width = 40;
}
);
vhints = (
{
position = 30;
width = 40;
},
{
position = 233;
width = 41;
},
{
position = 613;
width = 40;
}
);
};
};
},
{
glyphname = sinGha;
lastChange = "2021-06-28 01:55:44 +0000";
layers = (
{
layerId = "DC4431BF-9234-4C16-9154-22D387E42D10";
paths = (
{
closed = 1;
nodes = (
"289 0 OFFCURVE",
"332 47 OFFCURVE",
"332 141 CURVE SMOOTH",
"332 159 OFFCURVE",
"337 167 OFFCURVE",
"362 167 CURVE SMOOTH",
"387 167 OFFCURVE",
"392 159 OFFCURVE",
"392 142 CURVE SMOOTH",
"392 47 OFFCURVE",
"436 0 OFFCURVE",
"519 0 CURVE SMOOTH",
"583 0 OFFCURVE",
"647 47 OFFCURVE",
"647 139 CURVE SMOOTH",
"647 192 LINE",
"607 192 LINE",
"607 139 LINE SMOOTH",
"607 72 OFFCURVE",
"563 37 OFFCURVE",
"519 37 CURVE SMOOTH",
"455 37 OFFCURVE",
"432 71 OFFCURVE",
"432 142 CURVE SMOOTH",
"432 182 OFFCURVE",
"418 203 OFFCURVE",
"368 204 CURVE SMOOTH",
"363 204 LINE SMOOTH",
"307 204 OFFCURVE",
"292 183 OFFCURVE",
"292 141 CURVE SMOOTH",
"292 71 OFFCURVE",
"268 37 OFFCURVE",
"205 37 CURVE SMOOTH",
"161 37 OFFCURVE",
"117 71 OFFCURVE",
"117 139 CURVE SMOOTH",
"117 192 LINE",
"77 192 LINE",
"77 139 LINE SMOOTH",
"77 47 OFFCURVE",
"141 0 OFFCURVE",
"205 0 CURVE SMOOTH"
);
},
{
closed = 1;
nodes = (
"117 241 LINE",
"117 288 LINE SMOOTH",
"117 355 OFFCURVE",
"156 362 OFFCURVE",
"192 362 CURVE SMOOTH",
"532 362 LINE SMOOTH",
"568 362 OFFCURVE",
"607 355 OFFCURVE",
"607 288 CURVE SMOOTH",
"607 241 LINE",
"647 241 LINE",
"647 288 LINE SMOOTH",
"647 337 OFFCURVE",
"642 402 OFFCURVE",
"531 402 CURVE SMOOTH",
"30 402 LINE",
"30 362 LINE",
"105 362 LINE",
"84 351 OFFCURVE",
"77 320 OFFCURVE",
"77 288 CURVE SMOOTH",
"77 241 LINE"
);
},
{
closed = 1;
nodes = (
"383 379 LINE",
"383 415 LINE SMOOTH",
"383 469 OFFCURVE",
"414 524 OFFCURVE",
"492 524 CURVE SMOOTH",
"555 524 OFFCURVE",
"590 500 OFFCURVE",
"603 464 CURVE",
"642 477 LINE",
"616 542 OFFCURVE",
"556 564 OFFCURVE",
"492 564 CURVE SMOOTH",
"455 564 OFFCURVE",
"394 551 OFFCURVE",
"363 498 CURVE",
"332 551 OFFCURVE",
"271 564 OFFCURVE",
"234 564 CURVE SMOOTH",
"170 564 OFFCURVE",
"110 542 OFFCURVE",
"84 477 CURVE",
"123 464 LINE",
"136 500 OFFCURVE",
"171 524 OFFCURVE",
"234 524 CURVE SMOOTH",
"312 524 OFFCURVE",
"343 469 OFFCURVE",
"343 415 CURVE SMOOTH",
"343 379 LINE"
);
}
);
width = 677;
},
{
layerId = "4EACF7E3-2421-4EEA-928B-7BA9BC4A845D";
paths = (
{
closed = 1;
nodes = (
"304 -11 OFFCURVE",
"337 21 OFFCURVE",
"337 68 CURVE SMOOTH",
"337 90 OFFCURVE",
"349 101 OFFCURVE",
"362 101 CURVE SMOOTH",
"374 101 OFFCURVE",
"387 90 OFFCURVE",
"387 68 CURVE SMOOTH",
"387 21 OFFCURVE",
"420 -11 OFFCURVE",
"491 -11 CURVE SMOOTH",
"592 -11 OFFCURVE",
"657 55 OFFCURVE",
"657 157 CURVE SMOOTH",
"657 199 LINE",
"518 199 LINE",
"518 166 LINE SMOOTH",
"518 154 OFFCURVE",
"509 132 OFFCURVE",
"479 132 CURVE SMOOTH",
"449 132 OFFCURVE",
"441 153 OFFCURVE",
"441 166 CURVE SMOOTH",
"441 181 OFFCURVE",
"434 204 OFFCURVE",
"407 204 CURVE SMOOTH",
"317 204 LINE SMOOTH",
"290 204 OFFCURVE",
"283 181 OFFCURVE",
"283 166 CURVE SMOOTH",
"283 153 OFFCURVE",
"275 132 OFFCURVE",
"245 132 CURVE SMOOTH",
"215 132 OFFCURVE",
"206 150 OFFCURVE",
"206 166 CURVE SMOOTH",
"206 199 LINE",
"67 199 LINE",
"67 157 LINE SMOOTH",
"67 55 OFFCURVE",
"132 -11 OFFCURVE",
"233 -11 CURVE SMOOTH"
);
},
{
closed = 1;
nodes = (
"206 251 LINE",
"206 257 LINE SMOOTH",
"206 269 OFFCURVE",
"218 283 OFFCURVE",
"246 283 CURVE SMOOTH",
"481 283 LINE SMOOTH",
"505 283 OFFCURVE",
"518 269 OFFCURVE",
"518 257 CURVE SMOOTH",
"518 251 LINE",
"657 251 LINE",
"657 279 LINE SMOOTH",
"657 392 OFFCURVE",
"565 402 OFFCURVE",
"503 402 CURVE SMOOTH",
"30 402 LINE",
"30 283 LINE",
"71 283 LINE",
"68 279 OFFCURVE",
"67 273 OFFCURVE",
"67 260 CURVE SMOOTH",
"67 251 LINE"
);
},
{
closed = 1;
nodes = (
"426 378 LINE",
"426 397 LINE SMOOTH",
"426 443 OFFCURVE",
"466 451 OFFCURVE",
"484 451 CURVE SMOOTH",
"508 451 OFFCURVE",
"524 436 OFFCURVE",
"528 421 CURVE",
"646 460 LINE",
"622 537 OFFCURVE",
"554 575 OFFCURVE",
"483 575 CURVE SMOOTH",
"441 575 OFFCURVE",
"398 562 OFFCURVE",
"362 536 CURVE",
"326 562 OFFCURVE",
"283 575 OFFCURVE",
"241 575 CURVE SMOOTH",
"170 575 OFFCURVE",
"102 537 OFFCURVE",
"78 460 CURVE",
"196 421 LINE",
"200 436 OFFCURVE",
"216 451 OFFCURVE",
"240 451 CURVE SMOOTH",
"258 451 OFFCURVE",
"298 443 OFFCURVE",
"298 397 CURVE SMOOTH",
"298 378 LINE"
);
}
);
width = 687;
}
);
unicode = 0D9D;
userData = {
com.fontlab.hintData = {
hhints = (
{
position = -11;
width = 143;
},
{
position = 101;
width = 103;
},
{
position = 251;
width = 151;
},
{
position = 283;
width = 119;
},
{
position = 378;
width = 24;
},
{
position = 451;
width = 124;
}
);
vhints = (
{
position = 67;
width = 139;
},
{
position = 283;
width = 158;
},
{
position = 298;
width = 128;
},
{
position = 518;
width = 139;
}
);
};
};
},
{
glyphname = sinNga;
lastChange = "2021-06-28 01:55:44 +0000";
layers = (
{
layerId = "DC4431BF-9234-4C16-9154-22D387E42D10";
paths = (
{
closed = 1;
nodes = (
"223 0 OFFCURVE",
"266 21 OFFCURVE",
"290 58 CURVE",
"314 21 OFFCURVE",
"357 0 OFFCURVE",
"409 0 CURVE SMOOTH",
"492 0 OFFCURVE",
"550 52 OFFCURVE",
"550 133 CURVE SMOOTH",
"550 242 LINE",
"508 242 LINE",
"508 139 LINE SMOOTH",
"508 104 OFFCURVE",
"485 40 OFFCURVE",
"409 40 CURVE SMOOTH",
"334 40 OFFCURVE",
"311 104 OFFCURVE",
"311 139 CURVE SMOOTH",
"311 192 LINE",
"269 192 LINE",
"269 139 LINE SMOOTH",
"269 104 OFFCURVE",
"246 40 OFFCURVE",
"171 40 CURVE SMOOTH",
"95 40 OFFCURVE",
"72 104 OFFCURVE",
"72 139 CURVE SMOOTH",
"72 228 LINE SMOOTH",
"72 280 OFFCURVE",
"85 310 OFFCURVE",
"211 310 CURVE SMOOTH",
"250 310 LINE",
"250 350 LINE",
"161 350 LINE SMOOTH",
"70 350 OFFCURVE",
"30 308 OFFCURVE",
"30 227 CURVE SMOOTH",
"30 133 LINE SMOOTH",
"30 52 OFFCURVE",
"88 0 OFFCURVE",
"171 0 CURVE SMOOTH"
);
},
{
closed = 1;
nodes = (
"258 310 LINE SMOOTH",
"322 310 OFFCURVE",
"355 357 OFFCURVE",
"355 404 CURVE SMOOTH",
"355 450 OFFCURVE",
"323 496 OFFCURVE",
"258 496 CURVE SMOOTH",
"173 496 LINE SMOOTH",
"93 496 OFFCURVE",
"53 464 OFFCURVE",
"53 403 CURVE",
"93 403 LINE",
"93 414 OFFCURVE",
"96 456 OFFCURVE",
"174 456 CURVE SMOOTH",
"262 456 LINE SMOOTH",
"299 456 OFFCURVE",
"317 430 OFFCURVE",
"317 405 CURVE SMOOTH",
"317 378 OFFCURVE",
"297 350 OFFCURVE",
"259 350 CURVE SMOOTH",
"214 350 LINE",
"214 310 LINE"
);
},
{
closed = 1;
nodes = (
"74 651 OFFCURVE",
"164 715 OFFCURVE",
"257 715 CURVE",
"257 755 LINE",
"153 755 OFFCURVE",
"35 681 OFFCURVE",
"35 563 CURVE",
"74 553 LINE"
);
},
{
closed = 1;
nodes = (
"550 241 LINE",
"550 514 LINE SMOOTH",
"550 678 OFFCURVE",
"481 755 OFFCURVE",
"314 755 CURVE",
"314 715 LINE",
"435 715 OFFCURVE",
"508 668 OFFCURVE",
"508 514 CURVE SMOOTH",
"508 241 LINE"
);
}
);
width = 580;
},
{
layerId = "4EACF7E3-2421-4EEA-928B-7BA9BC4A845D";
paths = (
{
closed = 1;
nodes = (
"243 -8 OFFCURVE",
"274 2 OFFCURVE",
"300 35 CURVE",
"329 3 OFFCURVE",
"370 -8 OFFCURVE",
"404 -8 CURVE SMOOTH",
"496 -8 OFFCURVE",
"563 58 OFFCURVE",
"563 160 CURVE SMOOTH",
"563 200 LINE",
"422 200 LINE",
"422 166 LINE SMOOTH",
"422 154 OFFCURVE",
"413 132 OFFCURVE",
"383 132 CURVE SMOOTH",
"353 132 OFFCURVE",
"345 153 OFFCURVE",
"345 166 CURVE SMOOTH",
"345 202 LINE",
"245 202 LINE",
"245 166 LINE SMOOTH",
"245 153 OFFCURVE",
"237 132 OFFCURVE",
"207 132 CURVE SMOOTH",
"177 132 OFFCURVE",
"168 154 OFFCURVE",
"168 166 CURVE SMOOTH",
"168 217 LINE SMOOTH",
"168 242 OFFCURVE",
"182 251 OFFCURVE",
"201 251 CURVE SMOOTH",
"214 251 LINE",
"214 351 LINE",
"168 351 LINE SMOOTH",
"32 351 OFFCURVE",
"30 279 OFFCURVE",
"30 197 CURVE SMOOTH",
"30 160 LINE SMOOTH",
"30 58 OFFCURVE",
"108 -8 OFFCURVE",
"205 -8 CURVE SMOOTH"
);
},
{
closed = 1;
nodes = (
"238 251 LINE SMOOTH",
"318 251 OFFCURVE",
"358 312 OFFCURVE",
"358 374 CURVE SMOOTH",
"358 435 OFFCURVE",
"318 497 OFFCURVE",
"238 497 CURVE SMOOTH",
"173 497 LINE SMOOTH",
"93 497 OFFCURVE",
"53 436 OFFCURVE",
"53 374 CURVE",
"151 374 LINE",
"151 385 OFFCURVE",
"158 397 OFFCURVE",
"174 397 CURVE SMOOTH",
"229 397 LINE SMOOTH",
"245 397 OFFCURVE",
"252 386 OFFCURVE",
"252 374 CURVE SMOOTH",
"252 363 OFFCURVE",
"244 351 OFFCURVE",
"229 351 CURVE SMOOTH",
"214 351 LINE",
"214 251 LINE"
);
},
{
closed = 1;
nodes = (
"173 600 OFFCURVE",
"223 615 OFFCURVE",
"271 615 CURVE",
"271 753 LINE",
"158 753 OFFCURVE",
"36 676 OFFCURVE",
"36 564 CURVE",
"173 528 LINE"
);
},
{
closed = 1;
nodes = (
"563 200 LINE",
"563 518 LINE SMOOTH",
"563 704 OFFCURVE",
"468 753 OFFCURVE",
"327 753 CURVE",
"327 614 LINE",
"411 614 OFFCURVE",
"422 581 OFFCURVE",
"422 496 CURVE SMOOTH",
"422 200 LINE"
);
}
);
width = 593;
}
);
unicode = 0D9E;
userData = {
com.fontlab.hintData = {
hhints = (
{
position = -8;
width = 140;
},
{
position = 200;
width = 2;
},
{
position = 251;
width = 100;
},
{
position = 397;
width = 100;
},
{
position = 616;
width = 138;
}
);
vhints = (
{
position = 30;
width = 138;
},
{
position = 245;
width = 100;
},
{
position = 287;
width = 105;
},
{
position = 422;
width = 141;
}
);
};
};
},
{
glyphname = sinNnga;
lastChange = "2021-06-28 01:55:44 +0000";
layers = (
{
layerId = "DC4431BF-9234-4C16-9154-22D387E42D10";
paths = (
{
closed = 1;
nodes = (
"136 8 LINE",
"72 85 OFFCURVE",
"70 128 OFFCURVE",
"70 209 CURVE SMOOTH",
"70 287 LINE SMOOTH",
"70 376 OFFCURVE",
"68 524 OFFCURVE",
"238 524 CURVE SMOOTH",
"356 524 LINE",
"356 564 LINE",
"265 564 LINE SMOOTH",
"61 564 OFFCURVE",
"30 452 OFFCURVE",
"30 287 CURVE SMOOTH",
"30 209 LINE SMOOTH",
"30 118 OFFCURVE",
"34 69 OFFCURVE",
"94 -8 CURVE"
);
},
{
closed = 1;
nodes = (
"356 32 LINE",
"264 32 OFFCURVE",
"210 98 OFFCURVE",
"210 216 CURVE SMOOTH",
"210 340 LINE SMOOTH",
"210 458 OFFCURVE",
"261 524 OFFCURVE",
"356 524 CURVE",
"356 564 LINE",
"237 564 OFFCURVE",
"170 476 OFFCURVE",
"170 340 CURVE SMOOTH",
"170 216 LINE SMOOTH",
"170 80 OFFCURVE",
"237 -8 OFFCURVE",
"356 -8 CURVE"
);
},
{
closed = 1;
nodes = (
"512 -8 OFFCURVE",
"579 43 OFFCURVE",
"579 145 CURVE SMOOTH",
"579 164 LINE SMOOTH",
"579 233 OFFCURVE",
"548 311 OFFCURVE",
"446 311 CURVE SMOOTH",
"409 311 LINE",
"409 271 LINE",
"446 271 LINE SMOOTH",
"531 271 OFFCURVE",
"539 200 OFFCURVE",
"539 152 CURVE SMOOTH",
"539 66 OFFCURVE",
"492 32 OFFCURVE",
"412 32 CURVE",
"412 -8 LINE"
);
},
{
closed = 1;
nodes = (
"433 271 LINE",
"433 361 LINE SMOOTH",
"433 443 OFFCURVE",
"464 524 OFFCURVE",
"571 524 CURVE",
"571 564 LINE",
"449 564 OFFCURVE",
"392 478.007 OFFCURVE",
"392 360 CURVE SMOOTH",
"392 271 LINE"
);
},
{
closed = 1;
nodes = (
"746 -8 OFFCURVE",
"813 80 OFFCURVE",
"813 216 CURVE SMOOTH",
"813 340 LINE SMOOTH",
"813 476 OFFCURVE",
"746 564 OFFCURVE",
"627 564 CURVE",
"627 524 LINE",
"722 524 OFFCURVE",
"773 458 OFFCURVE",
"773 340 CURVE SMOOTH",
"773 216 LINE SMOOTH",
"773 98 OFFCURVE",
"719 32 OFFCURVE",
"627 32 CURVE",
"627 -8 LINE"
);
}
);
width = 843;
},
{
layerId = "4EACF7E3-2421-4EEA-928B-7BA9BC4A845D";
paths = (
{
closed = 1;
nodes = (
"233 11 LINE",
"169 88 OFFCURVE",
"166 128 OFFCURVE",
"166 209 CURVE SMOOTH",
"166 287 LINE SMOOTH",
"166 376 OFFCURVE",
"174 421 OFFCURVE",
"224 421 CURVE SMOOTH",
"421 421 LINE",
"421 564 LINE",
"265 564 LINE SMOOTH",
"61 564 OFFCURVE",
"30 452 OFFCURVE",
"30 287 CURVE SMOOTH",
"30 209 LINE SMOOTH",
"30 118 OFFCURVE",
"43 48 OFFCURVE",
"103 -29 CURVE"
);
},
{
closed = 1;
nodes = (
"421 135 LINE",
"369 135 OFFCURVE",
"365 174 OFFCURVE",
"365 198 CURVE SMOOTH",
"365 348 LINE SMOOTH",
"365 376 OFFCURVE",
"369 421 OFFCURVE",
"421 421 CURVE",
"421 564 LINE",
"282 564 OFFCURVE",
"224 474 OFFCURVE",
"224 358 CURVE SMOOTH",
"224 198 LINE SMOOTH",
"224 82 OFFCURVE",
"282 -8 OFFCURVE",
"421 -8 CURVE"
);
},
{
closed = 1;
nodes = (
"594 -8 OFFCURVE",
"655 45 OFFCURVE",
"655 166 CURVE SMOOTH",
"655 216 LINE SMOOTH",
"655 325 OFFCURVE",
"601 347 OFFCURVE",
"565 347 CURVE SMOOTH",
"465 347 LINE",
"465 241 LINE",
"477 241 LINE SMOOTH",
"530 241 OFFCURVE",
"531 205 OFFCURVE",
"531 188 CURVE SMOOTH",
"531 171 OFFCURVE",
"530 135 OFFCURVE",
"477 135 CURVE",
"477 -8 LINE"
);
},
{
closed = 1;
nodes = (
"587 241 LINE",
"587 350 LINE SMOOTH",
"587 376 OFFCURVE",
"582 421 OFFCURVE",
"628 421 CURVE",
"628 564 LINE",
"484 564 OFFCURVE",
"448 468.007 OFFCURVE",
"448 350 CURVE SMOOTH",
"448 241 LINE"
);
},
{
closed = 1;
nodes = (
"823 -8 OFFCURVE",
"881 82 OFFCURVE",
"881 198 CURVE SMOOTH",
"881 358 LINE SMOOTH",
"881 474 OFFCURVE",
"823 564 OFFCURVE",
"684 564 CURVE",
"684 421 LINE",
"736 421 OFFCURVE",
"740 376 OFFCURVE",
"740 348 CURVE SMOOTH",
"740 198 LINE SMOOTH",
"740 174 OFFCURVE",
"736 135 OFFCURVE",
"684 135 CURVE",
"684 -8 LINE"
);
}
);
width = 911;
}
);
unicode = 0D9F;
userData = {
com.fontlab.hintData = {
hhints = (
{
position = -8;
width = 40;
},
{
position = 271;
width = 40;
},
{
position = 524;
width = 40;
}
);
vhints = (
{
position = 30;
width = 40;
},
{
position = 170;
width = 40;
},
{
position = 392;
width = 41;
},
{
position = 539;
width = 40;
},
{
position = 773;
width = 40;
}
);
};
};
},
{
glyphname = sinCa;
lastChange = "2021-06-28 01:49:49 +0000";
layers = (
{
layerId = "DC4431BF-9234-4C16-9154-22D387E42D10";
paths = (
{
closed = 1;
nodes = (
"494 0 OFFCURVE",
"560 84 OFFCURVE",
"560 241 CURVE SMOOTH",
"560 514 LINE SMOOTH",
"560 671 OFFCURVE",
"494 755 OFFCURVE",
"335 755 CURVE",
"335 715 LINE",
"448 715 OFFCURVE",
"519 662 OFFCURVE",
"519 514 CURVE SMOOTH",
"519 241 LINE SMOOTH",
"519 95 OFFCURVE",
"448 40 OFFCURVE",
"335 40 CURVE",
"335 0 LINE"
);
},
{
closed = 1;
nodes = (
"279 40 LINE",
"164 40 OFFCURVE",
"115 119 OFFCURVE",
"115 191 CURVE SMOOTH",
"115 252 OFFCURVE",
"150 309 OFFCURVE",
"209 309 CURVE SMOOTH",
"335 309 LINE",
"335 354 LINE SMOOTH",
"335 396 OFFCURVE",
"318 427 OFFCURVE",
"292 448 CURVE SMOOTH",
"266 469 OFFCURVE",
"232 479 OFFCURVE",
"199 479 CURVE SMOOTH",
"144 479 OFFCURVE",
"91 452 OFFCURVE",
"77 399 CURVE",
"116 389 LINE",
"130 422 OFFCURVE",
"164 438 OFFCURVE",
"198 438 CURVE SMOOTH",
"244 438 OFFCURVE",
"295 408 OFFCURVE",
"295 354 CURVE SMOOTH",
"295 349 LINE",
"30 349 LINE",
"30 309 LINE",
"115 309 LINE",
"88 279 OFFCURVE",
"73 236 OFFCURVE",
"73 191 CURVE SMOOTH",
"73 99 OFFCURVE",
"136 0 OFFCURVE",
"279 0 CURVE"
);
},
{
closed = 1;
nodes = (
"108 644 OFFCURVE",
"195 715 OFFCURVE",
"279 715 CURVE",
"279 755 LINE",
"183 755 OFFCURVE",
"69 674 OFFCURVE",
"69 563 CURVE",
"108 553 LINE"
);
}
);
width = 590;
},
{
layerId = "4EACF7E3-2421-4EEA-928B-7BA9BC4A845D";
paths = (
{
closed = 1;
nodes = (
"494 -5 OFFCURVE",
"574 78 OFFCURVE",
"574 250 CURVE SMOOTH",
"574 520 LINE SMOOTH",
"574 700 OFFCURVE",
"473 755 OFFCURVE",
"339 755 CURVE",
"339 616 LINE",
"417 616 OFFCURVE",
"434 577 OFFCURVE",
"434 498 CURVE SMOOTH",
"434 250 LINE SMOOTH",
"434 149 OFFCURVE",
"381 135 OFFCURVE",
"339 135 CURVE",
"339 -5 LINE"
);
},
{
closed = 1;
nodes = (
"283 135 LINE",
"231 135 OFFCURVE",
"208 166 OFFCURVE",
"208 196 CURVE SMOOTH",
"208 224 OFFCURVE",
"229 252 OFFCURVE",
"266 252 CURVE SMOOTH",
"350 252 LINE",
"350 350 LINE SMOOTH",
"350 403 OFFCURVE",
"340 434 OFFCURVE",
"317 459 CURVE SMOOTH",
"292 486 OFFCURVE",
"251 503 OFFCURVE",
"207 503 CURVE SMOOTH",
"169 503 OFFCURVE",
"92 490 OFFCURVE",
"66 402 CURVE",
"165 376 LINE",
"169 395 OFFCURVE",
"192 400 OFFCURVE",
"205 400 CURVE SMOOTH",
"226 400 OFFCURVE",
"247 389 OFFCURVE",
"247 360 CURVE SMOOTH",
"247 354 LINE",
"30 354 LINE",
"30 252 LINE",
"80 252 LINE",
"71 233 OFFCURVE",
"69 211 OFFCURVE",
"69 195 CURVE SMOOTH",
"69 86 OFFCURVE",
"156 -5 OFFCURVE",
"283 -5 CURVE"
);
},
{
closed = 1;
nodes = (
"203 596 OFFCURVE",
"243 617 OFFCURVE",
"283 617 CURVE",
"283 755 LINE",
"176 755 OFFCURVE",
"66 672 OFFCURVE",
"66 566 CURVE",
"203 530 LINE"
);
}
);
width = 604;
}
);
unicode = 0DA0;
userData = {
com.fontlab.hintData = {
hhints = (
{
position = 0;
width = 40;
},
{
position = 309;
width = 40;
},
{
position = 715;
width = 40;
}
);
vhints = (
{
position = 69;
width = 39;
},
{
position = 295;
width = 40;
},
{
position = 519;
width = 41;
}
);
};
};
},
{
glyphname = sinCha;
lastChange = "2021-06-28 01:49:49 +0000";
layers = (
{
layerId = "DC4431BF-9234-4C16-9154-22D387E42D10";
paths = (
{
closed = 1;
nodes = (
"343 -6 LINE SMOOTH",
"520 -6 OFFCURVE",
"592 50 OFFCURVE",
"592 193 CURVE SMOOTH",
"592 265 LINE SMOOTH",
"592 288 OFFCURVE",
"583 302 OFFCURVE",
"551 302 CURVE SMOOTH",
"443 302 LINE SMOOTH",
"381 302 OFFCURVE",
"330 353 OFFCURVE",
"330 415 CURVE SMOOTH",
"330 477 OFFCURVE",
"381 528 OFFCURVE",
"443 528 CURVE SMOOTH",
"489 528 OFFCURVE",
"528 501 OFFCURVE",
"546 462 CURVE",
"582 474 LINE",
"559 528 OFFCURVE",
"505 566 OFFCURVE",
"443 566 CURVE SMOOTH",
"360 566 OFFCURVE",
"289 498 OFFCURVE",
"289 415 CURVE SMOOTH",
"289 332 OFFCURVE",
"360 264 OFFCURVE",
"443 264 CURVE SMOOTH",
"552 264 LINE",
"552 193 LINE SMOOTH",
"552 62 OFFCURVE",
"476 34 OFFCURVE",
"343 34 CURVE SMOOTH",
"281 34 LINE SMOOTH",
"148 34 OFFCURVE",
"72 61 OFFCURVE",
"72 193 CURVE",
"32 193 LINE",
"32 50 OFFCURVE",
"104 -6 OFFCURVE",
"281 -6 CURVE SMOOTH"
);
},
{
closed = 1;
nodes = (
"72 242 LINE",
"72 308 OFFCURVE",
"88 362 OFFCURVE",
"197 362 CURVE SMOOTH",
"329 362 LINE",
"329 415 LINE SMOOTH",
"329 539 OFFCURVE",
"231 564 OFFCURVE",
"180 564 CURVE SMOOTH",
"116 564 OFFCURVE",
"56 542 OFFCURVE",
"30 477 CURVE",
"69 464 LINE",
"82 500 OFFCURVE",
"117 524 OFFCURVE",
"180 524 CURVE SMOOTH",
"258 524 OFFCURVE",
"289 469 OFFCURVE",
"289 402 CURVE",
"196 402 LINE SMOOTH",
"99 402 OFFCURVE",
"32 364 OFFCURVE",
"32 242 CURVE"
);
},
{
closed = 1;
nodes = (
"362 498 LINE",
"572 774 LINE",
"542 796 LINE",
"312 494 LINE"
);
}
);
width = 620;
},
{
layerId = "4EACF7E3-2421-4EEA-928B-7BA9BC4A845D";
paths = (
{
closed = 1;
nodes = (
"342 -12 LINE SMOOTH",
"511 -12 OFFCURVE",
"594 64 OFFCURVE",
"594 202 CURVE SMOOTH",
"594 262 LINE SMOOTH",
"594 316 OFFCURVE",
"554 360 OFFCURVE",
"486 360 CURVE SMOOTH",
"419 360 LINE SMOOTH",
"396 360 OFFCURVE",
"377 379 OFFCURVE",
"377 402 CURVE SMOOTH",
"377 425 OFFCURVE",
"396 444 OFFCURVE",
"419 444 CURVE SMOOTH",
"442 444 OFFCURVE",
"461 425 OFFCURVE",
"461 402 CURVE",
"585 402 LINE",
"585 494 OFFCURVE",
"510 569 OFFCURVE",
"417 569 CURVE SMOOTH",
"325 569 OFFCURVE",
"250 495 OFFCURVE",
"250 400 CURVE SMOOTH",
"250 311 OFFCURVE",
"315 232 OFFCURVE",
"417 235 CURVE SMOOTH",
"454 236 LINE",
"454 202 LINE SMOOTH",
"454 151 OFFCURVE",
"415 123 OFFCURVE",
"350 123 CURVE SMOOTH",
"278 123 LINE SMOOTH",
"215 123 OFFCURVE",
"174 149 OFFCURVE",
"174 202 CURVE",
"34 202 LINE",
"34 59 OFFCURVE",
"112 -12 OFFCURVE",
"289 -12 CURVE SMOOTH"
);
},
{
closed = 1;
nodes = (
"174 251 LINE",
"174 262 OFFCURVE",
"176 283 OFFCURVE",
"209 283 CURVE SMOOTH",
"386 283 LINE",
"332 512 LINE",
"298 557 OFFCURVE",
"249 575 OFFCURVE",
"197 575 CURVE SMOOTH",
"121 575 OFFCURVE",
"54 537 OFFCURVE",
"30 460 CURVE",
"148 421 LINE",
"152 436 OFFCURVE",
"168 451 OFFCURVE",
"192 451 CURVE SMOOTH",
"212 451 OFFCURVE",
"250 441 OFFCURVE",
"250 402 CURVE",
"198 402 LINE SMOOTH",
"101 402 OFFCURVE",
"35 373 OFFCURVE",
"35 251 CURVE"
);
},
{
closed = 1;
nodes = (
"431 470 LINE",
"650 761 LINE",
"547 837 LINE",
"304 522 LINE"
);
}
);
width = 655;
},
{
associatedMasterId = "4EACF7E3-2421-4EEA-928B-7BA9BC4A845D";
layerId = "7DD5C106-34BA-4BD6-9E39-CA750D4B33DB";
name = "27 Jun 21, 13:10";
paths = (
{
closed = 1;
nodes = (
"342 -12 LINE SMOOTH",
"511 -12 OFFCURVE",
"594 64 OFFCURVE",
"594 202 CURVE SMOOTH",
"594 262 LINE SMOOTH",
"594 316 OFFCURVE",
"554 360 OFFCURVE",
"486 360 CURVE SMOOTH",
"419 360 LINE SMOOTH",
"396 360 OFFCURVE",
"377 379 OFFCURVE",
"377 402 CURVE SMOOTH",
"377 425 OFFCURVE",
"396 444 OFFCURVE",
"419 444 CURVE SMOOTH",
"442 444 OFFCURVE",
"461 425 OFFCURVE",
"461 402 CURVE",
"585 402 LINE",
"585 494 OFFCURVE",
"510 569 OFFCURVE",
"418 569 CURVE SMOOTH",
"325 569 OFFCURVE",
"250 494 OFFCURVE",
"250 402 CURVE SMOOTH",
"250 310 OFFCURVE",
"315 232 OFFCURVE",
"417 235 CURVE SMOOTH",
"454 236 LINE",
"454 202 LINE SMOOTH",
"454 151 OFFCURVE",
"415 123 OFFCURVE",
"350 123 CURVE SMOOTH",
"278 123 LINE SMOOTH",
"215 123 OFFCURVE",
"174 149 OFFCURVE",
"174 202 CURVE",
"34 202 LINE",
"34 59 OFFCURVE",
"112 -12 OFFCURVE",
"289 -12 CURVE SMOOTH"
);
},
{
closed = 1;
nodes = (
"174 251 LINE",
"174 262 OFFCURVE",
"176 283 OFFCURVE",
"209 283 CURVE SMOOTH",
"386 283 LINE",
"332 512 LINE",
"298 557 OFFCURVE",
"250 575 OFFCURVE",
"193 575 CURVE SMOOTH",
"122 575 OFFCURVE",
"54 537 OFFCURVE",
"30 460 CURVE",
"148 421 LINE",
"152 436 OFFCURVE",
"167 451 OFFCURVE",
"195 451 CURVE SMOOTH",
"210 451 OFFCURVE",
"250 442 OFFCURVE",
"250 402 CURVE",
"198 402 LINE SMOOTH",
"101 402 OFFCURVE",
"35 373 OFFCURVE",
"35 251 CURVE"
);
},
{
closed = 1;
nodes = (
"438 470 LINE",
"655 755 LINE",
"548 836 LINE",
"304 522 LINE"
);
},
{
closed = 1;
nodes = (
"438 470 LINE",
"655 755 LINE",
"510 793 LINE",
"304 522 LINE"
);
}
);
width = 655;
},
{
associatedMasterId = "DC4431BF-9234-4C16-9154-22D387E42D10";
layerId = "0FB97ACA-2661-4502-A833-F502B1979519";
name = "27 Jun 21, 13:14";
paths = (
{
closed = 1;
nodes = (
"343 -6 LINE SMOOTH",
"520 -6 OFFCURVE",
"592 50 OFFCURVE",
"592 193 CURVE SMOOTH",
"592 265 LINE SMOOTH",
"592 288 OFFCURVE",
"583 302 OFFCURVE",
"551 302 CURVE SMOOTH",
"443 302 LINE SMOOTH",
"381 302 OFFCURVE",
"330 353 OFFCURVE",
"330 415 CURVE SMOOTH",
"330 477 OFFCURVE",
"381 528 OFFCURVE",
"443 528 CURVE SMOOTH",
"489 528 OFFCURVE",
"528 501 OFFCURVE",
"546 462 CURVE",
"582 474 LINE",
"559 528 OFFCURVE",
"505 566 OFFCURVE",
"443 566 CURVE SMOOTH",
"360 566 OFFCURVE",
"289 498 OFFCURVE",
"289 415 CURVE SMOOTH",
"289 332 OFFCURVE",
"360 264 OFFCURVE",
"443 264 CURVE SMOOTH",
"552 264 LINE",
"552 193 LINE SMOOTH",
"552 62 OFFCURVE",
"476 34 OFFCURVE",
"343 34 CURVE SMOOTH",
"281 34 LINE SMOOTH",
"148 34 OFFCURVE",
"72 61 OFFCURVE",
"72 193 CURVE",
"32 193 LINE",
"32 50 OFFCURVE",
"104 -6 OFFCURVE",
"281 -6 CURVE SMOOTH"
);
},
{
closed = 1;
nodes = (
"72 242 LINE",
"72 308 OFFCURVE",
"88 362 OFFCURVE",
"197 362 CURVE SMOOTH",
"329 362 LINE",
"329 415 LINE",
"329 539 OFFCURVE",
"231 564 OFFCURVE",
"180 564 CURVE SMOOTH",
"116 564 OFFCURVE",
"56 542 OFFCURVE",
"30 477 CURVE",
"69 464 LINE",
"82 500 OFFCURVE",
"117 524 OFFCURVE",
"180 524 CURVE SMOOTH",
"258 524 OFFCURVE",
"289 469 OFFCURVE",
"289 402 CURVE",
"196 402 LINE SMOOTH",
"99 402 OFFCURVE",
"32 364 OFFCURVE",
"32 242 CURVE"
);
},
{
closed = 1;
nodes = (
"362 498 LINE",
"572 774 LINE",
"533 785 LINE",
"312 494 LINE"
);
}
);
visible = 1;
width = 620;
}
);
unicode = 0DA1;
userData = {
com.fontlab.hintData = {
hhints = (
{
position = -12;
width = 135;
},
{
position = 236;
width = 124;
},
{
position = 251;
width = 84;
},
{
position = 283;
width = 119;
},
{
position = 283;
width = 52;
},
{
position = 451;
width = 124;
}
);
vhints = (
{
position = 34;
width = 140;
},
{
position = 250;
width = 89;
},
{
position = 454;
width = 140;
}
);
};
};
},
{
glyphname = sinJa;
lastChange = "2021-06-28 01:55:44 +0000";
layers = (
{
layerId = "DC4431BF-9234-4C16-9154-22D387E42D10";
paths = (
{
closed = 1;
nodes = (
"341 -6 LINE SMOOTH",
"518 -6 OFFCURVE",
"590 50 OFFCURVE",
"590 193 CURVE",
"550 193 LINE",
"550 62 OFFCURVE",
"474 34 OFFCURVE",
"341 34 CURVE SMOOTH",
"279 34 LINE SMOOTH",
"146 34 OFFCURVE",
"70 61 OFFCURVE",
"70 193 CURVE",
"30 193 LINE",
"30 50 OFFCURVE",
"102 -6 OFFCURVE",
"279 -6 CURVE SMOOTH"
);
},
{
closed = 1;
nodes = (
"70 242 LINE",
"70 308 OFFCURVE",
"86 362 OFFCURVE",
"195 362 CURVE SMOOTH",
"421 362 LINE SMOOTH",
"530 362 OFFCURVE",
"550 320 OFFCURVE",
"550 242 CURVE",
"590 242 LINE",
"590 368 OFFCURVE",
"527 402 OFFCURVE",
"419 402 CURVE SMOOTH",
"194 402 LINE SMOOTH",
"97 402 OFFCURVE",
"30 364 OFFCURVE",
"30 242 CURVE"
);
},
{
closed = 1;
nodes = (
"330 379 LINE",
"330 415 LINE SMOOTH",
"330 469 OFFCURVE",
"361 524 OFFCURVE",
"439 524 CURVE SMOOTH",
"502 524 OFFCURVE",
"537 500 OFFCURVE",
"550 464 CURVE",
"589 477 LINE",
"563 542 OFFCURVE",
"503 564 OFFCURVE",
"439 564 CURVE SMOOTH",
"402 564 OFFCURVE",
"341 551 OFFCURVE",
"310 498 CURVE",
"279 551 OFFCURVE",
"218 564 OFFCURVE",
"181 564 CURVE SMOOTH",
"117 564 OFFCURVE",
"57 542 OFFCURVE",
"31 477 CURVE",
"70 464 LINE",
"83 500 OFFCURVE",
"118 524 OFFCURVE",
"181 524 CURVE SMOOTH",
"259 524 OFFCURVE",
"290 469 OFFCURVE",
"290 415 CURVE SMOOTH",
"290 379 LINE"
);
},
{
closed = 1;
nodes = (
"355 498 LINE",
"563 774 LINE",
"533 796 LINE",
"310 498 LINE"
);
}
);
width = 620;
},
{
layerId = "4EACF7E3-2421-4EEA-928B-7BA9BC4A845D";
paths = (
{
closed = 1;
nodes = (
"342 -12 LINE SMOOTH",
"511 -12 OFFCURVE",
"594 64 OFFCURVE",
"594 202 CURVE",
"454 202 LINE",
"454 151 OFFCURVE",
"415 123 OFFCURVE",
"350 123 CURVE SMOOTH",
"278 123 LINE SMOOTH",
"215 123 OFFCURVE",
"174 149 OFFCURVE",
"174 202 CURVE",
"34 202 LINE",
"34 59 OFFCURVE",
"112 -12 OFFCURVE",
"289 -12 CURVE SMOOTH"
);
},
{
closed = 1;
nodes = (
"174 251 LINE",
"174 262 OFFCURVE",
"176 283 OFFCURVE",
"209 283 CURVE SMOOTH",
"426 283 LINE SMOOTH",
"455 283 OFFCURVE",
"455 263 OFFCURVE",
"455 251 CURVE",
"594 251 LINE",
"594 377 OFFCURVE",
"531 402 OFFCURVE",
"423 402 CURVE SMOOTH",
"198 402 LINE SMOOTH",
"101 402 OFFCURVE",
"35 373 OFFCURVE",
"35 251 CURVE"
);
},
{
closed = 1;
nodes = (
"378 378 LINE",
"378 397 LINE SMOOTH",
"378 443 OFFCURVE",
"418 451 OFFCURVE",
"436 451 CURVE SMOOTH",
"460 451 OFFCURVE",
"476 436 OFFCURVE",
"480 421 CURVE",
"598 460 LINE",
"574 537 OFFCURVE",
"506 575 OFFCURVE",
"435 575 CURVE SMOOTH",
"393 575 OFFCURVE",
"350 562 OFFCURVE",
"314 536 CURVE",
"278 562 OFFCURVE",
"235 575 OFFCURVE",
"193 575 CURVE SMOOTH",
"122 575 OFFCURVE",
"54 537 OFFCURVE",
"30 460 CURVE",
"148 421 LINE",
"152 436 OFFCURVE",
"168 451 OFFCURVE",
"192 451 CURVE SMOOTH",
"210 451 OFFCURVE",
"250 443 OFFCURVE",
"250 397 CURVE SMOOTH",
"250 378 LINE"
);
},
{
closed = 1;
nodes = (
"431 470 LINE",
"650 761 LINE",
"547 837 LINE",
"304 522 LINE"
);
}
);
width = 653;
},
{
associatedMasterId = "DC4431BF-9234-4C16-9154-22D387E42D10";
layerId = "FE71C61E-69FC-4B3A-A053-580EF089169F";
name = "27 Jun 21, 13:14";
paths = (
{
closed = 1;
nodes = (
"341 -6 LINE SMOOTH",
"518 -6 OFFCURVE",
"590 49.746 OFFCURVE",
"590 192.5 CURVE",
"550 192.5 LINE",
"550 62.301 OFFCURVE",
"474 34 OFFCURVE",
"341 34 CURVE SMOOTH",
"279 34 LINE SMOOTH",
"146 34 OFFCURVE",
"70 61.301 OFFCURVE",
"70 192.5 CURVE",
"30 192.5 LINE",
"30 49.746 OFFCURVE",
"102 -6 OFFCURVE",
"279 -6 CURVE SMOOTH"
);
},
{
closed = 1;
nodes = (
"70 242 LINE",
"70.001 308.104 OFFCURVE",
"85.738 362 OFFCURVE",
"195 362 CURVE SMOOTH",
"421 362 LINE SMOOTH",
"530 362 OFFCURVE",
"550 320 OFFCURVE",
"550 242 CURVE",
"590 242 LINE",
"590 368 OFFCURVE",
"527 402 OFFCURVE",
"419 402 CURVE SMOOTH",
"194 402 LINE SMOOTH",
"97 402 OFFCURVE",
"30 364 OFFCURVE",
"30 242 CURVE"
);
},
{
closed = 1;
nodes = (
"330 379 LINE",
"330 415 LINE SMOOTH",
"330 469 OFFCURVE",
"360.793 524 OFFCURVE",
"439 524 CURVE SMOOTH",
"501.579 524 OFFCURVE",
"536.527 500.315 OFFCURVE",
"550 464 CURVE",
"589 477 LINE",
"563.293 541.871 OFFCURVE",
"502.881 564 OFFCURVE",
"439 564 CURVE SMOOTH",
"402.339 564 OFFCURVE",
"341.349 551.303 OFFCURVE",
"310 497.885 CURVE",
"278.651 551.303 OFFCURVE",
"217.661 564 OFFCURVE",
"181 564 CURVE SMOOTH",
"117.119 564 OFFCURVE",
"56.707 541.871 OFFCURVE",
"31 477 CURVE",
"70 464 LINE",
"83.473 500.315 OFFCURVE",
"118.421 524 OFFCURVE",
"181 524 CURVE SMOOTH",
"259.207 524 OFFCURVE",
"290 469 OFFCURVE",
"290 415 CURVE SMOOTH",
"290 379 LINE"
);
},
{
closed = 1;
nodes = (
"567 774 LINE",
"528 785 LINE",
"304 490 LINE",
"332 465 LINE"
);
}
);
visible = 1;
width = 620;
},
{
associatedMasterId = "4EACF7E3-2421-4EEA-928B-7BA9BC4A845D";
layerId = "D1428CAF-3292-424D-B6EB-A8E7F648ECAC";
name = "27 Jun 21, 13:16";
paths = (
{
closed = 1;
nodes = (
"342 -12 LINE SMOOTH",
"511 -12 OFFCURVE",
"594 64 OFFCURVE",
"594 202 CURVE",
"454 202 LINE",
"454 151 OFFCURVE",
"415 123 OFFCURVE",
"350 123 CURVE SMOOTH",
"278 123 LINE SMOOTH",
"215 123 OFFCURVE",
"174 148.801 OFFCURVE",
"174 202 CURVE",
"34 202 LINE",
"34 59.246 OFFCURVE",
"112 -12 OFFCURVE",
"289 -12 CURVE SMOOTH"
);
},
{
closed = 1;
nodes = (
"174 251 LINE",
"174.001 262.104 OFFCURVE",
"175.738 283 OFFCURVE",
"209 283 CURVE SMOOTH",
"426 283 LINE SMOOTH",
"455 283 OFFCURVE",
"455 263 OFFCURVE",
"455 251 CURVE",
"594 251 LINE",
"594 377 OFFCURVE",
"531 402 OFFCURVE",
"423 402 CURVE SMOOTH",
"198 402 LINE SMOOTH",
"101 402 OFFCURVE",
"35 373 OFFCURVE",
"35 251 CURVE"
);
},
{
closed = 1;
nodes = (
"378 378 LINE",
"378 397 LINE",
"378 443.165 OFFCURVE",
"417.669 451 OFFCURVE",
"433 451 CURVE SMOOTH",
"460.783 451 OFFCURVE",
"475.584 436 OFFCURVE",
"480 421 CURVE",
"598 460 LINE",
"573.975 536.524 OFFCURVE",
"506.221 574.564 OFFCURVE",
"434.729 574.564 CURVE SMOOTH",
"393.124 574.564 OFFCURVE",
"350.253 561.681 OFFCURVE",
"314 536 CURVE",
"277.783 561.654 OFFCURVE",
"234.893 574.548 OFFCURVE",
"193.252 574.548 CURVE SMOOTH",
"121.808 574.548 OFFCURVE",
"54.046 536.591 OFFCURVE",
"30 460 CURVE",
"148 421 LINE",
"152.416 436 OFFCURVE",
"167.217 451 OFFCURVE",
"195 451 CURVE SMOOTH",
"210.331 451 OFFCURVE",
"250 443.165 OFFCURVE",
"250 397 CURVE",
"250 378 LINE"
);
},
{
closed = 1;
nodes = (
"653 755 LINE",
"507.721 793 LINE",
"302 522 LINE",
"436 470 LINE"
);
}
);
visible = 1;
width = 653;
}
);
unicode = 0DA2;
userData = {
com.fontlab.hintData = {
hhints = (
{
position = -12;
width = 135;
},
{
position = 378;
width = 24;
},
{
position = 451;
width = 124;
}
);
vhints = (
{
position = 34;
width = 140;
},
{
position = 250;
width = 128;
},
{
position = 454;
width = 140;
}
);
};
};
},
{
glyphname = sinJha;
lastChange = "2021-06-28 01:55:44 +0000";
layers = (
{
layerId = "DC4431BF-9234-4C16-9154-22D387E42D10";
paths = (
{
closed = 1;
nodes = (
"69 225 LINE",
"349 466 LINE SMOOTH",
"407 514 OFFCURVE",
"477 538 OFFCURVE",
"540 538 CURVE SMOOTH",
"614 538 OFFCURVE",
"679 506 OFFCURVE",
"706 440 CURVE",
"753 440 LINE",
"719 534 OFFCURVE",
"639 577 OFFCURVE",
"547 577 CURVE SMOOTH",
"472 577 OFFCURVE",
"390 548 OFFCURVE",
"320 494 CURVE",
"30 246 LINE",
"30 196 LINE"
);
},
{
closed = 1;
nodes = (
"95 498 OFFCURVE",
"139 521 OFFCURVE",
"181 521 CURVE SMOOTH",
"230 521 OFFCURVE",
"276 491 OFFCURVE",
"289 445 CURVE",
"320 473 LINE",
"305 527 OFFCURVE",
"245 565 OFFCURVE",
"182 565 CURVE SMOOTH",
"124 565 OFFCURVE",
"64 533 OFFCURVE",
"33 452 CURVE",
"72 440 LINE"
);
},
{
closed = 1;
nodes = (
"746 0 OFFCURVE",
"789 21 OFFCURVE",
"813 58 CURVE",
"837 21 OFFCURVE",
"880 0 OFFCURVE",
"932 0 CURVE SMOOTH",
"1015 0 OFFCURVE",
"1073 52 OFFCURVE",
"1073 133 CURVE SMOOTH",
"1073 242 LINE",
"1031 242 LINE",
"1031 139 LINE SMOOTH",
"1031 104 OFFCURVE",
"1008 40 OFFCURVE",
"932 40 CURVE SMOOTH",
"857 40 OFFCURVE",
"834 104 OFFCURVE",
"834 139 CURVE SMOOTH",
"834 192 LINE",
"792 192 LINE",
"792 139 LINE SMOOTH",
"792 104 OFFCURVE",
"769 40 OFFCURVE",
"694 40 CURVE SMOOTH",
"618 40 OFFCURVE",
"595 104 OFFCURVE",
"595 139 CURVE SMOOTH",
"595 301 LINE SMOOTH",
"595 336 OFFCURVE",
"608 440 OFFCURVE",
"734 440 CURVE SMOOTH",
"753 440 LINE",
"729 480 LINE",
"724 480 LINE SMOOTH",
"601 480 OFFCURVE",
"553 388 OFFCURVE",
"553 307 CURVE SMOOTH",
"553 133 LINE SMOOTH",
"553 52 OFFCURVE",
"611 0 OFFCURVE",
"694 0 CURVE SMOOTH"
);
},
{
closed = 1;
nodes = (
"642 689 OFFCURVE",
"714 715 OFFCURVE",
"780 715 CURVE",
"780 755 LINE",
"701 755 OFFCURVE",
"612 721 OFFCURVE",
"583 643 CURVE",
"622 628 LINE"
);
},
{
closed = 1;
nodes = (
"1073 241 LINE",
"1073 514 LINE SMOOTH",
"1073 678 OFFCURVE",
"1004 755 OFFCURVE",
"837 755 CURVE",
"837 715 LINE",
"958 715 OFFCURVE",
"1031 668 OFFCURVE",
"1031 514 CURVE SMOOTH",
"1031 241 LINE"
);
},
{
closed = 1;
nodes = (
"330 369 LINE",
"427 354 OFFCURVE",
"463 330 OFFCURVE",
"463.004 240 CURVE SMOOTH",
"463 114 LINE SMOOTH",
"463 65 OFFCURVE",
"418 38 OFFCURVE",
"375 38 CURVE SMOOTH",
"335 38 OFFCURVE",
"296 61 OFFCURVE",
"296 114 CURVE SMOOTH",
"296 192 LINE",
"256 192 LINE",
"256 114 LINE SMOOTH",
"256 61 OFFCURVE",
"221 38 OFFCURVE",
"185 38 CURVE SMOOTH",
"146 38 OFFCURVE",
"106 65 OFFCURVE",
"106 114 CURVE SMOOTH",
"106 166 LINE SMOOTH",
"106 185 OFFCURVE",
"100 237 OFFCURVE",
"30 246 CURVE",
"30 196 LINE",
"34 197 OFFCURVE",
"41 199 OFFCURVE",
"44 199 CURVE SMOOTH",
"64 199 OFFCURVE",
"65 168 OFFCURVE",
"65 146 CURVE SMOOTH",
"65.003 114 LINE SMOOTH",
"65 39 OFFCURVE",
"123 -5 OFFCURVE",
"184 -5 CURVE SMOOTH",
"217 -5 OFFCURVE",
"250 8 OFFCURVE",
"276 36 CURVE",
"306 10 OFFCURVE",
"345 -4 OFFCURVE",
"382 -4 CURVE SMOOTH",
"445 -4 OFFCURVE",
"503 35 OFFCURVE",
"503 114 CURVE SMOOTH",
"503 240 LINE SMOOTH",
"503 362 OFFCURVE",
"441 391 OFFCURVE",
"365 403 CURVE",
"330 373 LINE"
);
}
);
width = 1103;
},
{
layerId = "4EACF7E3-2421-4EEA-928B-7BA9BC4A845D";
paths = (
{
closed = 1;
nodes = (
"155 181 LINE",
"425 400 LINE SMOOTH",
"458 427 OFFCURVE",
"503 443 OFFCURVE",
"550 443 CURVE SMOOTH",
"607 443 OFFCURVE",
"671 420 OFFCURVE",
"671 336 CURVE",
"808 336 LINE",
"808 509 OFFCURVE",
"686 578 OFFCURVE",
"551 578 CURVE SMOOTH",
"477 578 OFFCURVE",
"398 556 OFFCURVE",
"335 509 CURVE",
"30 259 LINE",
"30 160 LINE"
);
},
{
closed = 1;
nodes = (
"147 425 OFFCURVE",
"167 446 OFFCURVE",
"196 446 CURVE SMOOTH",
"216 446 OFFCURVE",
"245 436 OFFCURVE",
"245 402 CURVE",
"337 502 LINE",
"319 535 OFFCURVE",
"267 567 OFFCURVE",
"200 567 CURVE SMOOTH",
"136 567 OFFCURVE",
"44 537 OFFCURVE",
"30 439 CURVE",
"147 402 LINE"
);
},
{
closed = 1;
nodes = (
"788 -8 OFFCURVE",
"819 2 OFFCURVE",
"845 35 CURVE",
"874 3 OFFCURVE",
"915 -8 OFFCURVE",
"949 -8 CURVE SMOOTH",
"1041 -8 OFFCURVE",
"1108 58 OFFCURVE",
"1108 160 CURVE SMOOTH",
"1108 202 LINE",
"967 202 LINE",
"967 166 LINE SMOOTH",
"967 154 OFFCURVE",
"958 132 OFFCURVE",
"928 132 CURVE SMOOTH",
"898 132 OFFCURVE",
"890 153 OFFCURVE",
"890 166 CURVE SMOOTH",
"890 202 LINE",
"790 202 LINE",
"790 166 LINE SMOOTH",
"790 153 OFFCURVE",
"782 132 OFFCURVE",
"752 132 CURVE SMOOTH",
"722 132 OFFCURVE",
"713 154 OFFCURVE",
"713 166 CURVE SMOOTH",
"713 262 LINE SMOOTH",
"713 322 OFFCURVE",
"746 336 OFFCURVE",
"786 336 CURVE SMOOTH",
"808 336 LINE",
"746 454 LINE",
"668 435 LINE",
"583 399 OFFCURVE",
"575 323 OFFCURVE",
"575 262 CURVE SMOOTH",
"575 160 LINE SMOOTH",
"575 58 OFFCURVE",
"653 -8 OFFCURVE",
"750 -8 CURVE SMOOTH"
);
},
{
closed = 1;
nodes = (
"752 612 OFFCURVE",
"776 617 OFFCURVE",
"808 617 CURVE",
"808 755 LINE",
"719 755 OFFCURVE",
"635 711 OFFCURVE",
"598 637 CURVE",
"734 588 LINE"
);
},
{
closed = 1;
nodes = (
"1108 202 LINE",
"1108 520 LINE SMOOTH",
"1108 706 OFFCURVE",
"1005 755 OFFCURVE",
"864 755 CURVE",
"864 616 LINE",
"948 616 OFFCURVE",
"967 583 OFFCURVE",
"967 498 CURVE SMOOTH",
"967 202 LINE"
);
},
{
closed = 1;
nodes = (
"365 269 LINE",
"395 253 OFFCURVE",
"400 230 OFFCURVE",
"400 202 CURVE SMOOTH",
"400 162 LINE SMOOTH",
"400 142 OFFCURVE",
"385 132 OFFCURVE",
"370 132 CURVE SMOOTH",
"355 132 OFFCURVE",
"340 142 OFFCURVE",
"340 162 CURVE SMOOTH",
"340 202 LINE",
"240 202 LINE",
"240 160 LINE SMOOTH",
"240 141 OFFCURVE",
"225 132 OFFCURVE",
"211 132 CURVE SMOOTH",
"196 132 OFFCURVE",
"181 141 OFFCURVE",
"181 160 CURVE SMOOTH",
"181 202 LINE SMOOTH",
"181 221 OFFCURVE",
"166 239 OFFCURVE",
"147 255 CURVE",
"30 160 LINE",
"34 161 OFFCURVE",
"38 162 OFFCURVE",
"43 162 CURVE SMOOTH",
"65 162 OFFCURVE",
"65 139 OFFCURVE",
"65 122 CURVE SMOOTH",
"65 106 LINE SMOOTH",
"65 42 OFFCURVE",
"137 -7 OFFCURVE",
"203 -7 CURVE SMOOTH",
"237 -7 OFFCURVE",
"270 6 OFFCURVE",
"290 36 CURVE",
"314 6 OFFCURVE",
"349 -7 OFFCURVE",
"385 -7 CURVE SMOOTH",
"455 -7 OFFCURVE",
"529 47 OFFCURVE",
"529 136 CURVE SMOOTH",
"529 218 LINE SMOOTH",
"529 280 OFFCURVE",
"512 327 OFFCURVE",
"448 354 CURVE",
"365 287 LINE"
);
}
);
width = 1138;
}
);
unicode = 0DA3;
userData = {
com.fontlab.hintData = {
hhints = (
{
position = -8;
width = 140;
},
{
position = 200;
width = 2;
},
{
position = 446;
width = 121;
},
{
position = 616;
width = 138;
}
);
vhints = (
{
position = 240;
width = 100;
},
{
position = 400;
width = 129;
},
{
position = 575;
width = 138;
},
{
position = 790;
width = 100;
},
{
position = 967;
width = 141;
}
);
};
};
},
{
glyphname = sinNya;
lastChange = "2021-06-28 01:55:44 +0000";
layers = (
{
layerId = "DC4431BF-9234-4C16-9154-22D387E42D10";
paths = (
{
closed = 1;
nodes = (
"877 0 LINE SMOOTH",
"934 0 OFFCURVE",
"1037 22 OFFCURVE",
"1079 138 CURVE",
"1042 148 LINE",
"1008 75 OFFCURVE",
"948 40 OFFCURVE",
"877 40 CURVE SMOOTH",
"838 40 LINE SMOOTH",
"714 40 OFFCURVE",
"653 108 OFFCURVE",
"653 199 CURVE SMOOTH",
"653 293 OFFCURVE",
"711 362 OFFCURVE",
"827 362 CURVE SMOOTH",
"1013 362 LINE",
"1013 389 LINE SMOOTH",
"1013 559 OFFCURVE",
"852 592 OFFCURVE",
"754 592 CURVE",
"754 550 LINE",
"832 550 OFFCURVE",
"973 533 OFFCURVE",
"973 402 CURVE",
"837 402 LINE SMOOTH",
"706 402 OFFCURVE",
"611 335 OFFCURVE",
"611 199 CURVE SMOOTH",
"611 60 OFFCURVE",
"718 0 OFFCURVE",
"838 0 CURVE SMOOTH"
);
},
{
closed = 1;
nodes = (
"136 -8 LINE",
"72 69 OFFCURVE",
"70 112 OFFCURVE",
"70 193 CURVE SMOOTH",
"70 323 LINE SMOOTH",
"70 394 OFFCURVE",
"92 452 OFFCURVE",
"155 452 CURVE SMOOTH",
"171 452 OFFCURVE",
"189 448 OFFCURVE",
"210 440 CURVE",
"210 483 LINE",
"192 489 OFFCURVE",
"173 492 OFFCURVE",
"155 492 CURVE SMOOTH",
"90 492 OFFCURVE",
"30 451 OFFCURVE",
"30 323 CURVE SMOOTH",
"30 193 LINE SMOOTH",
"30 102 OFFCURVE",
"34 53 OFFCURVE",
"94 -24 CURVE"
);
},
{
closed = 1;
nodes = (
"355 -5 OFFCURVE",
"388 8 OFFCURVE",
"414 36 CURVE",
"444 10 OFFCURVE",
"483 -4 OFFCURVE",
"520 -4 CURVE SMOOTH",
"583 -4 OFFCURVE",
"641 35 OFFCURVE",
"641 114 CURVE SMOOTH",
"641 240 LINE SMOOTH",
"641 362 OFFCURVE",
"579 391 OFFCURVE",
"503 403 CURVE",
"465 370 LINE",
"564 355 OFFCURVE",
"601 331 OFFCURVE",
"601.004 240 CURVE SMOOTH",
"601 114 LINE SMOOTH",
"601 65 OFFCURVE",
"556 38 OFFCURVE",
"513 38 CURVE SMOOTH",
"473 38 OFFCURVE",
"434 61 OFFCURVE",
"434 114 CURVE SMOOTH",
"434 192 LINE",
"394 192 LINE",
"394 114 LINE SMOOTH",
"394 61 OFFCURVE",
"359 38 OFFCURVE",
"323 38 CURVE SMOOTH",
"284 38 OFFCURVE",
"244 65 OFFCURVE",
"244 114 CURVE SMOOTH",
"244 166 LINE SMOOTH",
"244 185 OFFCURVE",
"238 237 OFFCURVE",
"168 246 CURVE",
"168 196 LINE",
"172 197 OFFCURVE",
"179 199 OFFCURVE",
"182 199 CURVE SMOOTH",
"202 199 OFFCURVE",
"203 168 OFFCURVE",
"203 146 CURVE SMOOTH",
"203.003 114 LINE SMOOTH",
"203 39 OFFCURVE",
"261 -5 OFFCURVE",
"322 -5 CURVE SMOOTH"
);
},
{
closed = 1;
nodes = (
"233 498 OFFCURVE",
"277 521 OFFCURVE",
"319 521 CURVE SMOOTH",
"368 521 OFFCURVE",
"414 491 OFFCURVE",
"427 445 CURVE",
"458 473 LINE",
"443 527 OFFCURVE",
"383 565 OFFCURVE",
"320 565 CURVE SMOOTH",
"262 565 OFFCURVE",
"202 533 OFFCURVE",
"171 452 CURVE",
"210 440 LINE"
);
},
{
closed = 1;
nodes = (
"1018 -204 OFFCURVE",
"1095 -161 OFFCURVE",
"1113 -76 CURVE",
"1074 -66 LINE",
"1058 -134 OFFCURVE",
"1002 -164 OFFCURVE",
"946 -164 CURVE SMOOTH",
"880 -164 OFFCURVE",
"814 -121 OFFCURVE",
"814 -45 CURVE",
"774 -45 LINE",
"774 -151 OFFCURVE",
"857 -204 OFFCURVE",
"942 -204 CURVE SMOOTH"
);
},
{
closed = 1;
nodes = (
"207 225 LINE",
"487 466 LINE SMOOTH",
"558 525 OFFCURVE",
"633 550 OFFCURVE",
"699 550 CURVE",
"699 592 LINE",
"632 592 OFFCURVE",
"548 564 OFFCURVE",
"458 494 CURVE",
"168 246 LINE",
"168 196 LINE"
);
}
);
width = 1113;
},
{
layerId = "4EACF7E3-2421-4EEA-928B-7BA9BC4A845D";
paths = (
{
closed = 1;
nodes = (
"912 -1 LINE SMOOTH",
"1005 -1 OFFCURVE",
"1090 51 OFFCURVE",
"1115 137 CURVE",
"987 171 LINE",
"974 139 OFFCURVE",
"945 135 OFFCURVE",
"912 135 CURVE SMOOTH",
"875 135 LINE SMOOTH",
"836 135 OFFCURVE",
"791 145 OFFCURVE",
"791 200 CURVE SMOOTH",
"791 262 OFFCURVE",
"850 262 OFFCURVE",
"874 262 CURVE SMOOTH",
"1061 262 LINE",
"1061 397 LINE SMOOTH",
"1061 553 OFFCURVE",
"932 592 OFFCURVE",
"796 592 CURVE",
"796 462 LINE",
"846 462 OFFCURVE",
"918 459 OFFCURVE",
"918 397 CURVE",
"874 397 LINE SMOOTH",
"741 397 OFFCURVE",
"648 332 OFFCURVE",
"648 199 CURVE SMOOTH",
"648 57 OFFCURVE",
"755 -1 OFFCURVE",
"875 -1 CURVE SMOOTH"
);
},
{
closed = 1;
nodes = (
"241 -1 LINE",
"177 76 OFFCURVE",
"166 116 OFFCURVE",
"166 197 CURVE SMOOTH",
"166 287 LINE SMOOTH",
"166 396 OFFCURVE",
"211 420 OFFCURVE",
"250 420 CURVE SMOOTH",
"265 420 OFFCURVE",
"279 416 OFFCURVE",
"326 402 CURVE",
"326 533 LINE",
"285 553 OFFCURVE",
"263 554 OFFCURVE",
"248 554 CURVE SMOOTH",
"136 554 OFFCURVE",
"30 467 OFFCURVE",
"30 287 CURVE SMOOTH",
"30 197 LINE SMOOTH",
"30 106 OFFCURVE",
"51 36 OFFCURVE",
"111 -41 CURVE"
);
},
{
closed = 1;
nodes = (
"416 -7 OFFCURVE",
"449 6 OFFCURVE",
"469 36 CURVE",
"493 6 OFFCURVE",
"528 -7 OFFCURVE",
"564 -7 CURVE SMOOTH",
"634 -7 OFFCURVE",
"708 47 OFFCURVE",
"708 136 CURVE SMOOTH",
"708 218 LINE SMOOTH",
"708 280 OFFCURVE",
"691 327 OFFCURVE",
"627 354 CURVE",
"530 276 LINE",
"573 259 OFFCURVE",
"579 233 OFFCURVE",
"579 202 CURVE SMOOTH",
"579 162 LINE SMOOTH",
"579 142 OFFCURVE",
"564 132 OFFCURVE",
"549 132 CURVE SMOOTH",
"534 132 OFFCURVE",
"519 142 OFFCURVE",
"519 162 CURVE SMOOTH",
"519 202 LINE",
"419 202 LINE",
"419 160 LINE SMOOTH",
"419 141 OFFCURVE",
"404 132 OFFCURVE",
"390 132 CURVE SMOOTH",
"375 132 OFFCURVE",
"360 141 OFFCURVE",
"360 160 CURVE SMOOTH",
"360 202 LINE SMOOTH",
"360 221 OFFCURVE",
"345 239 OFFCURVE",
"326 255 CURVE",
"209 160 LINE",
"213 161 OFFCURVE",
"217 162 OFFCURVE",
"222 162 CURVE SMOOTH",
"244 162 OFFCURVE",
"244 139 OFFCURVE",
"244 122 CURVE SMOOTH",
"244 106 LINE SMOOTH",
"244 42 OFFCURVE",
"316 -7 OFFCURVE",
"382 -7 CURVE SMOOTH"
);
},
{
closed = 1;
nodes = (
"326 425 OFFCURVE",
"346 446 OFFCURVE",
"375 446 CURVE SMOOTH",
"395 446 OFFCURVE",
"424 436 OFFCURVE",
"424 402 CURVE",
"516 502 LINE",
"498 535 OFFCURVE",
"446 567 OFFCURVE",
"379 567 CURVE SMOOTH",
"315 567 OFFCURVE",
"223 537 OFFCURVE",
"209 439 CURVE",
"326 402 LINE"
);
},
{
closed = 1;
nodes = (
"1091 -205 OFFCURVE",
"1146 -149 OFFCURVE",
"1168 -82 CURVE",
"1035 -48 LINE",
"1030 -68 OFFCURVE",
"1006 -79 OFFCURVE",
"985 -79 CURVE SMOOTH",
"956 -79 OFFCURVE",
"936 -62 OFFCURVE",
"936 -46 CURVE",
"799 -46 LINE",
"799 -137 OFFCURVE",
"866 -205 OFFCURVE",
"985 -205 CURVE SMOOTH"
);
},
{
closed = 1;
nodes = (
"334 181 LINE",
"604 400 LINE SMOOTH",
"641 430 OFFCURVE",
"679 462 OFFCURVE",
"741 462 CURVE",
"741 593 LINE",
"636 593 OFFCURVE",
"577 559 OFFCURVE",
"510 504 CURVE SMOOTH",
"209 259 LINE",
"209 160 LINE"
);
}
);
width = 1168;
}
);
unicode = 0DA4;
userData = {
com.fontlab.hintData = {
hhints = (
{
position = -204;
width = 126;
},
{
position = 0;
width = 136;
},
{
position = 263;
width = 135;
},
{
position = 454;
width = 121;
}
);
vhints = (
{
position = 241;
width = 143;
}
);
};
};
},
{
glyphname = sinJnya;
lastChange = "2021-06-28 01:55:44 +0000";
layers = (
{
layerId = "DC4431BF-9234-4C16-9154-22D387E42D10";
paths = (
{
closed = 1;
nodes = (
"815 0 LINE SMOOTH",
"872 0 OFFCURVE",
"975 22 OFFCURVE",
"1017 138 CURVE",
"980 148 LINE",
"946 75 OFFCURVE",
"886 40 OFFCURVE",
"815 40 CURVE SMOOTH",
"776 40 LINE SMOOTH",
"652 40 OFFCURVE",
"591 108 OFFCURVE",
"591 199 CURVE SMOOTH",
"591 293 OFFCURVE",
"649 349 OFFCURVE",
"765 349 CURVE SMOOTH",
"951 349 LINE",
"951 376 LINE SMOOTH",
"951 556 OFFCURVE",
"790 574 OFFCURVE",
"692 574 CURVE",
"692 533 LINE",
"770 533 OFFCURVE",
"911 516 OFFCURVE",
"911 389 CURVE",
"775 389 LINE SMOOTH",
"644 389 OFFCURVE",
"549 335 OFFCURVE",
"549 199 CURVE SMOOTH",
"549 60 OFFCURVE",
"656 0 OFFCURVE",
"776 0 CURVE SMOOTH"
);
},
{
closed = 1;
nodes = (
"136 7 LINE",
"72 84 OFFCURVE",
"70 127 OFFCURVE",
"70 208 CURVE SMOOTH",
"70 287 LINE SMOOTH",
"70 376 OFFCURVE",
"68 524 OFFCURVE",
"238 524 CURVE SMOOTH",
"356 524 LINE",
"356 564 LINE",
"265 564 LINE SMOOTH",
"61 564 OFFCURVE",
"30 452 OFFCURVE",
"30 287 CURVE SMOOTH",
"30 208 LINE SMOOTH",
"30 117 OFFCURVE",
"34 68 OFFCURVE",
"94 -9 CURVE"
);
},
{
closed = 1;
nodes = (
"356 32 LINE",
"264 32 OFFCURVE",
"210 98 OFFCURVE",
"210 216 CURVE SMOOTH",
"210 340 LINE SMOOTH",
"210 458 OFFCURVE",
"261 524 OFFCURVE",
"356 524 CURVE",
"356 564 LINE",
"237 564 OFFCURVE",
"170 476 OFFCURVE",
"170 340 CURVE SMOOTH",
"170 216 LINE SMOOTH",
"170 80 OFFCURVE",
"237 -8 OFFCURVE",
"356 -8 CURVE"
);
},
{
closed = 1;
nodes = (
"512 -8 OFFCURVE",
"579 43 OFFCURVE",
"579 145 CURVE SMOOTH",
"579 164 LINE SMOOTH",
"579 233 OFFCURVE",
"548 311 OFFCURVE",
"446 311 CURVE SMOOTH",
"409 311 LINE",
"409 271 LINE",
"446 271 LINE SMOOTH",
"531 271 OFFCURVE",
"539 200 OFFCURVE",
"539 152 CURVE SMOOTH",
"539 66 OFFCURVE",
"492 32 OFFCURVE",
"412 32 CURVE",
"412 -8 LINE"
);
},
{
closed = 1;
nodes = (
"956 -204 OFFCURVE",
"1033 -161 OFFCURVE",
"1051 -76 CURVE",
"1012 -66 LINE",
"996 -134 OFFCURVE",
"940 -164 OFFCURVE",
"884 -164 CURVE SMOOTH",
"818 -164 OFFCURVE",
"752 -121 OFFCURVE",
"752 -45 CURVE",
"712 -45 LINE",
"712 -151 OFFCURVE",
"795 -204 OFFCURVE",
"880 -204 CURVE SMOOTH"
);
},
{
closed = 1;
nodes = (
"433 271 LINE",
"433 361 LINE SMOOTH",
"433 480.999 OFFCURVE",
"526 532 OFFCURVE",
"631 534 CURVE SMOOTH",
"636 534 LINE",
"636 574 LINE",
"631 574 LINE SMOOTH",
"510 572 OFFCURVE",
"392 516 OFFCURVE",
"392 360 CURVE SMOOTH",
"392 271 LINE"
);
}
);
width = 1051;
},
{
layerId = "4EACF7E3-2421-4EEA-928B-7BA9BC4A845D";
paths = (
{
closed = 1;
nodes = (
"827 -8 LINE SMOOTH",
"920 -8 OFFCURVE",
"1005 44 OFFCURVE",
"1030 130 CURVE",
"902 164 LINE",
"889 132 OFFCURVE",
"860 128 OFFCURVE",
"827 128 CURVE SMOOTH",
"790 128 LINE SMOOTH",
"743 128 OFFCURVE",
"719 155 OFFCURVE",
"719 182 CURVE SMOOTH",
"719 208 OFFCURVE",
"741 234 OFFCURVE",
"789 234 CURVE SMOOTH",
"976 234 LINE",
"976 369 LINE SMOOTH",
"976 565 OFFCURVE",
"798 564 OFFCURVE",
"711 564 CURVE",
"711 420 LINE",
"724 420 OFFCURVE",
"833 436 OFFCURVE",
"833 369 CURVE",
"783 369 LINE SMOOTH",
"649 369 OFFCURVE",
"583 277 OFFCURVE",
"583 183 CURVE SMOOTH",
"583 88 OFFCURVE",
"652 -8 OFFCURVE",
"790 -8 CURVE SMOOTH"
);
},
{
closed = 1;
nodes = (
"241 -1 LINE",
"177 76 OFFCURVE",
"166 116 OFFCURVE",
"166 197 CURVE SMOOTH",
"166 287 LINE SMOOTH",
"166 376 OFFCURVE",
"174 421 OFFCURVE",
"224 421 CURVE SMOOTH",
"421 421 LINE",
"421 564 LINE",
"265 564 LINE SMOOTH",
"61 564 OFFCURVE",
"30 452 OFFCURVE",
"30 287 CURVE SMOOTH",
"30 197 LINE SMOOTH",
"30 106 OFFCURVE",
"51 36 OFFCURVE",
"111 -41 CURVE"
);
},
{
closed = 1;
nodes = (
"421 135 LINE",
"369 135 OFFCURVE",
"365 174 OFFCURVE",
"365 198 CURVE SMOOTH",
"365 348 LINE SMOOTH",
"365 376 OFFCURVE",
"369 421 OFFCURVE",
"421 421 CURVE",
"421 564 LINE",
"282 564 OFFCURVE",
"224 474 OFFCURVE",
"224 358 CURVE SMOOTH",
"224 198 LINE SMOOTH",
"224 82 OFFCURVE",
"282 -8 OFFCURVE",
"421 -8 CURVE"
);
},
{
closed = 1;
nodes = (
"594 -8 OFFCURVE",
"655 45 OFFCURVE",
"655 166 CURVE SMOOTH",
"655 195 LINE SMOOTH",
"655 304 OFFCURVE",
"601 347 OFFCURVE",
"565 347 CURVE SMOOTH",
"465 347 LINE",
"465 241 LINE",
"477 241 LINE SMOOTH",
"530 241 OFFCURVE",
"531 205 OFFCURVE",
"531 188 CURVE SMOOTH",
"531 171 OFFCURVE",
"530 135 OFFCURVE",
"477 135 CURVE",
"477 -8 LINE"
);
},
{
closed = 1;
nodes = (
"1006 -212 OFFCURVE",
"1061 -156 OFFCURVE",
"1083 -89 CURVE",
"950 -55 LINE",
"945 -75 OFFCURVE",
"921 -86 OFFCURVE",
"900 -86 CURVE SMOOTH",
"871 -86 OFFCURVE",
"851 -69 OFFCURVE",
"851 -53 CURVE",
"714 -53 LINE",
"714 -144 OFFCURVE",
"781 -212 OFFCURVE",
"900 -212 CURVE SMOOTH"
);
},
{
closed = 1;
nodes = (
"587 241 LINE",
"587 350 LINE SMOOTH",
"587 376 OFFCURVE",
"582 421 OFFCURVE",
"628 421 CURVE SMOOTH",
"656 421 LINE",
"656 564 LINE",
"628 564 LINE SMOOTH",
"484 564 OFFCURVE",
"448 468.007 OFFCURVE",
"448 350 CURVE SMOOTH",
"448 241 LINE"
);
}
);
width = 1083;
}
);
unicode = 0DA5;
userData = {
com.fontlab.hintData = {
hhints = (
{
position = -8;
width = 143;
},
{
position = 421;
width = 143;
}
);
vhints = (
{
position = 224;
width = 141;
},
{
position = 448;
width = 139;
},
{
position = 531;
width = 124;
},
{
position = 740;
width = 141;
}
);
};
};
},
{
glyphname = sinNyja;
lastChange = "2021-06-28 02:08:16 +0000";
layers = (
{
components = (
{
name = sinJa;
transform = "{1, 0, 0, 1, 145, 0}";
}
);
layerId = "DC4431BF-9234-4C16-9154-22D387E42D10";
paths = (
{
closed = 1;
nodes = (
"136 8 LINE",
"72 85 OFFCURVE",
"70 128 OFFCURVE",
"70 209 CURVE SMOOTH",
"70 349 LINE SMOOTH",
"70 420 OFFCURVE",
"92 478 OFFCURVE",
"155 478 CURVE SMOOTH",
"171 478 OFFCURVE",
"189 474 OFFCURVE",
"210 466 CURVE",
"210 509 LINE",
"192 515 OFFCURVE",
"173 518 OFFCURVE",
"155 518 CURVE SMOOTH",
"90 518 OFFCURVE",
"30 477 OFFCURVE",
"30 349 CURVE SMOOTH",
"30 209 LINE SMOOTH",
"30 118 OFFCURVE",
"34 69 OFFCURVE",
"94 -8 CURVE"
);
}
);
width = 765;
},
{
components = (
{
name = sinJa;
transform = "{1, 0, 0, 1, 175, 0}";
}
);
layerId = "4EACF7E3-2421-4EEA-928B-7BA9BC4A845D";
paths = (
{
closed = 1;
nodes = (
"236 -1 LINE",
"172 76 OFFCURVE",
"161 116 OFFCURVE",
"161 197 CURVE SMOOTH",
"161 307 LINE SMOOTH",
"161 414 OFFCURVE",
"211 437 OFFCURVE",
"254 437 CURVE SMOOTH",
"271 437 OFFCURVE",
"287 434 OFFCURVE",
"321 422 CURVE",
"321 553 LINE",
"327 571 OFFCURVE",
"297 572 OFFCURVE",
"280 572 CURVE SMOOTH",
"30 572 OFFCURVE",
"30 364 OFFCURVE",
"30 332 CURVE SMOOTH",
"30 192 LINE SMOOTH",
"30 101 OFFCURVE",
"46 36 OFFCURVE",
"106 -41 CURVE"
);
}
);
width = 828;
}
);
unicode = 0DA6;
},
{
glyphname = sinTta;
lastChange = "2021-06-28 01:55:44 +0000";
layers = (
{
layerId = "DC4431BF-9234-4C16-9154-22D387E42D10";
paths = (
{
closed = 1;
nodes = (
"455 0 OFFCURVE",
"521 84 OFFCURVE",
"521 241 CURVE SMOOTH",
"521 514 LINE SMOOTH",
"521 671 OFFCURVE",
"455 755 OFFCURVE",
"296 755 CURVE",
"296 715 LINE",
"409 715 OFFCURVE",
"480 662 OFFCURVE",
"480 514 CURVE SMOOTH",
"480 241 LINE SMOOTH",
"480 95 OFFCURVE",
"409 40 OFFCURVE",
"296 40 CURVE",
"296 0 LINE"
);
},
{
closed = 1;
nodes = (
"240 40 LINE",
"139 40 OFFCURVE",
"78 112 OFFCURVE",
"78 200 CURVE SMOOTH",
"78 270 LINE SMOOTH",
"78 357 OFFCURVE",
"128 430 OFFCURVE",
"240 430 CURVE",
"240 470 LINE",
"80 470 OFFCURVE",
"37 355 OFFCURVE",
"37 270 CURVE SMOOTH",
"37 200 LINE SMOOTH",
"37 116 OFFCURVE",
"90 0 OFFCURVE",
"240 0 CURVE"
);
},
{
closed = 1;
nodes = (
"69 644 OFFCURVE",
"156 715 OFFCURVE",
"240 715 CURVE",
"240 755 LINE",
"144 755 OFFCURVE",
"30 674 OFFCURVE",
"30 563 CURVE",
"69 553 LINE"
);
}
);
width = 551;
},
{
layerId = "4EACF7E3-2421-4EEA-928B-7BA9BC4A845D";
paths = (
{
closed = 1;
nodes = (
"493 -5 OFFCURVE",
"528 138 OFFCURVE",
"528 237 CURVE SMOOTH",
"528 520 LINE SMOOTH",
"528 678 OFFCURVE",
"456 755 OFFCURVE",
"297 755 CURVE",
"297 616 LINE",
"347 616 OFFCURVE",
"388 603 OFFCURVE",
"388 508 CURVE SMOOTH",
"388 248 LINE SMOOTH",
"388 149 OFFCURVE",
"347 135 OFFCURVE",
"297 135 CURVE",
"297 -5 LINE"
);
},
{
closed = 1;
nodes = (
"241 135 LINE",
"189 135 OFFCURVE",
"168 183 OFFCURVE",
"168 222 CURVE SMOOTH",
"168 262 LINE SMOOTH",
"168 322 OFFCURVE",
"201 336 OFFCURVE",
"241 336 CURVE",
"241 474 LINE",
"45 474 OFFCURVE",
"30 344 OFFCURVE",
"30 262 CURVE SMOOTH",
"30 208 LINE SMOOTH",
"30 117 OFFCURVE",
"97 -5 OFFCURVE",
"241 -5 CURVE"
);
},
{
closed = 1;
nodes = (
"167 596 OFFCURVE",
"203 617 OFFCURVE",
"241 617 CURVE",
"241 755 LINE",
"137 755 OFFCURVE",
"30 672 OFFCURVE",
"30 566 CURVE",
"167 530 LINE"
);
}
);
width = 558;
}
);
unicode = 0DA7;
userData = {
com.fontlab.hintData = {
hhints = (
{
position = 0;
width = 40;
},
{
position = 432;
width = 40;
},
{
position = 715;
width = 40;
}
);
vhints = (
{
position = 30;
width = 39;
},
{
position = 37;
width = 41;
},
{
position = 480;
width = 41;
}
);
};
};
},
{
glyphname = sinTtha;
lastChange = "2021-06-28 01:55:44 +0000";
layers = (
{
layerId = "DC4431BF-9234-4C16-9154-22D387E42D10";
paths = (
{
closed = 1;
nodes = (
"236 0 OFFCURVE",
"279 21 OFFCURVE",
"303 58 CURVE",
"327 21 OFFCURVE",
"370 0 OFFCURVE",
"422 0 CURVE SMOOTH",
"505 0 OFFCURVE",
"563 52 OFFCURVE",
"563 133 CURVE SMOOTH",
"563 200 LINE",
"521 200 LINE",
"521 139 LINE SMOOTH",
"521 104 OFFCURVE",
"498 40 OFFCURVE",
"422 40 CURVE SMOOTH",
"347 40 OFFCURVE",
"324 104 OFFCURVE",
"324 139 CURVE SMOOTH",
"324 192 LINE",
"282 192 LINE",
"282 139 LINE SMOOTH",
"282 104 OFFCURVE",
"259 40 OFFCURVE",
"184 40 CURVE SMOOTH",
"108 40 OFFCURVE",
"85 104 OFFCURVE",
"85 139 CURVE SMOOTH",
"85 301 LINE SMOOTH",
"85 336 OFFCURVE",
"98 440 OFFCURVE",
"224 440 CURVE SMOOTH",
"263 440 LINE",
"263 480 LINE",
"224 480 LINE SMOOTH",
"91 480 OFFCURVE",
"43 388 OFFCURVE",
"43 307 CURVE SMOOTH",
"43 133 LINE SMOOTH",
"43 52 OFFCURVE",
"101 0 OFFCURVE",
"184 0 CURVE SMOOTH"
);
},
{
closed = 1;
nodes = (
"296 755 LINE",
"296 637 LINE SMOOTH",
"296 541 OFFCURVE",
"349 464 OFFCURVE",
"466 464 CURVE",
"466 504 LINE",
"403 504 OFFCURVE",
"336 537 OFFCURVE",
"336 637 CURVE SMOOTH",
"336 715 LINE",
"337 715 LINE SMOOTH",
"473 715 OFFCURVE",
"521 643 OFFCURVE",
"521 498 CURVE SMOOTH",
"521 198 LINE",
"563 198 LINE",
"563 517 LINE SMOOTH",
"563 700 OFFCURVE",
"466 755 OFFCURVE",
"336 755 CURVE SMOOTH"
);
}
);
width = 593;
},
{
background = {
paths = (
{
closed = 0;
nodes = (
"168 241 LINE",
"168 302 OFFCURVE",
"201 316 OFFCURVE",
"241 316 CURVE",
"241 454 LINE",
"45 454 OFFCURVE",
"30 324 OFFCURVE",
"30 255 CURVE"
);
},
{
closed = 0;
nodes = (
"30 255 LINE",
"30 191 LINE SMOOTH",
"30 101 OFFCURVE",
"103 -5 OFFCURVE",
"247 -5 CURVE",
"247 140 LINE",
"199 140 OFFCURVE",
"168 168 OFFCURVE",
"168 219 CURVE SMOOTH",
"168 241 LINE"
);
}
);
};
layerId = "4EACF7E3-2421-4EEA-928B-7BA9BC4A845D";
paths = (
{
closed = 1;
nodes = (
"243 -8 OFFCURVE",
"274 2 OFFCURVE",
"300 35 CURVE",
"329 3 OFFCURVE",
"370 -8 OFFCURVE",
"404 -8 CURVE SMOOTH",
"496 -8 OFFCURVE",
"563 58 OFFCURVE",
"563 160 CURVE SMOOTH",
"563 202 LINE",
"423 202 LINE",
"423 166 LINE SMOOTH",
"423 154 OFFCURVE",
"414 132 OFFCURVE",
"383 132 CURVE SMOOTH",
"353 132 OFFCURVE",
"345 153 OFFCURVE",
"345 166 CURVE SMOOTH",
"345 202 LINE",
"245 202 LINE",
"245 166 LINE SMOOTH",
"245 153 OFFCURVE",
"237 132 OFFCURVE",
"207 132 CURVE SMOOTH",
"177 132 OFFCURVE",
"168 154 OFFCURVE",
"168 173 CURVE SMOOTH",
"168 251 LINE SMOOTH",
"168 302 OFFCURVE",
"201 316 OFFCURVE",
"230 316 CURVE SMOOTH",
"243 316 LINE",
"243 454 LINE",
"230 454 LINE SMOOTH",
"45 454 OFFCURVE",
"30 324 OFFCURVE",
"30 255 CURVE SMOOTH",
"30 160 LINE SMOOTH",
"30 58 OFFCURVE",
"108 -8 OFFCURVE",
"205 -8 CURVE SMOOTH"
);
},
{
closed = 1;
nodes = (
"207 755 LINE",
"207 606 LINE SMOOTH",
"207 519 OFFCURVE",
"258 441 OFFCURVE",
"387 441 CURVE",
"387 548 LINE",
"334 548 OFFCURVE",
"328 581 OFFCURVE",
"328 614 CURVE SMOOTH",
"328 629 LINE",
"339 629 LINE SMOOTH",
"407 629 OFFCURVE",
"423 593 OFFCURVE",
"423 508 CURVE SMOOTH",
"423 201 LINE",
"563 201 LINE",
"563 517 LINE SMOOTH",
"563 700 OFFCURVE",
"462 755 OFFCURVE",
"328 755 CURVE SMOOTH"
);
}
);
width = 593;
},
{
associatedMasterId = "4EACF7E3-2421-4EEA-928B-7BA9BC4A845D";
layerId = "F5B99557-133E-402E-BEC6-7159D769987F";
name = "27 Jun 21, 16:34";
paths = (
{
closed = 1;
nodes = (
"240 -8 OFFCURVE",
"276 3 OFFCURVE",
"300 35 CURVE",
"329 3 OFFCURVE",
"370 -8 OFFCURVE",
"404 -8 CURVE SMOOTH",
"496 -8 OFFCURVE",
"563 58 OFFCURVE",
"563 160 CURVE SMOOTH",
"563 202 LINE",
"423 202 LINE",
"423 166 LINE SMOOTH",
"423 154 OFFCURVE",
"414 132 OFFCURVE",
"383 132 CURVE SMOOTH",
"353 132 OFFCURVE",
"345 153 OFFCURVE",
"345 166 CURVE SMOOTH",
"345 202 LINE",
"245 202 LINE",
"245 166 LINE SMOOTH",
"245 153 OFFCURVE",
"237 132 OFFCURVE",
"207 132 CURVE SMOOTH",
"177 132 OFFCURVE",
"168 154 OFFCURVE",
"168 166 CURVE SMOOTH",
"168 262 LINE SMOOTH",
"168 322 OFFCURVE",
"201 336 OFFCURVE",
"241 336 CURVE SMOOTH",
"263 336 LINE",
"263 474 LINE",
"241 474 LINE SMOOTH",
"45 474 OFFCURVE",
"30 344 OFFCURVE",
"30 262 CURVE SMOOTH",
"30 160 LINE SMOOTH",
"30 58 OFFCURVE",
"105.004 -8 OFFCURVE",
"212 -8 CURVE SMOOTH"
);
},
{
closed = 1;
nodes = (
"563 195 LINE",
"563 517 LINE SMOOTH",
"563 700 OFFCURVE",
"462 755 OFFCURVE",
"328 755 CURVE SMOOTH",
"248 755 LINE",
"248 617 LINE SMOOTH",
"248 544 OFFCURVE",
"284 474 OFFCURVE",
"387 454 CURVE",
"387 540 LINE",
"354 547 OFFCURVE",
"328 562 OFFCURVE",
"328 604 CURVE SMOOTH",
"328 616 LINE",
"406 616 OFFCURVE",
"423 577 OFFCURVE",
"423 498 CURVE SMOOTH",
"423 195 LINE"
);
}
);
width = 593;
},
{
associatedMasterId = "DC4431BF-9234-4C16-9154-22D387E42D10";
layerId = "DCCD4273-A074-4FD8-B10B-A94F9E25AFE2";
name = "27 Jun 21, 16:34";
paths = (
{
closed = 1;
nodes = (
"236.405 0 OFFCURVE",
"279.069 21.396 OFFCURVE",
"303 57.965 CURVE",
"326.931 21.396 OFFCURVE",
"369.595 0 OFFCURVE",
"422 0 CURVE SMOOTH",
"504.893 0 OFFCURVE",
"563 52.266 OFFCURVE",
"563 133 CURVE SMOOTH",
"563 200 LINE",
"521 200 LINE",
"521 139 LINE SMOOTH",
"521 104.067 OFFCURVE",
"498.154 40 OFFCURVE",
"422 40 CURVE SMOOTH",
"346.846 40 OFFCURVE",
"324 104.059 OFFCURVE",
"324 139 CURVE SMOOTH",
"324 192 LINE",
"282 192 LINE",
"282 139 LINE SMOOTH",
"282 104.059 OFFCURVE",
"259.154 40 OFFCURVE",
"184 40 CURVE SMOOTH",
"107.846 40 OFFCURVE",
"85 104.059 OFFCURVE",
"85 139 CURVE SMOOTH",
"85 301 LINE SMOOTH",
"85 335.941 OFFCURVE",
"97.846 440 OFFCURVE",
"223.667 440 CURVE SMOOTH",
"263 440 LINE",
"263 480 LINE",
"223.667 480 LINE SMOOTH",
"91.107 480 OFFCURVE",
"43 387.75 OFFCURVE",
"43 307 CURVE SMOOTH",
"43 133 LINE SMOOTH",
"43 52.25 OFFCURVE",
"101.107 0 OFFCURVE",
"184 0 CURVE SMOOTH"
);
},
{
closed = 1;
nodes = (
"563 200 LINE",
"563 517 LINE SMOOTH",
"563 700 OFFCURVE",
"465.702 755 OFFCURVE",
"336 755 CURVE SMOOTH",
"296 755 LINE",
"296 637 LINE SMOOTH",
"296 540.655 OFFCURVE",
"349 464 OFFCURVE",
"466 464 CURVE",
"466 504 LINE",
"403.352 504 OFFCURVE",
"336 536.674 OFFCURVE",
"335.95 637 CURVE",
"336 715 LINE",
"473.385 715 OFFCURVE",
"521 643.279 OFFCURVE",
"521 498 CURVE SMOOTH",
"521 200 LINE"
);
}
);
width = 593;
}
);
unicode = 0DA8;
userData = {
com.fontlab.hintData = {
hhints = (
{
position = 0;
width = 40;
},
{
position = 235;
width = 7;
},
{
position = 440;
width = 40;
},
{
position = 464;
width = 40;
},
{
position = 715;
width = 40;
}
);
vhints = (
{
position = 43;
width = 42;
},
{
position = 282;
width = 42;
},
{
position = 296;
width = 40;
},
{
position = 521;
width = 42;
}
);
};
};
},
{
glyphname = sinDda;
lastChange = "2021-06-28 01:55:44 +0000";
layers = (
{
layerId = "DC4431BF-9234-4C16-9154-22D387E42D10";
paths = (
{
closed = 1;
nodes = (
"267 0 OFFCURVE",
"310 21 OFFCURVE",
"334 58 CURVE",
"358 21 OFFCURVE",
"401 0 OFFCURVE",
"453 0 CURVE SMOOTH",
"536 0 OFFCURVE",
"594 52 OFFCURVE",
"594 133 CURVE SMOOTH",
"594 197 LINE",
"552 197 LINE",
"552 139 LINE SMOOTH",
"552 104 OFFCURVE",
"529 40 OFFCURVE",
"453 40 CURVE SMOOTH",
"378 40 OFFCURVE",
"355 104 OFFCURVE",
"355 139 CURVE SMOOTH",
"355 192 LINE",
"313 192 LINE",
"313 139 LINE SMOOTH",
"313 104 OFFCURVE",
"290 40 OFFCURVE",
"215 40 CURVE SMOOTH",
"139 40 OFFCURVE",
"116 104 OFFCURVE",
"116 139 CURVE SMOOTH",
"116 235 LINE SMOOTH",
"116 302 OFFCURVE",
"155 309 OFFCURVE",
"191 309 CURVE SMOOTH",
"355 309 LINE",
"355 354 LINE SMOOTH",
"355 396 OFFCURVE",
"338 427 OFFCURVE",
"312 448 CURVE SMOOTH",
"286 469 OFFCURVE",
"252 479 OFFCURVE",
"219 479 CURVE SMOOTH",
"164 479 OFFCURVE",
"111 452 OFFCURVE",
"97 399 CURVE",
"136 389 LINE",
"150 422 OFFCURVE",
"184 438 OFFCURVE",
"218 438 CURVE SMOOTH",
"266 438 OFFCURVE",
"315 408 OFFCURVE",
"315 349 CURVE",
"30 349 LINE",
"30 309 LINE",
"102 309 LINE",
"81 298 OFFCURVE",
"74 267 OFFCURVE",
"74 235 CURVE SMOOTH",
"74 133 LINE SMOOTH",
"74 52 OFFCURVE",
"132 0 OFFCURVE",
"215 0 CURVE SMOOTH"
);
},
{
closed = 1;
nodes = (
"123 651 OFFCURVE",
"213 715 OFFCURVE",
"306 715 CURVE",
"306 755 LINE",
"202 755 OFFCURVE",
"84 681 OFFCURVE",
"84 563 CURVE",
"123 553 LINE"
);
},
{
closed = 1;
nodes = (
"594 197 LINE",
"594 514 LINE SMOOTH",
"594 675 OFFCURVE",
"526 755 OFFCURVE",
"362 755 CURVE",
"362 715 LINE",
"480 715 OFFCURVE",
"552 666 OFFCURVE",
"552 514 CURVE SMOOTH",
"552 197 LINE"
);
}
);
width = 624;
},
{
layerId = "4EACF7E3-2421-4EEA-928B-7BA9BC4A845D";
paths = (
{
closed = 1;
nodes = (
"282 -8 OFFCURVE",
"313 2 OFFCURVE",
"339 35 CURVE",
"368 3 OFFCURVE",
"409 -8 OFFCURVE",
"443 -8 CURVE SMOOTH",
"535 -8 OFFCURVE",
"602 58 OFFCURVE",
"602 160 CURVE SMOOTH",
"602 202 LINE",
"461 202 LINE",
"461 166 LINE SMOOTH",
"461 154 OFFCURVE",
"452 132 OFFCURVE",
"422 132 CURVE SMOOTH",
"392 132 OFFCURVE",
"384 153 OFFCURVE",
"384 166 CURVE SMOOTH",
"384 202 LINE",
"284 202 LINE",
"284 166 LINE SMOOTH",
"284 153 OFFCURVE",
"276 132 OFFCURVE",
"246 132 CURVE SMOOTH",
"216 132 OFFCURVE",
"207 154 OFFCURVE",
"207 166 CURVE SMOOTH",
"207 219 LINE SMOOTH",
"207 231 OFFCURVE",
"211 251 OFFCURVE",
"242 251 CURVE SMOOTH",
"384 251 LINE",
"384 349 LINE SMOOTH",
"384 402 OFFCURVE",
"374 433 OFFCURVE",
"351 458 CURVE SMOOTH",
"326 485 OFFCURVE",
"285 502 OFFCURVE",
"241 502 CURVE SMOOTH",
"203 502 OFFCURVE",
"126 489 OFFCURVE",
"100 401 CURVE",
"199 375 LINE",
"204 396 OFFCURVE",
"229 399 OFFCURVE",
"239 399 CURVE SMOOTH",
"260 399 OFFCURVE",
"281 388 OFFCURVE",
"281 353 CURVE",
"30 353 LINE",
"30 251 LINE",
"80 251 LINE",
"72 246 OFFCURVE",
"72 226 OFFCURVE",
"72 219 CURVE SMOOTH",
"72 160 LINE SMOOTH",
"72 58 OFFCURVE",
"149 -8 OFFCURVE",
"245 -8 CURVE SMOOTH"
);
},
{
closed = 1;
nodes = (
"212 602 OFFCURVE",
"262 617 OFFCURVE",
"310 617 CURVE",
"310 755 LINE",
"197 755 OFFCURVE",
"75 678 OFFCURVE",
"75 566 CURVE",
"212 530 LINE"
);
},
{
closed = 1;
nodes = (
"602 202 LINE",
"602 520 LINE SMOOTH",
"602 706 OFFCURVE",
"507 755 OFFCURVE",
"366 755 CURVE",
"366 616 LINE",
"450 616 OFFCURVE",
"461 583 OFFCURVE",
"461 498 CURVE SMOOTH",
"461 202 LINE"
);
}
);
width = 632;
}
);
unicode = 0DA9;
userData = {
com.fontlab.hintData = {
hhints = (
{
position = 0;
width = 40;
},
{
position = 241;
width = 41;
},
{
position = 309;
width = 40;
},
{
position = 715;
width = 40;
}
);
vhints = (
{
position = 74;
width = 42;
},
{
position = 84;
width = 39;
},
{
position = 313;
width = 42;
},
{
position = 552;
width = 42;
}
);
};
};
},
{
glyphname = sinDdha;
lastChange = "2021-06-28 01:55:44 +0000";
layers = (
{
layerId = "DC4431BF-9234-4C16-9154-22D387E42D10";
paths = (
{
closed = 1;
nodes = (
"267 0 OFFCURVE",
"310 21 OFFCURVE",
"334 58 CURVE",
"358 21 OFFCURVE",
"401 0 OFFCURVE",
"453 0 CURVE SMOOTH",
"536 0 OFFCURVE",
"594 52 OFFCURVE",
"594 133 CURVE SMOOTH",
"594 198 LINE",
"552 198 LINE",
"552 139 LINE SMOOTH",
"552 104 OFFCURVE",
"529 40 OFFCURVE",
"453 40 CURVE SMOOTH",
"378 40 OFFCURVE",
"355 104 OFFCURVE",
"355 139 CURVE SMOOTH",
"355 192 LINE",
"313 192 LINE",
"313 139 LINE SMOOTH",
"313 104 OFFCURVE",
"290 40 OFFCURVE",
"215 40 CURVE SMOOTH",
"139 40 OFFCURVE",
"116 104 OFFCURVE",
"116 139 CURVE SMOOTH",
"116 235 LINE SMOOTH",
"116 302 OFFCURVE",
"155 309 OFFCURVE",
"191 309 CURVE SMOOTH",
"355 309 LINE",
"355 354 LINE SMOOTH",
"355 396 OFFCURVE",
"338 427 OFFCURVE",
"312 448 CURVE SMOOTH",
"286 469 OFFCURVE",
"252 479 OFFCURVE",
"219 479 CURVE SMOOTH",
"164 479 OFFCURVE",
"111 452 OFFCURVE",
"97 399 CURVE",
"136 389 LINE",
"150 422 OFFCURVE",
"184 438 OFFCURVE",
"218 438 CURVE SMOOTH",
"266 438 OFFCURVE",
"315 408 OFFCURVE",
"315 349 CURVE",
"30 349 LINE",
"30 309 LINE",
"102 309 LINE",
"81 298 OFFCURVE",
"74 267 OFFCURVE",
"74 235 CURVE SMOOTH",
"74 133 LINE SMOOTH",
"74 52 OFFCURVE",
"132 0 OFFCURVE",
"215 0 CURVE SMOOTH"
);
},
{
closed = 1;
nodes = (
"327 755 LINE",
"327 637 LINE SMOOTH",
"327 541 OFFCURVE",
"380 464 OFFCURVE",
"497 464 CURVE",
"497 504 LINE",
"434 504 OFFCURVE",
"367 537 OFFCURVE",
"367 637 CURVE SMOOTH",
"367 715 LINE",
"368 715 LINE SMOOTH",
"504 715 OFFCURVE",
"552 643 OFFCURVE",
"552 498 CURVE SMOOTH",
"552 258 LINE",
"594 258 LINE",
"594 517 LINE SMOOTH",
"594 700 OFFCURVE",
"497 755 OFFCURVE",
"367 755 CURVE SMOOTH"
);
}
);
width = 624;
},
{
layerId = "4EACF7E3-2421-4EEA-928B-7BA9BC4A845D";
paths = (
{
closed = 1;
nodes = (
"282 -8 OFFCURVE",
"313 2 OFFCURVE",
"339 35 CURVE",
"368 3 OFFCURVE",
"409 -8 OFFCURVE",
"443 -8 CURVE SMOOTH",
"535 -8 OFFCURVE",
"602 58 OFFCURVE",
"602 160 CURVE SMOOTH",
"602 202 LINE",
"462 202 LINE",
"462 166 LINE SMOOTH",
"462 154 OFFCURVE",
"453 132 OFFCURVE",
"422 132 CURVE SMOOTH",
"392 132 OFFCURVE",
"384 153 OFFCURVE",
"384 166 CURVE SMOOTH",
"384 202 LINE",
"284 202 LINE",
"284 166 LINE SMOOTH",
"284 153 OFFCURVE",
"276 132 OFFCURVE",
"246 132 CURVE SMOOTH",
"216 132 OFFCURVE",
"207 154 OFFCURVE",
"207 166 CURVE SMOOTH",
"207 219 LINE SMOOTH",
"207 231 OFFCURVE",
"211 255 OFFCURVE",
"244 255 CURVE SMOOTH",
"384 255 LINE",
"384 349 LINE SMOOTH",
"384 402 OFFCURVE",
"374 433 OFFCURVE",
"351 458 CURVE SMOOTH",
"326 485 OFFCURVE",
"285 502 OFFCURVE",
"241 502 CURVE SMOOTH",
"203 502 OFFCURVE",
"126 489 OFFCURVE",
"100 401 CURVE",
"199 375 LINE",
"204 396 OFFCURVE",
"229 399 OFFCURVE",
"239 399 CURVE SMOOTH",
"260 399 OFFCURVE",
"281 388 OFFCURVE",
"281 353 CURVE",
"30 353 LINE",
"30 251 LINE",
"90 251 LINE",
"80 244 OFFCURVE",
"72 226 OFFCURVE",
"72 189 CURVE SMOOTH",
"72 160 LINE SMOOTH",
"72 58 OFFCURVE",
"149 -8 OFFCURVE",
"245 -8 CURVE SMOOTH"
);
},
{
closed = 1;
nodes = (
"252 755 LINE",
"252 606 LINE SMOOTH",
"252 519 OFFCURVE",
"297 441 OFFCURVE",
"426 441 CURVE",
"426 548 LINE",
"373 548 OFFCURVE",
"367 581 OFFCURVE",
"367 614 CURVE SMOOTH",
"367 629 LINE",
"378 629 LINE SMOOTH",
"446 629 OFFCURVE",
"462 593 OFFCURVE",
"462 508 CURVE SMOOTH",
"462 255 LINE",
"602 255 LINE",
"602 517 LINE SMOOTH",
"602 700 OFFCURVE",
"501 755 OFFCURVE",
"367 755 CURVE SMOOTH"
);
}
);
width = 632;
},
{
associatedMasterId = "4EACF7E3-2421-4EEA-928B-7BA9BC4A845D";
layerId = "B282B8FA-BBDD-4EBE-B117-AFD4F04CC7AB";
name = "27 Jun 21, 16:33";
paths = (
{
closed = 1;
nodes = (
"278.959 -8 OFFCURVE",
"315.108 3.467 OFFCURVE",
"339 35 CURVE",
"367.925 3.467 OFFCURVE",
"409.152 -8 OFFCURVE",
"443 -8 CURVE SMOOTH",
"535.381 -8 OFFCURVE",
"602 58 OFFCURVE",
"602 160 CURVE SMOOTH",
"602 202 LINE",
"462 202 LINE",
"462 166 LINE SMOOTH",
"462 154 OFFCURVE",
"452.769 132 OFFCURVE",
"422 132 CURVE SMOOTH",
"392 132 OFFCURVE",
"384 152.875 OFFCURVE",
"384 166 CURVE SMOOTH",
"384 202 LINE",
"284 202 LINE",
"284 166 LINE SMOOTH",
"284 152.875 OFFCURVE",
"276 132 OFFCURVE",
"246 132 CURVE SMOOTH",
"216 132 OFFCURVE",
"207 154 OFFCURVE",
"207 166 CURVE SMOOTH",
"207 219 LINE",
"207 231 OFFCURVE",
"211.475 251 OFFCURVE",
"242 251 CURVE",
"384 251 LINE",
"384 349 LINE SMOOTH",
"384 404.667 OFFCURVE",
"374.371 430.912 OFFCURVE",
"351 458 CURVE SMOOTH",
"327.607 485.114 OFFCURVE",
"282.907 502 OFFCURVE",
"239 502 CURVE SMOOTH",
"202.592 502 OFFCURVE",
"126.404 488.737 OFFCURVE",
"100 401 CURVE",
"199 375 LINE",
"203.972 396 OFFCURVE",
"229.146 399 OFFCURVE",
"239 399 CURVE SMOOTH",
"259.721 399 OFFCURVE",
"281 388.333 OFFCURVE",
"281 353 CURVE",
"30 353 LINE",
"30 251 LINE",
"80 251 LINE",
"72 246 OFFCURVE",
"72 226 OFFCURVE",
"72 219 CURVE",
"72 160 LINE SMOOTH",
"72 58 OFFCURVE",
"145.768 -8 OFFCURVE",
"251 -8 CURVE SMOOTH"
);
},
{
closed = 1;
nodes = (
"602 202 LINE",
"602 517 LINE SMOOTH",
"602 700 OFFCURVE",
"501.273 755 OFFCURVE",
"367 755 CURVE",
"287 755 LINE",
"287 617 LINE SMOOTH",
"287 544.038 OFFCURVE",
"322.619 473.607 OFFCURVE",
"426 454 CURVE",
"426 540 LINE",
"392.652 547.238 OFFCURVE",
"367 563.071 OFFCURVE",
"367 616 CURVE",
"367 616 LINE",
"445.252 616 OFFCURVE",
"462 577 OFFCURVE",
"462 498 CURVE SMOOTH",
"462 202 LINE"
);
}
);
width = 632;
},
{
associatedMasterId = "DC4431BF-9234-4C16-9154-22D387E42D10";
layerId = "CC32C6AB-D763-434F-B2BF-FBC07299D4A7";
name = "27 Jun 21, 16:33";
paths = (
{
closed = 1;
nodes = (
"267.405 0 OFFCURVE",
"310.069 21.396 OFFCURVE",
"334 57.965 CURVE",
"357.931 21.396 OFFCURVE",
"400.595 0 OFFCURVE",
"453 0 CURVE SMOOTH",
"535.893 0 OFFCURVE",
"594 52.257 OFFCURVE",
"594 133 CURVE SMOOTH",
"594 198 LINE",
"552 198 LINE",
"552 139 LINE SMOOTH",
"552 104.063 OFFCURVE",
"529.154 40 OFFCURVE",
"453 40 CURVE SMOOTH",
"377.846 40 OFFCURVE",
"355 104.059 OFFCURVE",
"355 139 CURVE SMOOTH",
"355 192 LINE",
"313 192 LINE",
"313 139 LINE SMOOTH",
"313 104.059 OFFCURVE",
"290.154 40 OFFCURVE",
"215 40 CURVE SMOOTH",
"138.846 40 OFFCURVE",
"116 104.059 OFFCURVE",
"116 139 CURVE SMOOTH",
"116 235 LINE SMOOTH",
"116 301.575 OFFCURVE",
"154.631 309 OFFCURVE",
"191 309 CURVE SMOOTH",
"355 309 LINE",
"354.932 354 LINE SMOOTH",
"354.968 396.04 OFFCURVE",
"337.707 427.289 OFFCURVE",
"312.041 448.028 CURVE SMOOTH",
"286.375 468.767 OFFCURVE",
"252.305 478.996 OFFCURVE",
"218.724 478.996 CURVE SMOOTH",
"164.095 478.996 OFFCURVE",
"110.76 451.927 OFFCURVE",
"97 399 CURVE",
"136 389 LINE",
"149.99 422.033 OFFCURVE",
"183.821 438.116 OFFCURVE",
"218.351 438.116 CURVE SMOOTH",
"265.87 438.116 OFFCURVE",
"314.714 407.658 OFFCURVE",
"315 349 CURVE",
"30 349 LINE",
"30.025 309 LINE",
"102 309 LINE",
"80.819 297.654 OFFCURVE",
"74 266.714 OFFCURVE",
"74 235 CURVE SMOOTH",
"74 133 LINE SMOOTH",
"74 52.25 OFFCURVE",
"132.107 0 OFFCURVE",
"215 0 CURVE SMOOTH"
);
},
{
closed = 1;
nodes = (
"594 198 LINE",
"594 517 LINE SMOOTH",
"594 700 OFFCURVE",
"496.702 755 OFFCURVE",
"367 755 CURVE SMOOTH",
"327 755 LINE",
"327 637 LINE SMOOTH",
"327 540.655 OFFCURVE",
"380 464 OFFCURVE",
"497 464 CURVE",
"497 504 LINE",
"434.352 504 OFFCURVE",
"367 536.674 OFFCURVE",
"366.95 637 CURVE SMOOTH",
"367 715 LINE",
"504.385 715 OFFCURVE",
"552 643.279 OFFCURVE",
"552 498 CURVE SMOOTH",
"552 198 LINE"
);
}
);
width = 624;
}
);
unicode = 0DAA;
userData = {
com.fontlab.hintData = {
hhints = (
{
position = 0;
width = 40;
},
{
position = 235;
width = 7;
},
{
position = 309;
width = 40;
},
{
position = 450;
width = 41;
},
{
position = 464;
width = 40;
},
{
position = 715;
width = 40;
}
);
vhints = (
{
position = 74;
width = 42;
},
{
position = 313;
width = 42;
},
{
position = 327;
width = 40;
},
{
position = 552;
width = 42;
}
);
};
};
},
{
glyphname = sinNna;
lastChange = "2021-06-28 02:03:10 +0000";
layers = (
{
layerId = "DC4431BF-9234-4C16-9154-22D387E42D10";
paths = (
{
closed = 1;
nodes = (
"66 34 OFFCURVE",
"105 43 OFFCURVE",
"140 43 CURVE SMOOTH",
"205 43 OFFCURVE",
"246 0 OFFCURVE",
"318 0 CURVE SMOOTH",
"374 0 OFFCURVE",
"480 39 OFFCURVE",
"480 176 CURVE SMOOTH",
"480 383 LINE SMOOTH",
"480 431 OFFCURVE",
"479 606 OFFCURVE",
"268 606 CURVE SMOOTH",
"158 606 OFFCURVE",
"56 535 OFFCURVE",
"56 398 CURVE SMOOTH",
"56 275 OFFCURVE",
"139 192 OFFCURVE",
"236 192 CURVE SMOOTH",
"303 193 LINE",
"303 233 LINE",
"257 233 LINE SMOOTH",
"106 233 OFFCURVE",
"96 365 OFFCURVE",
"96 398 CURVE SMOOTH",
"96 434 OFFCURVE",
"114 566 OFFCURVE",
"268 566 CURVE SMOOTH",
"363 566 OFFCURVE",
"439 512 OFFCURVE",
"439 383 CURVE SMOOTH",
"439 176 LINE SMOOTH",
"439 72 OFFCURVE",
"360 41 OFFCURVE",
"317 41 CURVE SMOOTH",
"256 41 OFFCURVE",
"219 85 OFFCURVE",
"140 85 CURVE SMOOTH",
"111 85 OFFCURVE",
"48 82 OFFCURVE",
"10 5 CURVE",
"49 -5 LINE"
);
},
{
closed = 1;
nodes = (
"834 -7 OFFCURVE",
"933 49 OFFCURVE",
"933 160 CURVE SMOOTH",
"933 193 LINE",
"893 193 LINE",
"893 160 LINE SMOOTH",
"893 76 OFFCURVE",
"814 34 OFFCURVE",
"734 34 CURVE SMOOTH",
"655 34 OFFCURVE",
"575 76.007 OFFCURVE",
"575 160 CURVE SMOOTH",
"575 193 LINE",
"535 193 LINE",
"535 160 LINE SMOOTH",
"535 49 OFFCURVE",
"635 -7 OFFCURVE",
"734 -7 CURVE SMOOTH"
);
},
{
closed = 1;
nodes = (
"720 272 LINE",
"720 432 LINE SMOOTH",
"720 492 OFFCURVE",
"763 522 OFFCURVE",
"806 522 CURVE SMOOTH",
"850 522 OFFCURVE",
"893 492 OFFCURVE",
"893 432 CURVE SMOOTH",
"893 242 LINE",
"933 242 LINE",
"933 432 LINE SMOOTH",
"933 520 OFFCURVE",
"870 565 OFFCURVE",
"806 565 CURVE SMOOTH",
"765 565 OFFCURVE",
"724 546 OFFCURVE",
"700 508 CURVE",
"676 546 OFFCURVE",
"635 565 OFFCURVE",
"593 565 CURVE SMOOTH",
"563 565 OFFCURVE",
"533 555 OFFCURVE",
"510 534 CURVE",
"529 495 LINE",
"546 513 OFFCURVE",
"570 522 OFFCURVE",
"593 522 CURVE SMOOTH",
"637 522 OFFCURVE",
"680 492 OFFCURVE",
"680 432 CURVE SMOOTH",
"680 272 LINE"
);
},
{
closed = 1;
nodes = (
"572 774 LINE",
"542 796 LINE",
"368 568 LINE",
"397 544 LINE"
);
}
);
width = 963;
},
{
layerId = "4EACF7E3-2421-4EEA-928B-7BA9BC4A845D";
paths = (
{
closed = 1;
nodes = (
"139 7 OFFCURVE",
"158 27 OFFCURVE",
"194 27 CURVE SMOOTH",
"237 27 OFFCURVE",
"292 0 OFFCURVE",
"349 0 CURVE SMOOTH",
"456 0 OFFCURVE",
"515 94 OFFCURVE",
"515 243 CURVE SMOOTH",
"515 343 LINE SMOOTH",
"515 417 OFFCURVE",
"515 606 OFFCURVE",
"299 606 CURVE SMOOTH",
"166 606 OFFCURVE",
"61 535 OFFCURVE",
"61 398 CURVE SMOOTH",
"61 275 OFFCURVE",
"144 202 OFFCURVE",
"241 202 CURVE SMOOTH",
"318 202 LINE",
"318 336 LINE",
"262 336 LINE SMOOTH",
"220 336 OFFCURVE",
"198 367 OFFCURVE",
"198 400 CURVE SMOOTH",
"198 433 OFFCURVE",
"221 474 OFFCURVE",
"287 474 CURVE SMOOTH",
"384 474 OFFCURVE",
"384 386 OFFCURVE",
"384 343 CURVE SMOOTH",
"384 243 LINE SMOOTH",
"384 154 OFFCURVE",
"356 140 OFFCURVE",
"317 140 CURVE SMOOTH",
"271 140 OFFCURVE",
"217 159 OFFCURVE",
"169 159 CURVE SMOOTH",
"72 159 OFFCURVE",
"20 79 OFFCURVE",
"0 26 CURVE",
"134 -8 LINE"
);
},
{
closed = 1;
nodes = (
"887 -6 OFFCURVE",
"987 56 OFFCURVE",
"987 181 CURVE SMOOTH",
"987 202 LINE",
"848 202 LINE",
"848 185 LINE SMOOTH",
"848 136 OFFCURVE",
"801 126 OFFCURVE",
"770 126 CURVE SMOOTH",
"730 126 OFFCURVE",
"690 143 OFFCURVE",
"690 187 CURVE SMOOTH",
"690 202 LINE",
"550 202 LINE",
"550 164 LINE SMOOTH",
"550 69 OFFCURVE",
"625 -6 OFFCURVE",
"762 -6 CURVE SMOOTH"
);
},
{
closed = 1;
nodes = (
"775 281 LINE",
"775 372 LINE SMOOTH",
"775 396.998 OFFCURVE",
"782 420 OFFCURVE",
"813 420 CURVE SMOOTH",
"848 420 OFFCURVE",
"848 391 OFFCURVE",
"848 372 CURVE SMOOTH",
"848 251 LINE",
"987 251 LINE",
"987 405 LINE SMOOTH",
"987 513 OFFCURVE",
"919 563 OFFCURVE",
"826 563 CURVE SMOOTH",
"768 563 OFFCURVE",
"734 543 OFFCURVE",
"713 522 CURVE",
"694 543 OFFCURVE",
"664 563 OFFCURVE",
"617 563 CURVE SMOOTH",
"563 563 OFFCURVE",
"533 538 OFFCURVE",
"529 532 CURVE",
"569 407 LINE",
"572 411 OFFCURVE",
"578 421 OFFCURVE",
"598 421 CURVE SMOOTH",
"622 421 OFFCURVE",
"641 406 OFFCURVE",
"641 350 CURVE SMOOTH",
"641 281 LINE"
);
},
{
closed = 1;
nodes = (
"610 761 LINE",
"503 837 LINE",
"259 522 LINE",
"391 470 LINE"
);
}
);
width = 1017;
},
{
associatedMasterId = "DC4431BF-9234-4C16-9154-22D387E42D10";
layerId = "0BF3DC5D-5254-4213-8D04-89CF5ECE374B";
name = "27 Jun 21, 13:47";
paths = (
{
closed = 1;
nodes = (
"66 34 OFFCURVE",
"104.717 43.357 OFFCURVE",
"140.294 43.357 CURVE SMOOTH",
"205.196 43.357 OFFCURVE",
"246.229 0.199 OFFCURVE",
"318.145 0.199 CURVE SMOOTH",
"374.319 0.199 OFFCURVE",
"480 39 OFFCURVE",
"480 176 CURVE SMOOTH",
"480.075 383 LINE SMOOTH",
"480 431 OFFCURVE",
"478.698 606 OFFCURVE",
"268 606 CURVE SMOOTH",
"158 606 OFFCURVE",
"56 535 OFFCURVE",
"56 398 CURVE SMOOTH",
"56 275.274 OFFCURVE",
"139 192 OFFCURVE",
"236.25 192.459 CURVE SMOOTH",
"303 192.5 LINE",
"303 232.5 LINE",
"257 232.5 LINE SMOOTH",
"105.839 232.5 OFFCURVE",
"96 365.455 OFFCURVE",
"96 398 CURVE SMOOTH",
"96 434.254 OFFCURVE",
"114.17 566 OFFCURVE",
"268 566 CURVE SMOOTH",
"363.322 566 OFFCURVE",
"439 511.834 OFFCURVE",
"439 383 CURVE SMOOTH",
"439 176 LINE SMOOTH",
"439 71.5 OFFCURVE",
"359.779 40.662 OFFCURVE",
"317.312 40.662 CURVE SMOOTH",
"256.148 40.662 OFFCURVE",
"218.58 84.625 OFFCURVE",
"140.294 84.625 CURVE SMOOTH",
"110.746 84.625 OFFCURVE",
"48 82 OFFCURVE",
"10 5 CURVE",
"49 -5 LINE"
);
},
{
closed = 1;
nodes = (
"833.657 -6.604 OFFCURVE",
"933 48.948 OFFCURVE",
"933 160 CURVE SMOOTH",
"933 192.5 LINE",
"893 192.5 LINE",
"893 160 LINE SMOOTH",
"893 75.871 OFFCURVE",
"813.628 33.789 OFFCURVE",
"734.192 33.789 CURVE SMOOTH",
"654.628 33.789 OFFCURVE",
"575 76.007 OFFCURVE",
"575 160 CURVE SMOOTH",
"575 192.5 LINE",
"535 192.5 LINE",
"535 160 LINE SMOOTH",
"535 49.123 OFFCURVE",
"634.657 -6.604 OFFCURVE",
"734.236 -6.604 CURVE SMOOTH"
);
},
{
closed = 1;
nodes = (
"720 272 LINE",
"720 432 LINE SMOOTH",
"720 491.987 OFFCURVE",
"763.199 521.93 OFFCURVE",
"806.423 521.93 CURVE SMOOTH",
"849.699 521.93 OFFCURVE",
"893 491.916 OFFCURVE",
"893 432 CURVE SMOOTH",
"893 241.5 LINE",
"933 241.5 LINE",
"933 432 LINE SMOOTH",
"933 520.373 OFFCURVE",
"869.69 564.625 OFFCURVE",
"806.41 564.625 CURVE SMOOTH",
"765.002 564.625 OFFCURVE",
"723.606 545.677 OFFCURVE",
"699.971 507.745 CURVE",
"676.292 545.653 OFFCURVE",
"634.845 564.625 OFFCURVE",
"593.41 564.625 CURVE SMOOTH",
"563.184 564.625 OFFCURVE",
"532.965 554.529 OFFCURVE",
"509.655 534.323 CURVE",
"529.474 494.92 LINE",
"546.041 512.933 OFFCURVE",
"569.728 521.93 OFFCURVE",
"593.423 521.93 CURVE SMOOTH",
"636.698 521.93 OFFCURVE",
"680 491.916 OFFCURVE",
"680 432 CURVE SMOOTH",
"680 272 LINE"
);
},
{
closed = 1;
nodes = (
"562 772 LINE",
"516 784 LINE",
"362.277 581 LINE",
"390.999 546 LINE"
);
}
);
visible = 1;
width = 963;
},
{
associatedMasterId = "4EACF7E3-2421-4EEA-928B-7BA9BC4A845D";
layerId = "F3610F2F-3E00-4DE4-9D1E-8DA472CD333D";
name = "27 Jun 21, 13:47";
paths = (
{
closed = 1;
nodes = (
"134 -8 OFFCURVE",
"146 27 OFFCURVE",
"191 27 CURVE SMOOTH",
"236 27 OFFCURVE",
"299 0 OFFCURVE",
"342 0 CURVE SMOOTH",
"460 0 OFFCURVE",
"515 95 OFFCURVE",
"515 243 CURVE",
"515.075 343 LINE",
"515.075 470.731 OFFCURVE",
"493.698 606 OFFCURVE",
"283 606 CURVE SMOOTH",
"173 606 OFFCURVE",
"61 535 OFFCURVE",
"61 398 CURVE SMOOTH",
"61 275.274 OFFCURVE",
"144.378 201.959 OFFCURVE",
"241.25 201.959 CURVE",
"318 202 LINE",
"318 336 LINE",
"262 336 LINE",
"219.839 336 OFFCURVE",
"197.708 366.881 OFFCURVE",
"197.708 399.426 CURVE SMOOTH",
"197.708 435.68 OFFCURVE",
"225.17 474 OFFCURVE",
"283 474 CURVE SMOOTH",
"378.322 474 OFFCURVE",
"384 401.834 OFFCURVE",
"384 343 CURVE SMOOTH",
"384 243 LINE SMOOTH",
"384 153.446 OFFCURVE",
"355.871 139.727 OFFCURVE",
"313.302 139.727 CURVE SMOOTH",
"273.202 139.727 OFFCURVE",
"220.287 159 OFFCURVE",
"166 159 CURVE SMOOTH",
"73 159 OFFCURVE",
"18.247 76.468 OFFCURVE",
"0 26 CURVE",
"134 -8 LINE"
);
},
{
closed = 1;
nodes = (
"885 -6 OFFCURVE",
"987 56 OFFCURVE",
"987 181 CURVE SMOOTH",
"987 202 LINE",
"848 202 LINE",
"848 185 LINE SMOOTH",
"848 136 OFFCURVE",
"802 126 OFFCURVE",
"767 126 CURVE SMOOTH",
"734 126 OFFCURVE",
"690 141 OFFCURVE",
"690 187 CURVE SMOOTH",
"690 202 LINE",
"550 202 LINE",
"550 164 LINE SMOOTH",
"550 69 OFFCURVE",
"623 -6 OFFCURVE",
"768 -6 CURVE SMOOTH"
);
},
{
closed = 1;
nodes = (
"775 281 LINE",
"775 372 LINE SMOOTH",
"775 396.998 OFFCURVE",
"781.983 420 OFFCURVE",
"812 420 CURVE SMOOTH",
"845 420 OFFCURVE",
"848 397 OFFCURVE",
"848 372 CURVE SMOOTH",
"848 251 LINE",
"987 251 LINE",
"987 405 LINE SMOOTH",
"987 513 OFFCURVE",
"920.132 563 OFFCURVE",
"822 563 CURVE SMOOTH",
"769 563 OFFCURVE",
"734 543 OFFCURVE",
"713 522 CURVE",
"694 543 OFFCURVE",
"664 563 OFFCURVE",
"619 563 CURVE SMOOTH",
"562 563 OFFCURVE",
"533 538 OFFCURVE",
"529 532 CURVE",
"569 407 LINE",
"573 412 OFFCURVE",
"576 421 OFFCURVE",
"602 421 CURVE SMOOTH",
"622.025 421 OFFCURVE",
"641 404 OFFCURVE",
"641 350 CURVE",
"640 281 LINE"
);
},
{
closed = 1;
nodes = (
"641 755 LINE",
"495.721 793 LINE",
"290 522 LINE",
"396 433 LINE"
);
}
);
width = 1017;
}
);
unicode = 0DAB;
},
{
glyphname = sinNndda;
lastChange = "2021-06-28 01:55:44 +0000";
layers = (
{
layerId = "DC4431BF-9234-4C16-9154-22D387E42D10";
paths = (
{
closed = 1;
nodes = (
"371 0 OFFCURVE",
"414 21 OFFCURVE",
"438 58 CURVE",
"462 21 OFFCURVE",
"505 0 OFFCURVE",
"557 0 CURVE SMOOTH",
"640 0 OFFCURVE",
"698 52 OFFCURVE",
"698 133 CURVE SMOOTH",
"698 282 LINE",
"656 282 LINE",
"656 139 LINE SMOOTH",
"656 104 OFFCURVE",
"633 40 OFFCURVE",
"557 40 CURVE SMOOTH",
"482 40 OFFCURVE",
"459 104 OFFCURVE",
"459 139 CURVE SMOOTH",
"459 192 LINE",
"417 192 LINE",
"417 139 LINE SMOOTH",
"417 104 OFFCURVE",
"394 40 OFFCURVE",
"319 40 CURVE SMOOTH",
"243 40 OFFCURVE",
"220 104 OFFCURVE",
"220 139 CURVE SMOOTH",
"220 235 LINE SMOOTH",
"220 302 OFFCURVE",
"259 309 OFFCURVE",
"295 309 CURVE SMOOTH",
"459 309 LINE",
"459 354 LINE SMOOTH",
"459 438 OFFCURVE",
"390 479 OFFCURVE",
"323 479 CURVE SMOOTH",
"268 479 OFFCURVE",
"215 452 OFFCURVE",
"201 399 CURVE",
"240 389 LINE",
"254 422 OFFCURVE",
"288 438 OFFCURVE",
"322 438 CURVE SMOOTH",
"370 438 OFFCURVE",
"419 408 OFFCURVE",
"419 349 CURVE",
"134 349 LINE",
"134 309 LINE",
"206 309 LINE",
"185 298 OFFCURVE",
"178 267 OFFCURVE",
"178 235 CURVE SMOOTH",
"178 133 LINE SMOOTH",
"178 52 OFFCURVE",
"236 0 OFFCURVE",
"319 0 CURVE SMOOTH"
);
},
{
closed = 1;
nodes = (
"125 8 LINE",
"75 67 OFFCURVE",
"70 107 OFFCURVE",
"70 159 CURVE SMOOTH",
"70 290 LINE SMOOTH",
"70 338 OFFCURVE",
"89 403 OFFCURVE",
"167 403 CURVE SMOOTH",
"185 403 OFFCURVE",
"205 399 OFFCURVE",
"229 392 CURVE",
"246 429 LINE",
"218 440 OFFCURVE",
"191 445 OFFCURVE",
"166 445 CURVE SMOOTH",
"87 445 OFFCURVE",
"30 393 OFFCURVE",
"30 290 CURVE SMOOTH",
"30 163 LINE SMOOTH",
"30 100 OFFCURVE",
"34 55 OFFCURVE",
"83 -8 CURVE"
);
},
{
closed = 1;
nodes = (
"227 651 OFFCURVE",
"317 715 OFFCURVE",
"410 715 CURVE",
"410 755 LINE",
"306 755 OFFCURVE",
"188 681 OFFCURVE",
"188 563 CURVE",
"227 553 LINE"
);
},
{
closed = 1;
nodes = (
"698 241 LINE",
"698 514 LINE SMOOTH",
"698 675 OFFCURVE",
"630 755 OFFCURVE",
"466 755 CURVE",
"466 715 LINE",
"584 715 OFFCURVE",
"656 666 OFFCURVE",
"656 514 CURVE SMOOTH",
"656 241 LINE"
);
}
);
width = 728;
},
{
layerId = "4EACF7E3-2421-4EEA-928B-7BA9BC4A845D";
paths = (
{
closed = 1;
nodes = (
"439 -8 OFFCURVE",
"470 2 OFFCURVE",
"496 35 CURVE",
"525 3 OFFCURVE",
"566 -8 OFFCURVE",
"600 -8 CURVE SMOOTH",
"692 -8 OFFCURVE",
"759 58 OFFCURVE",
"759 160 CURVE SMOOTH",
"759 202 LINE",
"618 202 LINE",
"618 166 LINE SMOOTH",
"618 154 OFFCURVE",
"609 132 OFFCURVE",
"579 132 CURVE SMOOTH",
"549 132 OFFCURVE",
"541 153 OFFCURVE",
"541 166 CURVE SMOOTH",
"541 202 LINE",
"441 202 LINE",
"441 166 LINE SMOOTH",
"441 153 OFFCURVE",
"433 132 OFFCURVE",
"403 132 CURVE SMOOTH",
"373 132 OFFCURVE",
"364 154 OFFCURVE",
"364 166 CURVE SMOOTH",
"364 199 LINE SMOOTH",
"364 211 OFFCURVE",
"368 231 OFFCURVE",
"399 231 CURVE SMOOTH",
"541 231 LINE",
"541 329 LINE SMOOTH",
"541 416 OFFCURVE",
"493 502 OFFCURVE",
"376 502 CURVE SMOOTH",
"319 502 OFFCURVE",
"243 482 OFFCURVE",
"217 401 CURVE",
"316 361 LINE",
"335 382 OFFCURVE",
"347 385 OFFCURVE",
"362 385 CURVE SMOOTH",
"400 385 OFFCURVE",
"423 368 OFFCURVE",
"423 333 CURVE",
"207 333 LINE",
"207 231 LINE",
"237 231 LINE",
"229 226 OFFCURVE",
"229 206 OFFCURVE",
"229 199 CURVE SMOOTH",
"229 160 LINE SMOOTH",
"229 58 OFFCURVE",
"306 -8 OFFCURVE",
"402 -8 CURVE SMOOTH"
);
},
{
closed = 1;
nodes = (
"233 12 LINE",
"169 89 OFFCURVE",
"158 129 OFFCURVE",
"158 210 CURVE SMOOTH",
"158 247 LINE SMOOTH",
"158 353 OFFCURVE",
"205 379 OFFCURVE",
"248 379 CURVE SMOOTH",
"265 379 OFFCURVE",
"282 375 OFFCURVE",
"316 361 CURVE",
"316 492 LINE",
"291 501 OFFCURVE",
"266 505 OFFCURVE",
"241 505 CURVE SMOOTH",
"129 505 OFFCURVE",
"30 415 OFFCURVE",
"30 277 CURVE SMOOTH",
"30 210 LINE SMOOTH",
"30 119 OFFCURVE",
"43 49 OFFCURVE",
"103 -28 CURVE"
);
},
{
closed = 1;
nodes = (
"369 602 OFFCURVE",
"419 617 OFFCURVE",
"467 617 CURVE",
"467 755 LINE",
"354 755 OFFCURVE",
"232 678 OFFCURVE",
"232 566 CURVE",
"369 530 LINE"
);
},
{
closed = 1;
nodes = (
"759 202 LINE",
"759 520 LINE SMOOTH",
"759 706 OFFCURVE",
"664 755 OFFCURVE",
"523 755 CURVE",
"523 616 LINE",
"607 616 OFFCURVE",
"618 583 OFFCURVE",
"618 498 CURVE SMOOTH",
"618 202 LINE"
);
}
);
width = 789;
}
);
unicode = 0DAC;
},
{
glyphname = sinTa;
lastChange = "2021-06-28 01:55:44 +0000";
layers = (
{
layerId = "DC4431BF-9234-4C16-9154-22D387E42D10";
paths = (
{
closed = 1;
nodes = (
"693 -1 OFFCURVE",
"730 66 OFFCURVE",
"730 192 CURVE SMOOTH",
"730 314 LINE SMOOTH",
"730 485 OFFCURVE",
"624 560 OFFCURVE",
"508 560 CURVE SMOOTH",
"443 560 OFFCURVE",
"375 537 OFFCURVE",
"320 494 CURVE",
"30 246 LINE",
"30 196 LINE",
"69 225 LINE",
"349 466 LINE SMOOTH",
"392 502 OFFCURVE",
"447 521 OFFCURVE",
"499 521 CURVE SMOOTH",
"598 521 OFFCURVE",
"690 454 OFFCURVE",
"690 314 CURVE SMOOTH",
"690 192 LINE SMOOTH",
"690 48 OFFCURVE",
"616 39 OFFCURVE",
"554 39 CURVE",
"554 -1 LINE"
);
},
{
closed = 1;
nodes = (
"446 -4 OFFCURVE",
"508 81 OFFCURVE",
"508 189 CURVE SMOOTH",
"508 280 OFFCURVE",
"494 373 OFFCURVE",
"362 403 CURVE",
"325 371 LINE",
"460 342 OFFCURVE",
"468 275 OFFCURVE",
"468 189 CURVE SMOOTH",
"468 105 OFFCURVE",
"417 36 OFFCURVE",
"314 36 CURVE SMOOTH",
"100 36 OFFCURVE",
"149 235 OFFCURVE",
"61 235 CURVE SMOOTH",
"58 235 OFFCURVE",
"54 235 OFFCURVE",
"50 234 CURVE",
"30 196 LINE",
"34 197 OFFCURVE",
"38 198 OFFCURVE",
"43 198 CURVE SMOOTH",
"80 198 OFFCURVE",
"87 147 OFFCURVE",
"116 97 CURVE SMOOTH",
"144 46 OFFCURVE",
"193 -4 OFFCURVE",
"314 -4 CURVE SMOOTH"
);
},
{
closed = 1;
nodes = (
"127 498 OFFCURVE",
"171 521 OFFCURVE",
"213 521 CURVE SMOOTH",
"262 521 OFFCURVE",
"308 491 OFFCURVE",
"321 445 CURVE",
"352 473 LINE",
"337 527 OFFCURVE",
"277 565 OFFCURVE",
"214 565 CURVE SMOOTH",
"156 565 OFFCURVE",
"96 533 OFFCURVE",
"65 452 CURVE",
"104 440 LINE"
);
}
);
width = 760;
},
{
layerId = "4EACF7E3-2421-4EEA-928B-7BA9BC4A845D";
paths = (
{
closed = 1;
nodes = (
"684 -1 OFFCURVE",
"740 89 OFFCURVE",
"740 205 CURVE SMOOTH",
"740 321 LINE SMOOTH",
"740 485 OFFCURVE",
"625 568 OFFCURVE",
"499 568 CURVE SMOOTH",
"412 568 OFFCURVE",
"363 530 OFFCURVE",
"301 480 CURVE SMOOTH",
"30 259 LINE",
"30 154 LINE",
"155 188 LINE",
"425 401 LINE SMOOTH",
"447 418 OFFCURVE",
"471 425 OFFCURVE",
"494 425 CURVE SMOOTH",
"550 425 OFFCURVE",
"600 383 OFFCURVE",
"600 307 CURVE SMOOTH",
"600 205 LINE SMOOTH",
"600 181 OFFCURVE",
"596 142 OFFCURVE",
"544 142 CURVE",
"544 -1 LINE"
);
},
{
closed = 1;
nodes = (
"413 -8 OFFCURVE",
"504 70 OFFCURVE",
"504 191 CURVE SMOOTH",
"504 238 OFFCURVE",
"490 308 OFFCURVE",
"421 338 CURVE",
"324 260 LINE",
"360 245 OFFCURVE",
"373 221 OFFCURVE",
"373 196 CURVE SMOOTH",
"373 153 OFFCURVE",
"334 127 OFFCURVE",
"292 127 CURVE SMOOTH",
"199 127 OFFCURVE",
"202 255 OFFCURVE",
"111 255 CURVE SMOOTH",
"100 255 OFFCURVE",
"88 253 OFFCURVE",
"74 249 CURVE",
"30 154 LINE",
"36 155 OFFCURVE",
"42 156 OFFCURVE",
"47 156 CURVE SMOOTH",
"79 156 OFFCURVE",
"93 127 OFFCURVE",
"111 101 CURVE SMOOTH",
"163 25 OFFCURVE",
"231 -8 OFFCURVE",
"303 -8 CURVE SMOOTH"
);
},
{
closed = 1;
nodes = (
"154 425 OFFCURVE",
"174 446 OFFCURVE",
"203 446 CURVE SMOOTH",
"223 446 OFFCURVE",
"252 436 OFFCURVE",
"252 402 CURVE",
"344 507 LINE",
"337 524 OFFCURVE",
"274 567 OFFCURVE",
"205 567 CURVE SMOOTH",
"144 567 OFFCURVE",
"51 537 OFFCURVE",
"37 439 CURVE",
"154 402 LINE"
);
}
);
width = 771;
}
);
unicode = 0DAD;
userData = {
com.fontlab.hintData = {
hhints = (
{
position = -1;
width = 40;
},
{
position = 371;
width = 32;
}
);
vhints = (
{
position = 468;
width = 40;
},
{
position = 690;
width = 40;
}
);
};
};
},
{
glyphname = sinTha;
lastChange = "2021-06-28 01:55:44 +0000";
layers = (
{
layerId = "DC4431BF-9234-4C16-9154-22D387E42D10";
paths = (
{
closed = 1;
nodes = (
"233 40 LINE",
"132 40 OFFCURVE",
"72 112 OFFCURVE",
"71 200 CURVE SMOOTH",
"71 270 LINE SMOOTH",
"70 376 OFFCURVE",
"121 430 OFFCURVE",
"212 430 CURVE SMOOTH",
"233 430 LINE",
"233 470 LINE",
"212 470 LINE SMOOTH",
"73 470 OFFCURVE",
"29 373 OFFCURVE",
"30 270 CURVE SMOOTH",
"30 200 LINE SMOOTH",
"31 116 OFFCURVE",
"84 0 OFFCURVE",
"233 0 CURVE"
);
},
{
closed = 1;
nodes = (
"448 0 OFFCURVE",
"514 84 OFFCURVE",
"514 241 CURVE",
"472 241 LINE",
"472 95 OFFCURVE",
"402 40 OFFCURVE",
"289 40 CURVE",
"289 0 LINE"
);
},
{
closed = 1;
nodes = (
"247 755 LINE",
"247 637 LINE SMOOTH",
"247 541 OFFCURVE",
"300 464 OFFCURVE",
"417 464 CURVE",
"417 504 LINE",
"354 504 OFFCURVE",
"287 537 OFFCURVE",
"287 637 CURVE SMOOTH",
"287 715 LINE",
"288 715 LINE SMOOTH",
"424 715 OFFCURVE",
"472 643 OFFCURVE",
"472 498 CURVE SMOOTH",
"472 241 LINE",
"514 241 LINE",
"514 517 LINE SMOOTH",
"514 700 OFFCURVE",
"417 755 OFFCURVE",
"287 755 CURVE SMOOTH"
);
}
);
width = 544;
},
{
layerId = "4EACF7E3-2421-4EEA-928B-7BA9BC4A845D";
paths = (
{
closed = 1;
nodes = (
"247 140 LINE",
"199 140 OFFCURVE",
"168 163 OFFCURVE",
"168 214 CURVE SMOOTH",
"168 236 LINE SMOOTH",
"168 290 OFFCURVE",
"194 306 OFFCURVE",
"228 306 CURVE SMOOTH",
"241 306 LINE",
"241 444 LINE",
"222 444 LINE SMOOTH",
"48 444 OFFCURVE",
"30 323 OFFCURVE",
"30 255 CURVE SMOOTH",
"30 191 LINE SMOOTH",
"30 101 OFFCURVE",
"103 -5 OFFCURVE",
"247 -5 CURVE"
);
},
{
closed = 1;
nodes = (
"457 -5 OFFCURVE",
"531 78 OFFCURVE",
"531 250 CURVE",
"391 250 LINE",
"391 154 OFFCURVE",
"344 140 OFFCURVE",
"302 140 CURVE",
"302 -5 LINE"
);
},
{
closed = 1;
nodes = (
"175 755 LINE",
"175 606 LINE SMOOTH",
"175 519 OFFCURVE",
"226 441 OFFCURVE",
"355 441 CURVE",
"355 548 LINE",
"302 548 OFFCURVE",
"296 581 OFFCURVE",
"296 614 CURVE SMOOTH",
"296 629 LINE",
"307 629 LINE SMOOTH",
"375 629 OFFCURVE",
"391 593 OFFCURVE",
"391 508 CURVE SMOOTH",
"391 250 LINE",
"531 250 LINE",
"531 517 LINE SMOOTH",
"531 700 OFFCURVE",
"430 755 OFFCURVE",
"296 755 CURVE SMOOTH"
);
}
);
width = 561;
},
{
associatedMasterId = "4EACF7E3-2421-4EEA-928B-7BA9BC4A845D";
layerId = "05F284D4-ADB6-4EFF-9266-A08228CA5D41";
name = "27 Jun 21, 16:34";
paths = (
{
closed = 1;
nodes = (
"241 140 LINE",
"189 140 OFFCURVE",
"168 185 OFFCURVE",
"168 222 CURVE SMOOTH",
"168 262 LINE SMOOTH",
"168 322 OFFCURVE",
"201 336 OFFCURVE",
"241 336 CURVE",
"241 474 LINE",
"45 474 OFFCURVE",
"30 344 OFFCURVE",
"30 262 CURVE SMOOTH",
"30 208 LINE SMOOTH",
"30 117 OFFCURVE",
"97 -5 OFFCURVE",
"241 -5 CURVE"
);
},
{
closed = 1;
nodes = (
"451 -5 OFFCURVE",
"531 78 OFFCURVE",
"531 250 CURVE",
"391 250 LINE",
"391 154 OFFCURVE",
"338 140 OFFCURVE",
"296 140 CURVE",
"296 -5 LINE"
);
},
{
closed = 1;
nodes = (
"531 250 LINE",
"531 517 LINE SMOOTH",
"531 700 OFFCURVE",
"430 755 OFFCURVE",
"296 755 CURVE SMOOTH",
"216 755 LINE",
"216 617 LINE SMOOTH",
"216 544 OFFCURVE",
"252 474 OFFCURVE",
"355 454 CURVE",
"355 540 LINE",
"322 547 OFFCURVE",
"296 564 OFFCURVE",
"296 604 CURVE SMOOTH",
"296 616 LINE",
"374 616 OFFCURVE",
"391 577 OFFCURVE",
"391 498 CURVE SMOOTH",
"391 250 LINE"
);
}
);
width = 561;
},
{
associatedMasterId = "DC4431BF-9234-4C16-9154-22D387E42D10";
layerId = "F4EFF379-C860-4407-ADB5-DB458D6F90AA";
name = "27 Jun 21, 16:34";
paths = (
{
closed = 1;
nodes = (
"233 40.069 LINE",
"132.265 40.004 OFFCURVE",
"71.375 112 OFFCURVE",
"71.375 200 CURVE SMOOTH",
"71.375 270 LINE SMOOTH",
"71.375 357.23 OFFCURVE",
"121.341 429.996 OFFCURVE",
"233 429.931 CURVE",
"233 470 LINE",
"73.035 470 OFFCURVE",
"30.374 354.561 OFFCURVE",
"30.374 270 CURVE SMOOTH",
"30.375 200 LINE SMOOTH",
"30.375 116 OFFCURVE",
"83.759 0 OFFCURVE",
"233 0 CURVE"
);
},
{
closed = 1;
nodes = (
"448.37 0 OFFCURVE",
"514 83.963 OFFCURVE",
"514 241 CURVE",
"472 241 LINE",
"472 95.285 OFFCURVE",
"402.056 40 OFFCURVE",
"289 40 CURVE",
"289 0 LINE"
);
},
{
closed = 1;
nodes = (
"514 241 LINE",
"514 517 LINE SMOOTH",
"514 700 OFFCURVE",
"416.702 755 OFFCURVE",
"287 755 CURVE SMOOTH",
"247 755 LINE",
"247 637 LINE SMOOTH",
"247 540.655 OFFCURVE",
"300 464 OFFCURVE",
"417 464 CURVE",
"417 504 LINE",
"354.352 504 OFFCURVE",
"287 536.674 OFFCURVE",
"286.95 637 CURVE",
"287 715 LINE",
"424.385 715 OFFCURVE",
"472 643.279 OFFCURVE",
"472 498 CURVE SMOOTH",
"472 241 LINE"
);
}
);
width = 544;
}
);
unicode = 0DAE;
userData = {
com.fontlab.hintData = {
hhints = (
{
position = 0;
width = 40;
},
{
position = 235;
width = 6;
},
{
position = 430;
width = 40;
},
{
position = 464;
width = 40;
},
{
position = 715;
width = 40;
}
);
vhints = (
{
position = 34;
width = 41;
},
{
position = 251;
width = 40;
},
{
position = 476;
width = 42;
}
);
};
};
},
{
glyphname = sinDa;
lastChange = "2021-06-28 01:55:44 +0000";
layers = (
{
layerId = "DC4431BF-9234-4C16-9154-22D387E42D10";
paths = (
{
closed = 1;
nodes = (
"296 0 LINE SMOOTH",
"353 0 OFFCURVE",
"456 22 OFFCURVE",
"498 138 CURVE",
"461 148 LINE",
"427 75 OFFCURVE",
"367 40 OFFCURVE",
"296 40 CURVE SMOOTH",
"257 40 LINE SMOOTH",
"133 40 OFFCURVE",
"72 108 OFFCURVE",
"72 199 CURVE SMOOTH",
"72 293 OFFCURVE",
"130 362 OFFCURVE",
"246 362 CURVE SMOOTH",
"432 362 LINE",
"432 389 LINE SMOOTH",
"432 519 OFFCURVE",
"339 579 OFFCURVE",
"241 579 CURVE SMOOTH",
"163 579 OFFCURVE",
"89 536 OFFCURVE",
"68 456 CURVE",
"107 443 LINE",
"124 505 OFFCURVE",
"182 538 OFFCURVE",
"243 538 CURVE SMOOTH",
"320 538 OFFCURVE",
"392 493 OFFCURVE",
"392 402 CURVE",
"256 402 LINE SMOOTH",
"125 402 OFFCURVE",
"30 335 OFFCURVE",
"30 199 CURVE SMOOTH",
"30 60 OFFCURVE",
"137 0 OFFCURVE",
"257 0 CURVE SMOOTH"
);
},
{
closed = 1;
nodes = (
"437 -204 OFFCURVE",
"514 -161 OFFCURVE",
"532 -76 CURVE",
"493 -66 LINE",
"477 -134 OFFCURVE",
"421 -164 OFFCURVE",
"365 -164 CURVE SMOOTH",
"299 -164 OFFCURVE",
"233 -121 OFFCURVE",
"233 -45 CURVE",
"193 -45 LINE",
"193 -151 OFFCURVE",
"276 -204 OFFCURVE",
"361 -204 CURVE SMOOTH"
);
}
);
width = 532;
},
{
layerId = "4EACF7E3-2421-4EEA-928B-7BA9BC4A845D";
paths = (
{
closed = 1;
nodes = (
"294 0 LINE SMOOTH",
"387 0 OFFCURVE",
"472 52 OFFCURVE",
"497 138 CURVE",
"369 172 LINE",
"356 140 OFFCURVE",
"327 136 OFFCURVE",
"294 136 CURVE SMOOTH",
"257 136 LINE SMOOTH",
"218 136 OFFCURVE",
"173 146 OFFCURVE",
"173 201 CURVE SMOOTH",
"173 263 OFFCURVE",
"232 263 OFFCURVE",
"256 263 CURVE SMOOTH",
"442 263 LINE",
"442 399 LINE SMOOTH",
"442 518 OFFCURVE",
"339 578 OFFCURVE",
"239 578 CURVE SMOOTH",
"158 578 OFFCURVE",
"79 539 OFFCURVE",
"58 459 CURVE",
"176 420 LINE",
"183 444 OFFCURVE",
"214 457 OFFCURVE",
"244 457 CURVE SMOOTH",
"279 457 OFFCURVE",
"313 440.006 OFFCURVE",
"313 402 CURVE",
"256 402 LINE SMOOTH",
"123 402 OFFCURVE",
"30 333 OFFCURVE",
"30 200 CURVE SMOOTH",
"30 58 OFFCURVE",
"137 0 OFFCURVE",
"257 0 CURVE SMOOTH"
);
},
{
closed = 1;
nodes = (
"475 -204 OFFCURVE",
"530 -148 OFFCURVE",
"552 -81 CURVE",
"419 -47 LINE",
"414 -67 OFFCURVE",
"390 -78 OFFCURVE",
"369 -78 CURVE SMOOTH",
"340 -78 OFFCURVE",
"320 -61 OFFCURVE",
"320 -45 CURVE",
"183 -45 LINE",
"183 -136 OFFCURVE",
"249.999 -204 OFFCURVE",
"369 -204 CURVE SMOOTH"
);
}
);
width = 552;
}
);
unicode = 0DAF;
userData = {
com.fontlab.hintData = {
hhints = (
{
position = -204;
width = 126;
},
{
position = 0;
width = 136;
},
{
position = 263;
width = 135;
},
{
position = 454;
width = 121;
}
);
vhints = (
{
position = 32;
width = 143;
}
);
};
};
},
{
glyphname = sinDha;
lastChange = "2021-06-28 01:55:44 +0000";
layers = (
{
layerId = "DC4431BF-9234-4C16-9154-22D387E42D10";
paths = (
{
closed = 1;
nodes = (
"223 0 OFFCURVE",
"266 21 OFFCURVE",
"290 58 CURVE",
"314 21 OFFCURVE",
"357 0 OFFCURVE",
"409 0 CURVE SMOOTH",
"492 0 OFFCURVE",
"550 52 OFFCURVE",
"550 133 CURVE SMOOTH",
"550 200 LINE",
"508 200 LINE",
"508 139 LINE SMOOTH",
"508 104 OFFCURVE",
"485 40 OFFCURVE",
"409 40 CURVE SMOOTH",
"334 40 OFFCURVE",
"311 104 OFFCURVE",
"311 139 CURVE SMOOTH",
"311 192 LINE",
"269 192 LINE",
"269 139 LINE SMOOTH",
"269 104 OFFCURVE",
"246 40 OFFCURVE",
"171 40 CURVE SMOOTH",
"95 40 OFFCURVE",
"72 104 OFFCURVE",
"72 139 CURVE SMOOTH",
"72 301 LINE SMOOTH",
"72 336 OFFCURVE",
"85 440 OFFCURVE",
"211 440 CURVE SMOOTH",
"250 440 LINE",
"250 480 LINE",
"211 480 LINE SMOOTH",
"78 480 OFFCURVE",
"30 388 OFFCURVE",
"30 307 CURVE SMOOTH",
"30 133 LINE SMOOTH",
"30 52 OFFCURVE",
"88 0 OFFCURVE",
"171 0 CURVE SMOOTH"
);
},
{
closed = 1;
nodes = (
"79 651 OFFCURVE",
"169 715 OFFCURVE",
"262 715 CURVE",
"262 755 LINE",
"158 755 OFFCURVE",
"40 681 OFFCURVE",
"40 563 CURVE",
"79 553 LINE"
);
},
{
closed = 1;
nodes = (
"550 200 LINE",
"550 514 LINE SMOOTH",
"550 675 OFFCURVE",
"482 755 OFFCURVE",
"318 755 CURVE",
"318 715 LINE",
"436 715 OFFCURVE",
"508 666 OFFCURVE",
"508 514 CURVE SMOOTH",
"508 200 LINE"
);
}
);
width = 580;
},
{
layerId = "4EACF7E3-2421-4EEA-928B-7BA9BC4A845D";
paths = (
{
closed = 1;
nodes = (
"243 -8 OFFCURVE",
"274 2 OFFCURVE",
"300 35 CURVE",
"329 3 OFFCURVE",
"370 -8 OFFCURVE",
"404 -8 CURVE SMOOTH",
"496 -8 OFFCURVE",
"563 58 OFFCURVE",
"563 160 CURVE SMOOTH",
"563 202 LINE",
"422 202 LINE",
"422 166 LINE SMOOTH",
"422 154 OFFCURVE",
"413 132 OFFCURVE",
"383 132 CURVE SMOOTH",
"353 132 OFFCURVE",
"345 153 OFFCURVE",
"345 166 CURVE SMOOTH",
"345 202 LINE",
"245 202 LINE",
"245 166 LINE SMOOTH",
"245 153 OFFCURVE",
"237 132 OFFCURVE",
"207 132 CURVE SMOOTH",
"177 132 OFFCURVE",
"168 154 OFFCURVE",
"168 166 CURVE SMOOTH",
"168 262 LINE SMOOTH",
"168 322 OFFCURVE",
"201 336 OFFCURVE",
"241 336 CURVE SMOOTH",
"263 336 LINE",
"263 474 LINE",
"241 474 LINE SMOOTH",
"45 474 OFFCURVE",
"30 344 OFFCURVE",
"30 262 CURVE SMOOTH",
"30 160 LINE SMOOTH",
"30 58 OFFCURVE",
"108 -8 OFFCURVE",
"205 -8 CURVE SMOOTH"
);
},
{
closed = 1;
nodes = (
"173 602 OFFCURVE",
"223 617 OFFCURVE",
"271 617 CURVE",
"271 755 LINE",
"158 755 OFFCURVE",
"36 678 OFFCURVE",
"36 566 CURVE",
"173 530 LINE"
);
},
{
closed = 1;
nodes = (
"563 202 LINE",
"563 520 LINE SMOOTH",
"563 706 OFFCURVE",
"468 755 OFFCURVE",
"327 755 CURVE",
"327 616 LINE",
"411 616 OFFCURVE",
"422 583 OFFCURVE",
"422 498 CURVE SMOOTH",
"422 202 LINE"
);
}
);
width = 593;
}
);
unicode = 0DB0;
userData = {
com.fontlab.hintData = {
hhints = (
{
position = 0;
width = 40;
},
{
position = 241;
width = 1;
},
{
position = 440;
width = 40;
},
{
position = 715;
width = 40;
}
);
vhints = (
{
position = 25;
width = 42;
},
{
position = 264;
width = 42;
},
{
position = 503;
width = 42;
}
);
};
};
},
{
glyphname = sinNa;
lastChange = "2021-06-28 01:55:44 +0000";
layers = (
{
layerId = "DC4431BF-9234-4C16-9154-22D387E42D10";
paths = (
{
closed = 1;
nodes = (
"661 -1 OFFCURVE",
"698 66 OFFCURVE",
"698 192 CURVE SMOOTH",
"698 336 LINE SMOOTH",
"698 495 OFFCURVE",
"584 564 OFFCURVE",
"473 564 CURVE SMOOTH",
"402 564 OFFCURVE",
"332 535 OFFCURVE",
"294 485 CURVE SMOOTH",
"197 356 LINE SMOOTH",
"172 324 OFFCURVE",
"112 256 OFFCURVE",
"64 256 CURVE",
"50 258 LINE",
"50 214 LINE",
"67 213 LINE",
"136 213 OFFCURVE",
"197 285 OFFCURVE",
"246 349 CURVE SMOOTH",
"324 452 LINE SMOOTH",
"360 499 OFFCURVE",
"414 522 OFFCURVE",
"468 522 CURVE SMOOTH",
"563 522 OFFCURVE",
"658 454 OFFCURVE",
"658 336 CURVE SMOOTH",
"658 192 LINE SMOOTH",
"658 48 OFFCURVE",
"584 39 OFFCURVE",
"522 39 CURVE",
"522 -1 LINE"
);
},
{
closed = 1;
nodes = (
"385 -5 OFFCURVE",
"492 69 OFFCURVE",
"492 208 CURVE SMOOTH",
"492 287 OFFCURVE",
"451 372 OFFCURVE",
"355 403 CURVE",
"330 370 LINE",
"424 335 OFFCURVE",
"448 269 OFFCURVE",
"448 208 CURVE SMOOTH",
"448 97 OFFCURVE",
"363 37 OFFCURVE",
"275 37 CURVE SMOOTH",
"176 37 OFFCURVE",
"71 111 OFFCURVE",
"71 270 CURVE SMOOTH",
"71 344 LINE",
"30 344 LINE",
"30 256 LINE SMOOTH",
"30 79 OFFCURVE",
"154 -5 OFFCURVE",
"273 -5 CURVE SMOOTH"
);
},
{
closed = 1;
nodes = (
"95 498 OFFCURVE",
"139 521 OFFCURVE",
"181 521 CURVE SMOOTH",
"230 521 OFFCURVE",
"276 491 OFFCURVE",
"289 445 CURVE",
"320 473 LINE",
"305 527 OFFCURVE",
"245 565 OFFCURVE",
"182 565 CURVE SMOOTH",
"124 565 OFFCURVE",
"64 533 OFFCURVE",
"33 452 CURVE",
"72 440 LINE"
);
}
);
width = 728;
},
{
layerId = "4EACF7E3-2421-4EEA-928B-7BA9BC4A845D";
paths = (
{
closed = 1;
nodes = (
"671 -8 OFFCURVE",
"728 82 OFFCURVE",
"728 198 CURVE SMOOTH",
"728 337 LINE SMOOTH",
"728 492 OFFCURVE",
"600 574 OFFCURVE",
"475 574 CURVE SMOOTH",
"398 574 OFFCURVE",
"326 543 OFFCURVE",
"283 479 CURVE SMOOTH",
"214 375 LINE SMOOTH",
"186 333 OFFCURVE",
"162 304 OFFCURVE",
"150 304 CURVE SMOOTH",
"125 304 LINE",
"125 165 LINE",
"154 165 LINE SMOOTH",
"201 165 OFFCURVE",
"240 208 OFFCURVE",
"295 281 CURVE SMOOTH",
"373 384 LINE SMOOTH",
"398 417 OFFCURVE",
"433 436 OFFCURVE",
"471 436 CURVE SMOOTH",
"530 436 OFFCURVE",
"588 391 OFFCURVE",
"588 317 CURVE SMOOTH",
"588 198 LINE SMOOTH",
"588 174 OFFCURVE",
"584 135 OFFCURVE",
"532 135 CURVE",
"532 -8 LINE"
);
},
{
closed = 1;
nodes = (
"429 -8 OFFCURVE",
"502 97 OFFCURVE",
"502 198 CURVE SMOOTH",
"502 261 OFFCURVE",
"473 322 OFFCURVE",
"412 354 CURVE",
"336 251 LINE",
"354 240 OFFCURVE",
"362 222 OFFCURVE",
"362 202 CURVE SMOOTH",
"362 167 OFFCURVE",
"337 127 OFFCURVE",
"267 127 CURVE SMOOTH",
"148 127 OFFCURVE",
"148 241 OFFCURVE",
"148 270 CURVE SMOOTH",
"148 344 LINE",
"30 344 LINE",
"30 256 LINE SMOOTH",
"30 85 OFFCURVE",
"136 -8 OFFCURVE",
"278 -8 CURVE SMOOTH"
);
},
{
closed = 1;
nodes = (
"149 425 OFFCURVE",
"169 446 OFFCURVE",
"198 446 CURVE SMOOTH",
"218 446 OFFCURVE",
"247 436 OFFCURVE",
"247 402 CURVE",
"331 506 LINE",
"331 522 OFFCURVE",
"270 567 OFFCURVE",
"198 567 CURVE SMOOTH",
"139 567 OFFCURVE",
"46 537 OFFCURVE",
"32 439 CURVE",
"149 402 LINE"
);
}
);
width = 758;
}
);
unicode = 0DB1;
userData = {
com.fontlab.hintData = {
hhints = (
{
position = -8;
width = 135;
},
{
position = 436;
width = 138;
},
{
position = 446;
width = 121;
}
);
vhints = (
{
position = 44;
width = 118;
},
{
position = 139;
width = 23;
},
{
position = 602;
width = 140;
}
);
};
};
},
{
glyphname = sinNda;
lastChange = "2021-06-28 01:55:44 +0000";
layers = (
{
layerId = "DC4431BF-9234-4C16-9154-22D387E42D10";
paths = (
{
closed = 1;
nodes = (
"436 0 LINE SMOOTH",
"493 0 OFFCURVE",
"596 22 OFFCURVE",
"638 138 CURVE",
"601 148 LINE",
"567 75 OFFCURVE",
"507 40 OFFCURVE",
"436 40 CURVE SMOOTH",
"397 40 LINE SMOOTH",
"273 40 OFFCURVE",
"212 108 OFFCURVE",
"212 199 CURVE SMOOTH",
"212 293 OFFCURVE",
"270 362 OFFCURVE",
"386 362 CURVE SMOOTH",
"572 362 LINE",
"572 389 LINE SMOOTH",
"572 519 OFFCURVE",
"479 579 OFFCURVE",
"381 579 CURVE SMOOTH",
"303 579 OFFCURVE",
"229 536 OFFCURVE",
"208 456 CURVE",
"247 443 LINE",
"264 505 OFFCURVE",
"322 538 OFFCURVE",
"383 538 CURVE SMOOTH",
"460 538 OFFCURVE",
"532 493 OFFCURVE",
"532 402 CURVE",
"396 402 LINE SMOOTH",
"265 402 OFFCURVE",
"170 335 OFFCURVE",
"170 199 CURVE SMOOTH",
"170 60 OFFCURVE",
"277 0 OFFCURVE",
"397 0 CURVE SMOOTH"
);
},
{
closed = 1;
nodes = (
"577 -204 OFFCURVE",
"654 -161 OFFCURVE",
"672 -76 CURVE",
"633 -66 LINE",
"617 -134 OFFCURVE",
"561 -164 OFFCURVE",
"505 -164 CURVE SMOOTH",
"439 -164 OFFCURVE",
"373 -121 OFFCURVE",
"373 -45 CURVE",
"333 -45 LINE",
"333 -151 OFFCURVE",
"416 -204 OFFCURVE",
"501 -204 CURVE SMOOTH"
);
},
{
closed = 1;
nodes = (
"136 8 LINE",
"72 85 OFFCURVE",
"70 128 OFFCURVE",
"70 209 CURVE SMOOTH",
"70 297 LINE SMOOTH",
"70 372 OFFCURVE",
"108 455 OFFCURVE",
"189 455 CURVE SMOOTH",
"204 455 OFFCURVE",
"220 452 OFFCURVE",
"238 446 CURVE",
"238 489 LINE",
"222 494 OFFCURVE",
"206 497 OFFCURVE",
"190 497 CURVE SMOOTH",
"110 497 OFFCURVE",
"30 434 OFFCURVE",
"30 297 CURVE SMOOTH",
"30 209 LINE SMOOTH",
"30 118 OFFCURVE",
"34 69 OFFCURVE",
"94 -8 CURVE"
);
}
);
width = 672;
},
{
layerId = "4EACF7E3-2421-4EEA-928B-7BA9BC4A845D";
paths = (
{
closed = 1;
nodes = (
"486 0 LINE SMOOTH",
"579 0 OFFCURVE",
"664 52 OFFCURVE",
"689 138 CURVE",
"561 172 LINE",
"548 140 OFFCURVE",
"519 136 OFFCURVE",
"486 136 CURVE SMOOTH",
"449 136 LINE SMOOTH",
"410 136 OFFCURVE",
"365 146 OFFCURVE",
"365 201 CURVE SMOOTH",
"365 263 OFFCURVE",
"424 263 OFFCURVE",
"448 263 CURVE SMOOTH",
"635 263 LINE",
"635 385 LINE SMOOTH",
"635 520 OFFCURVE",
"543 575 OFFCURVE",
"430 575 CURVE SMOOTH",
"356 575 OFFCURVE",
"277 551 OFFCURVE",
"241 468 CURVE",
"364 420 LINE",
"375 454 OFFCURVE",
"418 454 OFFCURVE",
"433 454 CURVE SMOOTH",
"451 454 OFFCURVE",
"505 446 OFFCURVE",
"505 398 CURVE",
"448 398 LINE SMOOTH",
"315 398 OFFCURVE",
"222 333 OFFCURVE",
"222 200 CURVE SMOOTH",
"222 58 OFFCURVE",
"329 0 OFFCURVE",
"449 0 CURVE SMOOTH"
);
},
{
closed = 1;
nodes = (
"665 -204 OFFCURVE",
"720 -148 OFFCURVE",
"742 -81 CURVE",
"609 -47 LINE",
"604 -67 OFFCURVE",
"580 -78 OFFCURVE",
"559 -78 CURVE SMOOTH",
"530 -78 OFFCURVE",
"510 -61 OFFCURVE",
"510 -45 CURVE",
"373 -45 LINE",
"373 -136 OFFCURVE",
"439.999 -204 OFFCURVE",
"559 -204 CURVE SMOOTH"
);
},
{
closed = 1;
nodes = (
"233 11 LINE",
"169 88 OFFCURVE",
"166 128 OFFCURVE",
"166 209 CURVE SMOOTH",
"166 294 LINE SMOOTH",
"166 401 OFFCURVE",
"230 434 OFFCURVE",
"292 434 CURVE SMOOTH",
"318 434 OFFCURVE",
"343 428 OFFCURVE",
"364 420 CURVE",
"364 549 LINE",
"332 561 OFFCURVE",
"300 567 OFFCURVE",
"268 567 CURVE SMOOTH",
"142 567 OFFCURVE",
"30 474 OFFCURVE",
"30 294 CURVE SMOOTH",
"30 209 LINE SMOOTH",
"30 118 OFFCURVE",
"43 48 OFFCURVE",
"103 -29 CURVE"
);
}
);
width = 742;
}
);
unicode = 0DB3;
userData = {
com.fontlab.hintData = {
hhints = (
{
position = -204;
width = 126;
},
{
position = 0;
width = 136;
},
{
position = 263;
width = 135;
},
{
position = 454;
width = 121;
}
);
vhints = (
{
position = 30;
width = 136;
},
{
position = 222;
width = 143;
}
);
};
};
},
{
glyphname = sinPa;
lastChange = "2021-06-28 01:55:44 +0000";
layers = (
{
layerId = "DC4431BF-9234-4C16-9154-22D387E42D10";
paths = (
{
closed = 1;
nodes = (
"341 -6 LINE SMOOTH",
"518 -6 OFFCURVE",
"590 50 OFFCURVE",
"590 193 CURVE",
"550 193 LINE",
"550 62 OFFCURVE",
"474 34 OFFCURVE",
"341 34 CURVE SMOOTH",
"279 34 LINE SMOOTH",
"146 34 OFFCURVE",
"70 61 OFFCURVE",
"70 193 CURVE",
"30 193 LINE",
"30 50 OFFCURVE",
"102 -6 OFFCURVE",
"279 -6 CURVE SMOOTH"
);
},
{
closed = 1;
nodes = (
"70 242 LINE",
"70 308 OFFCURVE",
"86 362 OFFCURVE",
"195 362 CURVE SMOOTH",
"421 362 LINE SMOOTH",
"530 362 OFFCURVE",
"550 320 OFFCURVE",
"550 242 CURVE",
"590 242 LINE",
"590 368 OFFCURVE",
"527 402 OFFCURVE",
"419 402 CURVE SMOOTH",
"194 402 LINE SMOOTH",
"97 402 OFFCURVE",
"30 364 OFFCURVE",
"30 242 CURVE"
);
},
{
closed = 1;
nodes = (
"330 379 LINE",
"330 415 LINE SMOOTH",
"330 469 OFFCURVE",
"361 524 OFFCURVE",
"439 524 CURVE SMOOTH",
"502 524 OFFCURVE",
"537 500 OFFCURVE",
"550 464 CURVE",
"589 477 LINE",
"563 542 OFFCURVE",
"503 564 OFFCURVE",
"439 564 CURVE SMOOTH",
"402 564 OFFCURVE",
"341 551 OFFCURVE",
"310 498 CURVE",
"279 551 OFFCURVE",
"218 564 OFFCURVE",
"181 564 CURVE SMOOTH",
"117 564 OFFCURVE",
"57 542 OFFCURVE",
"31 477 CURVE",
"70 464 LINE",
"83 500 OFFCURVE",
"118 524 OFFCURVE",
"181 524 CURVE SMOOTH",
"259 524 OFFCURVE",
"290 469 OFFCURVE",
"290 415 CURVE SMOOTH",
"290 379 LINE"
);
}
);
width = 620;
},
{
layerId = "4EACF7E3-2421-4EEA-928B-7BA9BC4A845D";
paths = (
{
closed = 1;
nodes = (
"342 -12 LINE SMOOTH",
"511 -12 OFFCURVE",
"594 64 OFFCURVE",
"594 202 CURVE",
"454 202 LINE",
"454 151 OFFCURVE",
"415 123 OFFCURVE",
"350 123 CURVE SMOOTH",
"278 123 LINE SMOOTH",
"215 123 OFFCURVE",
"174 149 OFFCURVE",
"174 202 CURVE",
"34 202 LINE",
"34 59 OFFCURVE",
"112 -12 OFFCURVE",
"289 -12 CURVE SMOOTH"
);
},
{
closed = 1;
nodes = (
"174 251 LINE",
"174 262 OFFCURVE",
"176 283 OFFCURVE",
"209 283 CURVE SMOOTH",
"426 283 LINE SMOOTH",
"455 283 OFFCURVE",
"455 263 OFFCURVE",
"455 251 CURVE",
"594 251 LINE",
"594 377 OFFCURVE",
"531 402 OFFCURVE",
"423 402 CURVE SMOOTH",
"198 402 LINE SMOOTH",
"101 402 OFFCURVE",
"35 373 OFFCURVE",
"35 251 CURVE"
);
},
{
closed = 1;
nodes = (
"378 378 LINE",
"378 397 LINE SMOOTH",
"378 443 OFFCURVE",
"418 451 OFFCURVE",
"436 451 CURVE SMOOTH",
"460 451 OFFCURVE",
"476 436 OFFCURVE",
"480 421 CURVE",
"598 460 LINE",
"574 537 OFFCURVE",
"506 575 OFFCURVE",
"435 575 CURVE SMOOTH",
"393 575 OFFCURVE",
"350 562 OFFCURVE",
"314 536 CURVE",
"278 562 OFFCURVE",
"235 575 OFFCURVE",
"193 575 CURVE SMOOTH",
"122 575 OFFCURVE",
"54 537 OFFCURVE",
"30 460 CURVE",
"148 421 LINE",
"152 436 OFFCURVE",
"168 451 OFFCURVE",
"192 451 CURVE SMOOTH",
"210 451 OFFCURVE",
"250 443 OFFCURVE",
"250 397 CURVE SMOOTH",
"250 378 LINE"
);
}
);
width = 628;
}
);
unicode = 0DB4;
userData = {
com.fontlab.hintData = {
hhints = (
{
position = -12;
width = 135;
},
{
position = 283;
width = 119;
},
{
position = 378;
width = 24;
},
{
position = 451;
width = 124;
}
);
vhints = (
{
position = 34;
width = 140;
},
{
position = 250;
width = 128;
},
{
position = 454;
width = 140;
}
);
};
};
},
{
glyphname = sinPha;
lastChange = "2021-06-28 01:55:44 +0000";
layers = (
{
layerId = "DC4431BF-9234-4C16-9154-22D387E42D10";
paths = (
{
closed = 1;
nodes = (
"120 479 OFFCURVE",
"67 452 OFFCURVE",
"53 399 CURVE",
"92 389 LINE",
"106 422 OFFCURVE",
"140 438 OFFCURVE",
"174 438 CURVE SMOOTH",
"222 438 OFFCURVE",
"271 408 OFFCURVE",
"271 349 CURVE",
"176 349 OFFCURVE",
"110 342 OFFCURVE",
"67 296 CURVE SMOOTH",
"41 268 OFFCURVE",
"30 231 OFFCURVE",
"30 181 CURVE SMOOTH",
"30 86 OFFCURVE",
"118 0 OFFCURVE",
"237 0 CURVE",
"237 40 LINE",
"130 40 OFFCURVE",
"70 112 OFFCURVE",
"70 181 CURVE SMOOTH",
"70 286 OFFCURVE",
"124 309 OFFCURVE",
"262 309 CURVE SMOOTH",
"311 309 LINE",
"311 354 LINE SMOOTH",
"311 438 OFFCURVE",
"242 479 OFFCURVE",
"175 479 CURVE SMOOTH"
);
},
{
closed = 1;
nodes = (
"452 0 OFFCURVE",
"518 84 OFFCURVE",
"518 241 CURVE",
"476 241 LINE",
"476 95 OFFCURVE",
"406 40 OFFCURVE",
"293 40 CURVE",
"293 0 LINE"
);
},
{
closed = 1;
nodes = (
"251 755 LINE",
"251 637 LINE SMOOTH",
"251 541 OFFCURVE",
"304 464 OFFCURVE",
"421 464 CURVE",
"421 504 LINE",
"358 504 OFFCURVE",
"291 537 OFFCURVE",
"291 637 CURVE SMOOTH",
"291 715 LINE",
"292 715 LINE SMOOTH",
"428 715 OFFCURVE",
"476 643 OFFCURVE",
"476 498 CURVE SMOOTH",
"476 241 LINE",
"518 241 LINE",
"518 517 LINE SMOOTH",
"518 700 OFFCURVE",
"421 755 OFFCURVE",
"291 755 CURVE SMOOTH"
);
}
);
width = 548;
},
{
layerId = "4EACF7E3-2421-4EEA-928B-7BA9BC4A845D";
paths = (
{
closed = 1;
nodes = (
"116 502 OFFCURVE",
"55 480 OFFCURVE",
"30 401 CURVE",
"129 375 LINE",
"133 393 OFFCURVE",
"153 399 OFFCURVE",
"170 399 CURVE SMOOTH",
"194 399 OFFCURVE",
"211 388 OFFCURVE",
"211 369 CURVE",
"159 369 OFFCURVE",
"124 357 OFFCURVE",
"91 333 CURVE SMOOTH",
"34 291 OFFCURVE",
"33 241 OFFCURVE",
"33 192 CURVE SMOOTH",
"33 87 OFFCURVE",
"120 -5 OFFCURVE",
"247 -5 CURVE",
"247 140 LINE",
"194 140 OFFCURVE",
"171 166 OFFCURVE",
"171 201 CURVE SMOOTH",
"171 252 OFFCURVE",
"222 252 OFFCURVE",
"230 252 CURVE SMOOTH",
"314 252 LINE",
"314 369 LINE SMOOTH",
"314 450 OFFCURVE",
"252 502 OFFCURVE",
"170 502 CURVE SMOOTH"
);
},
{
closed = 1;
nodes = (
"458 -5 OFFCURVE",
"538 78 OFFCURVE",
"538 250 CURVE",
"398 250 LINE",
"398 154 OFFCURVE",
"345 140 OFFCURVE",
"303 140 CURVE",
"303 -5 LINE"
);
},
{
closed = 1;
nodes = (
"182 755 LINE",
"182 606 LINE SMOOTH",
"182 519 OFFCURVE",
"233 441 OFFCURVE",
"362 441 CURVE",
"362 548 LINE",
"309 548 OFFCURVE",
"303 581 OFFCURVE",
"303 614 CURVE SMOOTH",
"303 629 LINE",
"314 629 LINE SMOOTH",
"382 629 OFFCURVE",
"398 593 OFFCURVE",
"398 508 CURVE SMOOTH",
"398 250 LINE",
"538 250 LINE",
"538 517 LINE SMOOTH",
"538 700 OFFCURVE",
"437 755 OFFCURVE",
"303 755 CURVE SMOOTH"
);
}
);
width = 568;
},
{
associatedMasterId = "4EACF7E3-2421-4EEA-928B-7BA9BC4A845D";
layerId = "239884C2-0E66-4E7E-A473-0B78EC841960";
name = "27 Jun 21, 16:20";
paths = (
{
closed = 1;
nodes = (
"116 502 OFFCURVE",
"55 480 OFFCURVE",
"30 401 CURVE",
"129 375 LINE",
"133 393 OFFCURVE",
"153 399 OFFCURVE",
"170 399 CURVE SMOOTH",
"194 399 OFFCURVE",
"211 388 OFFCURVE",
"211 369 CURVE",
"159 369 OFFCURVE",
"124 357 OFFCURVE",
"91 333 CURVE SMOOTH",
"34 291 OFFCURVE",
"33 241 OFFCURVE",
"33 192 CURVE SMOOTH",
"33 87 OFFCURVE",
"120 -5 OFFCURVE",
"247 -5 CURVE",
"247 140 LINE",
"194 140 OFFCURVE",
"171 168 OFFCURVE",
"171 195 CURVE SMOOTH",
"171 242 OFFCURVE",
"200 252 OFFCURVE",
"230 252 CURVE SMOOTH",
"314 252 LINE",
"314 369 LINE SMOOTH",
"314 450 OFFCURVE",
"252 502 OFFCURVE",
"170 502 CURVE SMOOTH"
);
},
{
closed = 1;
nodes = (
"458 -5 OFFCURVE",
"538 78 OFFCURVE",
"538 250 CURVE",
"398 250 LINE",
"398 154 OFFCURVE",
"345 140 OFFCURVE",
"303 140 CURVE",
"303 -5 LINE"
);
},
{
closed = 1;
nodes = (
"223 755 LINE",
"223 617 LINE SMOOTH",
"223 544 OFFCURVE",
"259 474 OFFCURVE",
"362 454 CURVE",
"362 540 LINE",
"329 547 OFFCURVE",
"303 563 OFFCURVE",
"303 614 CURVE SMOOTH",
"303 616 LINE",
"381 616 OFFCURVE",
"398 577 OFFCURVE",
"398 498 CURVE SMOOTH",
"398 250 LINE",
"538 250 LINE",
"538 517 LINE SMOOTH",
"538 700 OFFCURVE",
"437 755 OFFCURVE",
"303 755 CURVE SMOOTH"
);
}
);
width = 568;
},
{
associatedMasterId = "DC4431BF-9234-4C16-9154-22D387E42D10";
layerId = "8A4C7864-226A-411F-BA0F-135FEEABE5D0";
name = "27 Jun 21, 16:23";
paths = (
{
closed = 1;
nodes = (
"119.961 478.84 OFFCURVE",
"66.744 451.867 OFFCURVE",
"53 399 CURVE",
"92 389 LINE",
"105.99 422.033 OFFCURVE",
"139.821 438.116 OFFCURVE",
"174.351 438.116 CURVE SMOOTH",
"221.87 438.116 OFFCURVE",
"270.714 407.658 OFFCURVE",
"271 349 CURVE",
"176 349 OFFCURVE",
"110 342 OFFCURVE",
"67 296 CURVE SMOOTH",
"41 268 OFFCURVE",
"30 231 OFFCURVE",
"30 181 CURVE SMOOTH",
"30 85.733 OFFCURVE",
"117.896 0 OFFCURVE",
"237 0 CURVE",
"237 40 LINE",
"129.708 40 OFFCURVE",
"70 111.89 OFFCURVE",
"70 181 CURVE SMOOTH",
"70 285.762 OFFCURVE",
"124.373 309 OFFCURVE",
"262 309 CURVE SMOOTH",
"311 309 LINE",
"310.932 354 LINE",
"310.969 437.9 OFFCURVE",
"241.727 478.84 OFFCURVE",
"174.516 478.84 CURVE SMOOTH"
);
},
{
closed = 1;
nodes = (
"452.37 0 OFFCURVE",
"518 83.963 OFFCURVE",
"518 241 CURVE",
"476 241 LINE",
"476 95.285 OFFCURVE",
"406.056 40 OFFCURVE",
"293 40 CURVE",
"293 0 LINE"
);
},
{
closed = 1;
nodes = (
"251 755 LINE",
"251 637 LINE SMOOTH",
"251 540.655 OFFCURVE",
"304 464 OFFCURVE",
"421 464 CURVE",
"421 504 LINE",
"358.352 504 OFFCURVE",
"291 537 OFFCURVE",
"291 637 CURVE SMOOTH",
"291 715 LINE",
"428 715 OFFCURVE",
"476 643 OFFCURVE",
"476 498 CURVE SMOOTH",
"476 241 LINE",
"518 241 LINE",
"518 517 LINE SMOOTH",
"518 700 OFFCURVE",
"420.702 755 OFFCURVE",
"291 755 CURVE SMOOTH"
);
}
);
width = 548;
}
);
unicode = 0DB5;
userData = {
com.fontlab.hintData = {
hhints = (
{
position = 0;
width = 40;
},
{
position = 235;
width = 6;
},
{
position = 309;
width = 40;
},
{
position = 464;
width = 40;
},
{
position = 715;
width = 40;
}
);
vhints = (
{
position = 30;
width = 40;
},
{
position = 251;
width = 40;
},
{
position = 271;
width = 40;
},
{
position = 476;
width = 42;
}
);
};
};
},
{
glyphname = sinBa;
lastChange = "2021-06-28 01:55:44 +0000";
layers = (
{
background = {
paths = (
{
closed = 1;
nodes = (
"483 -4 OFFCURVE",
"556 46 OFFCURVE",
"556 144 CURVE SMOOTH",
"556 264 LINE",
"514 264 LINE",
"514 141 LINE SMOOTH",
"514 74 OFFCURVE",
"463 41 OFFCURVE",
"412 41 CURVE SMOOTH",
"361 41 OFFCURVE",
"309 74 OFFCURVE",
"309 141 CURVE SMOOTH",
"309 284 LINE SMOOTH",
"309 391 OFFCURVE",
"240 443 OFFCURVE",
"170 443 CURVE SMOOTH",
"100 443 OFFCURVE",
"30 390 OFFCURVE",
"30 284 CURVE SMOOTH",
"30 177 LINE SMOOTH",
"30 45 OFFCURVE",
"91 0 OFFCURVE",
"211 0 CURVE",
"211 40 LINE",
"123 40 OFFCURVE",
"71 65 OFFCURVE",
"70.917 177 CURVE SMOOTH",
"71 284 LINE SMOOTH",
"71 360 OFFCURVE",
"120 398 OFFCURVE",
"170 398 CURVE SMOOTH",
"219 398 OFFCURVE",
"268 360 OFFCURVE",
"268 284 CURVE SMOOTH",
"268 141 LINE SMOOTH",
"268 44 OFFCURVE",
"339 -4 OFFCURVE",
"411 -4 CURVE SMOOTH"
);
},
{
closed = 1;
nodes = (
"80 651 OFFCURVE",
"170 715 OFFCURVE",
"263 715 CURVE",
"263 755 LINE",
"159 755 OFFCURVE",
"41 681 OFFCURVE",
"41.375 563 CURVE",
"80.375 553 LINE"
);
},
{
closed = 1;
nodes = (
"556 264 LINE",
"556 514 LINE SMOOTH",
"556 671 OFFCURVE",
"490 755 OFFCURVE",
"331 755 CURVE SMOOTH",
"320 755 LINE",
"320 715 LINE",
"331 715 LINE SMOOTH",
"444 715 OFFCURVE",
"514 662 OFFCURVE",
"514 514 CURVE SMOOTH",
"514 264 LINE"
);
}
);
};
layerId = "DC4431BF-9234-4C16-9154-22D387E42D10";
paths = (
{
closed = 1;
nodes = (
"506 -4 OFFCURVE",
"566 58 OFFCURVE",
"566 144 CURVE SMOOTH",
"566 264 LINE",
"524 264 LINE",
"524 141 LINE SMOOTH",
"524 83 OFFCURVE",
"482 41 OFFCURVE",
"422 41 CURVE SMOOTH",
"361 41 OFFCURVE",
"316 83 OFFCURVE",
"316 141 CURVE SMOOTH",
"316 320 LINE SMOOTH",
"316 413 OFFCURVE",
"256 479 OFFCURVE",
"170 479 CURVE SMOOTH",
"86 479 OFFCURVE",
"30 415 OFFCURVE",
"30 320 CURVE SMOOTH",
"30 177 LINE SMOOTH",
"30 52 OFFCURVE",
"84 0 OFFCURVE",
"211 0 CURVE",
"211 40 LINE",
"110 40 OFFCURVE",
"71 78 OFFCURVE",
"71 177 CURVE SMOOTH",
"71 320 LINE SMOOTH",
"71 389 OFFCURVE",
"110 434 OFFCURVE",
"170 434 CURVE SMOOTH",
"231 434 OFFCURVE",
"275 387 OFFCURVE",
"275 320 CURVE SMOOTH",
"275 141 LINE SMOOTH",
"275 57 OFFCURVE",
"337 -4 OFFCURVE",
"421 -4 CURVE SMOOTH"
);
},
{
closed = 1;
nodes = (
"80 643 OFFCURVE",
"151 715 OFFCURVE",
"253 715 CURVE",
"253 755 LINE",
"133 755 OFFCURVE",
"41 667 OFFCURVE",
"41 563 CURVE",
"80 553 LINE"
);
},
{
closed = 1;
nodes = (
"566 264 LINE",
"566 494 LINE SMOOTH",
"566 674 OFFCURVE",
"484 755 OFFCURVE",
"331 755 CURVE SMOOTH",
"310 755 LINE",
"310 715 LINE",
"331 715 LINE SMOOTH",
"455 715 OFFCURVE",
"524 636 OFFCURVE",
"524 504 CURVE SMOOTH",
"524 264 LINE"
);
}
);
width = 586;
},
{
layerId = "4EACF7E3-2421-4EEA-928B-7BA9BC4A845D";
paths = (
{
closed = 1;
nodes = (
"488 -8 OFFCURVE",
"579 52 OFFCURVE",
"579 174 CURVE SMOOTH",
"579 214 LINE",
"439 214 LINE",
"439 174 LINE SMOOTH",
"439 150 OFFCURVE",
"425 138 OFFCURVE",
"410 138 CURVE SMOOTH",
"396 138 OFFCURVE",
"382 150 OFFCURVE",
"382 174 CURVE SMOOTH",
"382 272 LINE SMOOTH",
"382 396 OFFCURVE",
"298 452 OFFCURVE",
"212 452 CURVE SMOOTH",
"122 452 OFFCURVE",
"30 391 OFFCURVE",
"30 283 CURVE SMOOTH",
"30 187 LINE SMOOTH",
"30 55 OFFCURVE",
"91 0 OFFCURVE",
"211 0 CURVE",
"211 140 LINE",
"180 140 OFFCURVE",
"162 151 OFFCURVE",
"162 193 CURVE SMOOTH",
"162 267 LINE SMOOTH",
"162 298 OFFCURVE",
"183 313 OFFCURVE",
"204 313 CURVE SMOOTH",
"226 313 OFFCURVE",
"247 298 OFFCURVE",
"247 267 CURVE SMOOTH",
"247 138 LINE SMOOTH",
"247 41 OFFCURVE",
"322 -8 OFFCURVE",
"401 -8 CURVE SMOOTH"
);
},
{
closed = 1;
nodes = (
"178 602 OFFCURVE",
"220 617 OFFCURVE",
"268 617 CURVE",
"268 755 LINE",
"155 755 OFFCURVE",
"41 678 OFFCURVE",
"41 566 CURVE",
"178 530 LINE"
);
},
{
closed = 1;
nodes = (
"579 214 LINE",
"579 500 LINE SMOOTH",
"579 680 OFFCURVE",
"479 755 OFFCURVE",
"345 755 CURVE SMOOTH",
"324 755 LINE",
"324 616 LINE",
"345 616 LINE SMOOTH",
"422 616 OFFCURVE",
"439 556.997 OFFCURVE",
"439 478 CURVE SMOOTH",
"439 214 LINE"
);
}
);
width = 609;
}
);
unicode = 0DB6;
},
{
glyphname = sinBha;
lastChange = "2021-06-28 01:55:44 +0000";
layers = (
{
layerId = "DC4431BF-9234-4C16-9154-22D387E42D10";
paths = (
{
closed = 1;
nodes = (
"256 32 LINE",
"164 32 OFFCURVE",
"110 98 OFFCURVE",
"110 196 CURVE SMOOTH",
"110 250 LINE SMOOTH",
"110 358 OFFCURVE",
"161 394 OFFCURVE",
"256 394 CURVE SMOOTH",
"325 394 LINE",
"335 439 LINE",
"335 523 OFFCURVE",
"266 564 OFFCURVE",
"199 564 CURVE SMOOTH",
"144 564 OFFCURVE",
"91 537 OFFCURVE",
"77 484 CURVE",
"116 474 LINE",
"130 507 OFFCURVE",
"164 523 OFFCURVE",
"198 523 CURVE SMOOTH",
"246 523 OFFCURVE",
"295 493 OFFCURVE",
"295 434 CURVE",
"30 434 LINE",
"30 394 LINE",
"124 394 LINE",
"89 364 OFFCURVE",
"70 316 OFFCURVE",
"70 250 CURVE SMOOTH",
"70 196 LINE SMOOTH",
"70 80 OFFCURVE",
"137 -8 OFFCURVE",
"256 -8 CURVE"
);
},
{
closed = 1;
nodes = (
"412 -8 OFFCURVE",
"479 43 OFFCURVE",
"479 145 CURVE SMOOTH",
"479 164 LINE SMOOTH",
"479 233 OFFCURVE",
"448 311 OFFCURVE",
"333 311 CURVE",
"333 361 LINE SMOOTH",
"333 443 OFFCURVE",
"364 524 OFFCURVE",
"471 524 CURVE",
"471 564 LINE",
"349 564 OFFCURVE",
"292 478.007 OFFCURVE",
"292 360 CURVE SMOOTH",
"292 271 LINE",
"346 271 LINE SMOOTH",
"431 271 OFFCURVE",
"439 200 OFFCURVE",
"439 152 CURVE SMOOTH",
"439 66 OFFCURVE",
"392 32 OFFCURVE",
"312 32 CURVE",
"312 -8 LINE"
);
},
{
closed = 1;
nodes = (
"646 -8 OFFCURVE",
"713 80 OFFCURVE",
"713 216 CURVE SMOOTH",
"713 340 LINE SMOOTH",
"713 476 OFFCURVE",
"646 564 OFFCURVE",
"527 564 CURVE",
"527 524 LINE",
"622 524 OFFCURVE",
"673 458 OFFCURVE",
"673 340 CURVE SMOOTH",
"673 216 LINE SMOOTH",
"673 98 OFFCURVE",
"619 32 OFFCURVE",
"527 32 CURVE",
"527 -8 LINE"
);
}
);
width = 743;
},
{
layerId = "4EACF7E3-2421-4EEA-928B-7BA9BC4A845D";
paths = (
{
closed = 1;
nodes = (
"265 135 LINE",
"213 135 OFFCURVE",
"209 175 OFFCURVE",
"209 199 CURVE SMOOTH",
"209 243 LINE SMOOTH",
"209 264 OFFCURVE",
"213 297 OFFCURVE",
"265 297 CURVE SMOOTH",
"344 297 LINE",
"344 433 LINE SMOOTH",
"344 516 OFFCURVE",
"273 564 OFFCURVE",
"201 564 CURVE SMOOTH",
"142 564 OFFCURVE",
"83 532 OFFCURVE",
"60 463 CURVE",
"159 437 LINE",
"163 454 OFFCURVE",
"180 462 OFFCURVE",
"198 462 CURVE SMOOTH",
"229 462 OFFCURVE",
"241 446 OFFCURVE",
"241 415 CURVE",
"30 415 LINE",
"30 297 LINE",
"75 297 LINE",
"70 283 OFFCURVE",
"68 269 OFFCURVE",
"68 254 CURVE SMOOTH",
"68 198 LINE SMOOTH",
"68 82 OFFCURVE",
"126 -8 OFFCURVE",
"265 -8 CURVE"
);
},
{
closed = 1;
nodes = (
"437 -8 OFFCURVE",
"498 45 OFFCURVE",
"498 166 CURVE SMOOTH",
"498 216 LINE SMOOTH",
"498 305 OFFCURVE",
"463 339 OFFCURVE",
"430 344 CURVE",
"430 351 LINE SMOOTH",
"430 380 OFFCURVE",
"428 421 OFFCURVE",
"471 421 CURVE",
"471 564 LINE",
"327 564 OFFCURVE",
"291 468.007 OFFCURVE",
"291 350 CURVE SMOOTH",
"291 241 LINE",
"325 241 LINE SMOOTH",
"373 239 OFFCURVE",
"374 205 OFFCURVE",
"374 188 CURVE SMOOTH",
"374 171 OFFCURVE",
"373 135 OFFCURVE",
"320 135 CURVE",
"320 -8 LINE"
);
},
{
closed = 1;
nodes = (
"666 -8 OFFCURVE",
"724 82 OFFCURVE",
"724 198 CURVE SMOOTH",
"724 353 LINE SMOOTH",
"724 475 OFFCURVE",
"666 564 OFFCURVE",
"527 564 CURVE",
"527 421 LINE",
"579 421 OFFCURVE",
"583 381 OFFCURVE",
"583 353 CURVE SMOOTH",
"583 198 LINE SMOOTH",
"583 174 OFFCURVE",
"579 135 OFFCURVE",
"527 135 CURVE",
"527 -8 LINE"
);
}
);
width = 754;
}
);
unicode = 0DB7;
userData = {
com.fontlab.hintData = {
hhints = (
{
position = -8;
width = 40;
},
{
position = 271;
width = 40;
},
{
position = 524;
width = 40;
}
);
vhints = (
{
position = 70;
width = 40;
},
{
position = 292;
width = 41;
},
{
position = 439;
width = 40;
},
{
position = 673;
width = 40;
}
);
};
};
},
{
glyphname = sinMa;
lastChange = "2021-06-28 01:55:44 +0000";
layers = (
{
layerId = "DC4431BF-9234-4C16-9154-22D387E42D10";
paths = (
{
closed = 1;
nodes = (
"317 315 LINE SMOOTH",
"317 289 OFFCURVE",
"296 276 OFFCURVE",
"275 276 CURVE SMOOTH",
"255 276 OFFCURVE",
"234 289 OFFCURVE",
"234 315 CURVE SMOOTH",
"234 380 LINE SMOOTH",
"234 444 OFFCURVE",
"189 479 OFFCURVE",
"142 479 CURVE SMOOTH",
"88 479 OFFCURVE",
"30 434 OFFCURVE",
"30 336 CURVE SMOOTH",
"30 252 LINE SMOOTH",
"30 143 OFFCURVE",
"67 0 OFFCURVE",
"243 0 CURVE",
"243 40 LINE",
"203 40 OFFCURVE",
"70 54 OFFCURVE",
"70 252 CURVE SMOOTH",
"70 336 LINE SMOOTH",
"70 409 OFFCURVE",
"105 438 OFFCURVE",
"138 438 CURVE SMOOTH",
"167 438 OFFCURVE",
"194 415 OFFCURVE",
"194 380 CURVE SMOOTH",
"194 310 LINE SMOOTH",
"194 257 OFFCURVE",
"235 230 OFFCURVE",
"275 230 CURVE SMOOTH",
"316 230 OFFCURVE",
"357 257 OFFCURVE",
"357 310 CURVE SMOOTH",
"357 469 LINE",
"317 469 LINE"
);
},
{
closed = 1;
nodes = (
"69 553 LINE",
"69 644 OFFCURVE",
"159 715 OFFCURVE",
"243 715 CURVE",
"243 755 LINE",
"147 755 OFFCURVE",
"30 674 OFFCURVE",
"30 563 CURVE"
);
},
{
closed = 1;
nodes = (
"299 715 LINE",
"412 715 OFFCURVE",
"499 662 OFFCURVE",
"499 514 CURVE SMOOTH",
"499 241 LINE SMOOTH",
"499 95 OFFCURVE",
"412 40 OFFCURVE",
"299 40 CURVE",
"299 0 LINE",
"458 0 OFFCURVE",
"540 84 OFFCURVE",
"540 241 CURVE SMOOTH",
"540 514 LINE SMOOTH",
"540 671 OFFCURVE",
"458 755 OFFCURVE",
"299 755 CURVE"
);
}
);
width = 570;
},
{
layerId = "4EACF7E3-2421-4EEA-928B-7BA9BC4A845D";
paths = (
{
closed = 1;
nodes = (
"303 348 LINE SMOOTH",
"303 337 OFFCURVE",
"295 331 OFFCURVE",
"287 331 CURVE SMOOTH",
"280 331 OFFCURVE",
"272 337 OFFCURVE",
"272 348 CURVE SMOOTH",
"272 364 LINE SMOOTH",
"272 434 OFFCURVE",
"223 471 OFFCURVE",
"168 471 CURVE SMOOTH",
"103 471 OFFCURVE",
"30 416 OFFCURVE",
"30 299 CURVE SMOOTH",
"30 252 LINE SMOOTH",
"30 143 OFFCURVE",
"65 -5 OFFCURVE",
"261 -5 CURVE",
"261 135 LINE",
"201 135 OFFCURVE",
"158 154 OFFCURVE",
"158 252 CURVE SMOOTH",
"158 328 LINE SMOOTH",
"158 341 OFFCURVE",
"166 348 OFFCURVE",
"173 348 CURVE SMOOTH",
"181 348 OFFCURVE",
"189 341 OFFCURVE",
"189 328 CURVE SMOOTH",
"189 320 LINE SMOOTH",
"189 262 OFFCURVE",
"239 229 OFFCURVE",
"290 229 CURVE SMOOTH",
"342 229 OFFCURVE",
"395 263 OFFCURVE",
"395 340 CURVE SMOOTH",
"395 469 LINE",
"303 469 LINE"
);
},
{
closed = 1;
nodes = (
"171 529 LINE",
"171 601 OFFCURVE",
"213 616 OFFCURVE",
"261 616 CURVE",
"261 754 LINE",
"148 754 OFFCURVE",
"34 677 OFFCURVE",
"34 565 CURVE"
);
},
{
closed = 1;
nodes = (
"317 615 LINE",
"385 615 OFFCURVE",
"430 603 OFFCURVE",
"430 498 CURVE SMOOTH",
"430 252 LINE SMOOTH",
"430 147 OFFCURVE",
"385 135 OFFCURVE",
"317 135 CURVE",
"317 -5 LINE",
"528 -5 OFFCURVE",
"570 127 OFFCURVE",
"570 252 CURVE SMOOTH",
"570 498 LINE SMOOTH",
"570 622 OFFCURVE",
"528 754 OFFCURVE",
"317 754 CURVE"
);
}
);
width = 600;
}
);
unicode = 0DB8;
},
{
glyphname = sinMba;
lastChange = "2021-06-28 01:55:44 +0000";
layers = (
{
layerId = "DC4431BF-9234-4C16-9154-22D387E42D10";
paths = (
{
closed = 1;
nodes = (
"240 -11 OFFCURVE",
"262 17 OFFCURVE",
"262 58 CURVE SMOOTH",
"262 78 OFFCURVE",
"255 119 OFFCURVE",
"255 138 CURVE SMOOTH",
"255 170 OFFCURVE",
"273 171 OFFCURVE",
"291 171 CURVE SMOOTH",
"309 171 OFFCURVE",
"328 171 OFFCURVE",
"328 138 CURVE SMOOTH",
"328 119 OFFCURVE",
"321 78 OFFCURVE",
"321 58 CURVE SMOOTH",
"321 17 OFFCURVE",
"343 -11 OFFCURVE",
"398 -11 CURVE SMOOTH",
"493 -11 OFFCURVE",
"553 65 OFFCURVE",
"553 167 CURVE SMOOTH",
"553 514 LINE SMOOTH",
"553 671 OFFCURVE",
"471 755 OFFCURVE",
"312 755 CURVE",
"312 715 LINE",
"425 715 OFFCURVE",
"513 662 OFFCURVE",
"513 514 CURVE SMOOTH",
"513 167 LINE SMOOTH",
"513 102 OFFCURVE",
"470 29 OFFCURVE",
"398 29 CURVE SMOOTH",
"367 29 OFFCURVE",
"360 42 OFFCURVE",
"360 69 CURVE SMOOTH",
"360 100 OFFCURVE",
"394 204 OFFCURVE",
"311 204 CURVE SMOOTH",
"272 204 LINE SMOOTH",
"190 204 OFFCURVE",
"223 100 OFFCURVE",
"223 69 CURVE SMOOTH",
"223 42 OFFCURVE",
"216 29 OFFCURVE",
"185 29 CURVE SMOOTH",
"113 29 OFFCURVE",
"71 102 OFFCURVE",
"71 167 CURVE SMOOTH",
"71 366 LINE SMOOTH",
"71 415 OFFCURVE",
"105 439 OFFCURVE",
"139 439 CURVE SMOOTH",
"173 439 OFFCURVE",
"206 416 OFFCURVE",
"206 370 CURVE SMOOTH",
"206 310 LINE SMOOTH",
"206 257 OFFCURVE",
"247 230 OFFCURVE",
"287 230 CURVE SMOOTH",
"328 230 OFFCURVE",
"369 257 OFFCURVE",
"369 310 CURVE SMOOTH",
"369 469 LINE",
"329 469 LINE",
"329 315 LINE SMOOTH",
"329 289 OFFCURVE",
"308 276 OFFCURVE",
"287 276 CURVE SMOOTH",
"267 276 OFFCURVE",
"246 289 OFFCURVE",
"246 315 CURVE SMOOTH",
"246 370 LINE SMOOTH",
"246 444 OFFCURVE",
"194 480 OFFCURVE",
"142 480 CURVE SMOOTH",
"86 480 OFFCURVE",
"30 441 OFFCURVE",
"30 366 CURVE SMOOTH",
"30 167 LINE SMOOTH",
"30 65 OFFCURVE",
"90 -11 OFFCURVE",
"185 -11 CURVE SMOOTH"
);
},
{
closed = 1;
nodes = (
"74 651 OFFCURVE",
"164 715 OFFCURVE",
"257 715 CURVE",
"257 755 LINE",
"153 755 OFFCURVE",
"35 681 OFFCURVE",
"35 563 CURVE",
"74 553 LINE"
);
}
);
width = 583;
},
{
layerId = "4EACF7E3-2421-4EEA-928B-7BA9BC4A845D";
paths = (
{
closed = 1;
nodes = (
"221 -11 OFFCURVE",
"242 -3 OFFCURVE",
"256 11 CURVE SMOOTH",
"271 25 OFFCURVE",
"277 44 OFFCURVE",
"277 67 CURVE SMOOTH",
"277 89 OFFCURVE",
"289 100 OFFCURVE",
"302 100 CURVE SMOOTH",
"314 100 OFFCURVE",
"327 89 OFFCURVE",
"327 67 CURVE SMOOTH",
"327 44 OFFCURVE",
"333 25 OFFCURVE",
"348 11 CURVE SMOOTH",
"362 -3 OFFCURVE",
"383 -11 OFFCURVE",
"414 -11 CURVE SMOOTH",
"511 -11 OFFCURVE",
"577 55 OFFCURVE",
"577 157 CURVE SMOOTH",
"577 512 LINE SMOOTH",
"577 687 OFFCURVE",
"486 755 OFFCURVE",
"330 755 CURVE",
"330 616 LINE",
"382 616 OFFCURVE",
"437 608 OFFCURVE",
"437 500 CURVE SMOOTH",
"437 167 LINE SMOOTH",
"437 145 OFFCURVE",
"423 135 OFFCURVE",
"408 135 CURVE SMOOTH",
"394 135 OFFCURVE",
"380 145 OFFCURVE",
"380 166 CURVE SMOOTH",
"380 181 OFFCURVE",
"373 204 OFFCURVE",
"346 204 CURVE SMOOTH",
"257 204 LINE SMOOTH",
"230 204 OFFCURVE",
"223 181 OFFCURVE",
"223 166 CURVE SMOOTH",
"223 145 OFFCURVE",
"209 135 OFFCURVE",
"195 135 CURVE SMOOTH",
"180 135 OFFCURVE",
"166 145 OFFCURVE",
"166 166 CURVE SMOOTH",
"166 328 LINE SMOOTH",
"166 341 OFFCURVE",
"174 348 OFFCURVE",
"181 348 CURVE SMOOTH",
"189 348 OFFCURVE",
"197 341 OFFCURVE",
"197 328 CURVE SMOOTH",
"197 320 LINE SMOOTH",
"197 262 OFFCURVE",
"247 229 OFFCURVE",
"298 229 CURVE SMOOTH",
"350 229 OFFCURVE",
"403 263 OFFCURVE",
"403 340 CURVE SMOOTH",
"403 469 LINE",
"311 469 LINE",
"311 348 LINE SMOOTH",
"311 337 OFFCURVE",
"303 331 OFFCURVE",
"295 331 CURVE SMOOTH",
"288 331 OFFCURVE",
"280 337 OFFCURVE",
"280 348 CURVE SMOOTH",
"280 364 LINE SMOOTH",
"280 437 OFFCURVE",
"223 473 OFFCURVE",
"164 473 CURVE SMOOTH",
"99 473 OFFCURVE",
"30 428 OFFCURVE",
"30 339 CURVE SMOOTH",
"30 157 LINE SMOOTH",
"30 55 OFFCURVE",
"95 -11 OFFCURVE",
"190 -11 CURVE SMOOTH"
);
},
{
closed = 1;
nodes = (
"183 602 OFFCURVE",
"225 617 OFFCURVE",
"273 617 CURVE",
"273 755 LINE",
"160 755 OFFCURVE",
"46 678 OFFCURVE",
"46 566 CURVE",
"183 530 LINE"
);
}
);
width = 607;
}
);
unicode = 0DB9;
userData = {
com.fontlab.hintData = {
hhints = (
{
position = -11;
width = 146;
},
{
position = 100;
width = 104;
},
{
position = 348;
width = 125;
},
{
position = 616;
width = 139;
}
);
vhints = (
{
position = 30;
width = 136;
},
{
position = 223;
width = 157;
},
{
position = 311;
width = 92;
},
{
position = 437;
width = 140;
}
);
};
};
},
{
glyphname = sinYa;
lastChange = "2021-06-28 01:55:44 +0000";
layers = (
{
layerId = "DC4431BF-9234-4C16-9154-22D387E42D10";
paths = (
{
closed = 1;
nodes = (
"239 0 OFFCURVE",
"289 25 OFFCURVE",
"315 67 CURVE",
"341 25 OFFCURVE",
"391 0 OFFCURVE",
"448 0 CURVE SMOOTH",
"532 0 OFFCURVE",
"600 56 OFFCURVE",
"600 140 CURVE SMOOTH",
"600 192 LINE",
"560 192 LINE",
"560 141 LINE SMOOTH",
"560 74 OFFCURVE",
"511 40 OFFCURVE",
"448 40 CURVE SMOOTH",
"384 40 OFFCURVE",
"335 74 OFFCURVE",
"335 141 CURVE SMOOTH",
"335 192 LINE",
"295 192 LINE",
"295 141 LINE SMOOTH",
"295 74 OFFCURVE",
"246 40 OFFCURVE",
"182 40 CURVE SMOOTH",
"119 40 OFFCURVE",
"70 74 OFFCURVE",
"70 141 CURVE SMOOTH",
"70 192 LINE",
"30 192 LINE",
"30 140 LINE SMOOTH",
"30 56 OFFCURVE",
"98 0 OFFCURVE",
"182 0 CURVE SMOOTH"
);
},
{
closed = 1;
nodes = (
"70 242 LINE",
"70 341 LINE SMOOTH",
"70 451 OFFCURVE",
"133 523 OFFCURVE",
"246 523 CURVE SMOOTH",
"265 523 LINE",
"265 563 LINE",
"248 563 LINE SMOOTH",
"132 563 OFFCURVE",
"30 493 OFFCURVE",
"30 340 CURVE SMOOTH",
"30 242 LINE"
);
},
{
closed = 1;
nodes = (
"600 242 LINE",
"600 298 LINE SMOOTH",
"600 347 OFFCURVE",
"590 402 OFFCURVE",
"479 402 CURVE SMOOTH",
"335 402 LINE",
"335 480 OFFCURVE",
"358 524 OFFCURVE",
"444 524 CURVE SMOOTH",
"507 524 OFFCURVE",
"542 500 OFFCURVE",
"555 464 CURVE",
"594 477 LINE",
"568 542 OFFCURVE",
"508 564 OFFCURVE",
"444 564 CURVE SMOOTH",
"393 564 OFFCURVE",
"295 539 OFFCURVE",
"295 415 CURVE SMOOTH",
"295 362 LINE",
"488 362 LINE SMOOTH",
"522 362 OFFCURVE",
"560 360 OFFCURVE",
"560 298 CURVE SMOOTH",
"560 242 LINE"
);
}
);
width = 630;
},
{
layerId = "4EACF7E3-2421-4EEA-928B-7BA9BC4A845D";
paths = (
{
closed = 1;
nodes = (
"255 -8 OFFCURVE",
"293 4 OFFCURVE",
"322 36 CURVE",
"352 4 OFFCURVE",
"394 -8 OFFCURVE",
"442 -8 CURVE SMOOTH",
"547 -8 OFFCURVE",
"620 50 OFFCURVE",
"620 160 CURVE SMOOTH",
"620 202 LINE",
"481 202 LINE",
"481 171 LINE SMOOTH",
"481 145 OFFCURVE",
"458 131 OFFCURVE",
"435 131 CURVE SMOOTH",
"412 131 OFFCURVE",
"389 145 OFFCURVE",
"389 173 CURVE SMOOTH",
"389 202 LINE",
"261 202 LINE",
"261 173 LINE SMOOTH",
"261 145 OFFCURVE",
"238 131 OFFCURVE",
"215 131 CURVE SMOOTH",
"192 131 OFFCURVE",
"169 145 OFFCURVE",
"169 171 CURVE SMOOTH",
"169 202 LINE",
"30 202 LINE",
"30 160 LINE SMOOTH",
"30 58 OFFCURVE",
"105 -8 OFFCURVE",
"210 -8 CURVE SMOOTH"
);
},
{
closed = 1;
nodes = (
"169 251 LINE",
"169 317 LINE SMOOTH",
"169 390 OFFCURVE",
"191 433 OFFCURVE",
"245 433 CURVE SMOOTH",
"265 433 LINE",
"265 563 LINE",
"248 563 LINE SMOOTH",
"132 563 OFFCURVE",
"30 493 OFFCURVE",
"30 340 CURVE SMOOTH",
"30 251 LINE"
);
},
{
closed = 1;
nodes = (
"620 251 LINE",
"620 269 LINE SMOOTH",
"620 339 OFFCURVE",
"587 402 OFFCURVE",
"479 402 CURVE SMOOTH",
"423 402 LINE",
"423 433 OFFCURVE",
"442 446 OFFCURVE",
"469 446 CURVE SMOOTH",
"485 446 OFFCURVE",
"504 441 OFFCURVE",
"515 421 CURVE",
"625 458 LINE",
"588 543 OFFCURVE",
"527 566 OFFCURVE",
"462 566 CURVE SMOOTH",
"341 566 OFFCURVE",
"293 487 OFFCURVE",
"293 366 CURVE SMOOTH",
"293 283 LINE",
"437 283 LINE SMOOTH",
"478 283 OFFCURVE",
"480 268 OFFCURVE",
"480 254 CURVE SMOOTH",
"480 251 LINE"
);
}
);
width = 655;
}
);
unicode = 0DBA;
},
{
glyphname = sinRa;
lastChange = "2021-06-28 01:55:44 +0000";
layers = (
{
guideLines = (
{
position = "{40, 796}";
}
);
layerId = "DC4431BF-9234-4C16-9154-22D387E42D10";
paths = (
{
closed = 1;
nodes = (
"234 34 LINE",
"134 34 OFFCURVE",
"70 94 OFFCURVE",
"70 235 CURVE SMOOTH",
"70 409 LINE SMOOTH",
"70 488 OFFCURVE",
"89 529 OFFCURVE",
"150 604 CURVE SMOOTH",
"288 772 LINE",
"257 796 LINE",
"122 634 LINE SMOOTH",
"41 537 OFFCURVE",
"30 484 OFFCURVE",
"30 417 CURVE SMOOTH",
"30 235 LINE SMOOTH",
"30 51 OFFCURVE",
"132 -6 OFFCURVE",
"234 -6 CURVE"
);
},
{
closed = 1;
nodes = (
"181 564 LINE",
"153 527 LINE",
"153 524 LINE",
"303 524 LINE SMOOTH",
"376 524 OFFCURVE",
"445 494 OFFCURVE",
"445 360 CURVE SMOOTH",
"445 235 LINE SMOOTH",
"445 103 OFFCURVE",
"401 35 OFFCURVE",
"290 35 CURVE",
"290 -5 LINE",
"403 -5 OFFCURVE",
"485 43 OFFCURVE",
"485 235 CURVE SMOOTH",
"485 361 LINE SMOOTH",
"485 484 OFFCURVE",
"438 564 OFFCURVE",
"304 564 CURVE SMOOTH"
);
}
);
width = 515;
},
{
background = {
paths = (
{
closed = 1;
nodes = (
"244 470 LINE",
"462 755 LINE",
"355 836 LINE",
"112 522 LINE"
);
}
);
};
layerId = "4EACF7E3-2421-4EEA-928B-7BA9BC4A845D";
paths = (
{
closed = 1;
nodes = (
"244 139 LINE",
"189 139 OFFCURVE",
"170 167 OFFCURVE",
"170 235 CURVE SMOOTH",
"170 386 LINE SMOOTH",
"170 447 OFFCURVE",
"181 459 OFFCURVE",
"223 516 CURVE SMOOTH",
"404 759 LINE",
"292 838 LINE",
"91 576 LINE SMOOTH",
"41 511 OFFCURVE",
"30 466 OFFCURVE",
"30 395 CURVE SMOOTH",
"30 241 LINE SMOOTH",
"30 57 OFFCURVE",
"142 -5 OFFCURVE",
"244 -5 CURVE"
);
},
{
closed = 1;
nodes = (
"316 564 LINE",
"224 436 LINE",
"224 431 LINE",
"302 431 LINE SMOOTH",
"375 431 OFFCURVE",
"375 400 OFFCURVE",
"375 327 CURVE SMOOTH",
"375 235 LINE SMOOTH",
"375 167 OFFCURVE",
"361 139 OFFCURVE",
"300 139 CURVE",
"300 -5 LINE",
"413 -4 OFFCURVE",
"515 42 OFFCURVE",
"515 214 CURVE SMOOTH",
"515 378 LINE SMOOTH",
"515 491 OFFCURVE",
"468 564 OFFCURVE",
"358 564 CURVE SMOOTH"
);
}
);
width = 545;
},
{
associatedMasterId = "4EACF7E3-2421-4EEA-928B-7BA9BC4A845D";
layerId = "D9FCE886-75B2-4874-8E63-44356DFD303A";
name = "27 Jun 21, 13:17";
paths = (
{
closed = 1;
nodes = (
"244 139 LINE",
"184 139 OFFCURVE",
"170 167 OFFCURVE",
"170 235 CURVE SMOOTH",
"170 418 LINE SMOOTH",
"170 457 OFFCURVE",
"170 467 OFFCURVE",
"220 516 CURVE SMOOTH",
"463 757 LINE",
"320 793 LINE",
"91 576 LINE SMOOTH",
"31 519 OFFCURVE",
"30 478 OFFCURVE",
"30 427 CURVE SMOOTH",
"30 241 LINE SMOOTH",
"30 57 OFFCURVE",
"142 -6 OFFCURVE",
"244 -6 CURVE"
);
},
{
closed = 1;
nodes = (
"342 564 LINE",
"215 436 LINE",
"215 431 LINE",
"300 431 LINE SMOOTH",
"375 431 OFFCURVE",
"375 400 OFFCURVE",
"375 327 CURVE SMOOTH",
"375 235 LINE SMOOTH",
"375 167 OFFCURVE",
"361 139 OFFCURVE",
"300 139 CURVE",
"300 -5 LINE",
"413 -5 OFFCURVE",
"515 42 OFFCURVE",
"515 234 CURVE SMOOTH",
"515 368 LINE SMOOTH",
"515 491 OFFCURVE",
"468 564 OFFCURVE",
"365 564 CURVE SMOOTH"
);
}
);
visible = 1;
width = 545;
},
{
associatedMasterId = "DC4431BF-9234-4C16-9154-22D387E42D10";
layerId = "68C1ACCD-0064-49CC-82AB-C0EFD3C664EF";
name = "27 Jun 21, 13:37";
paths = (
{
closed = 1;
nodes = (
"234 34 LINE",
"134.222 34 OFFCURVE",
"70 94 OFFCURVE",
"70 235 CURVE SMOOTH",
"70 420 LINE SMOOTH",
"70 487 OFFCURVE",
"72 539 OFFCURVE",
"147 599 CURVE SMOOTH",
"369 780 LINE",
"318 793 LINE",
"123 634.002 LINE SMOOTH",
"31 559.142 OFFCURVE",
"30 478 OFFCURVE",
"30 427 CURVE SMOOTH",
"30 235 LINE SMOOTH",
"30 51.175 OFFCURVE",
"131.578 -6 OFFCURVE",
"234 -6 CURVE"
);
},
{
closed = 1;
nodes = (
"181 564 LINE",
"143 527 LINE",
"143 524 LINE",
"304 524 LINE SMOOTH",
"375.742 524 OFFCURVE",
"445 493.865 OFFCURVE",
"445 360 CURVE SMOOTH",
"445 235 LINE SMOOTH",
"445 102.591 OFFCURVE",
"400.586 35 OFFCURVE",
"290 35 CURVE",
"290 -5 LINE",
"402.532 -5 OFFCURVE",
"485 42.845 OFFCURVE",
"485 235 CURVE SMOOTH",
"485 361 LINE SMOOTH",
"485 484.189 OFFCURVE",
"437.509 563.953 OFFCURVE",
"305 563.981 CURVE SMOOTH"
);
}
);
width = 515;
}
);
unicode = 0DBB;
userData = {
com.fontlab.hintData = {
hhints = (
{
position = -6;
width = 145;
}
);
vhints = (
{
position = 30;
width = 140;
},
{
position = 375;
width = 140;
}
);
};
};
},
{
glyphname = sinLa;
lastChange = "2021-06-28 01:55:44 +0000";
layers = (
{
layerId = "DC4431BF-9234-4C16-9154-22D387E42D10";
paths = (
{
closed = 1;
nodes = (
"270 -129 LINE",
"161 -129 OFFCURVE",
"73 -72 OFFCURVE",
"73 76 CURVE SMOOTH",
"73 326 LINE SMOOTH",
"73 473 OFFCURVE",
"161 530 OFFCURVE",
"270 530 CURVE",
"270 570 LINE",
"164 570 OFFCURVE",
"30 526 OFFCURVE",
"30 326 CURVE SMOOTH",
"30 76 LINE SMOOTH",
"30 -125 OFFCURVE",
"164 -169 OFFCURVE",
"270 -169 CURVE"
);
},
{
closed = 1;
nodes = (
"427 -169 OFFCURVE",
"519 -138 OFFCURVE",
"563 -11 CURVE",
"524 0 LINE",
"491 -90 OFFCURVE",
"429 -129 OFFCURVE",
"330 -129 CURVE",
"330 -169 LINE"
);
},
{
closed = 1;
nodes = (
"393 291 LINE",
"393 331 LINE",
"203 331 LINE",
"203 291 LINE"
);
},
{
closed = 1;
nodes = (
"497 95 OFFCURVE",
"576 149 OFFCURVE",
"576 263 CURVE SMOOTH",
"576 336 LINE SMOOTH",
"576 546 OFFCURVE",
"439 570 OFFCURVE",
"330 570 CURVE",
"330 530 LINE",
"443 530 OFFCURVE",
"534 493 OFFCURVE",
"534 336 CURVE SMOOTH",
"534 263 LINE SMOOTH",
"534 178 OFFCURVE",
"475 138 OFFCURVE",
"419 138 CURVE SMOOTH",
"368 138 OFFCURVE",
"319 171 OFFCURVE",
"319 235 CURVE SMOOTH",
"319 300 LINE",
"276 300 LINE",
"276 235 LINE SMOOTH",
"276 143 OFFCURVE",
"347 95 OFFCURVE",
"420 95 CURVE SMOOTH"
);
}
);
width = 606;
},
{
layerId = "4EACF7E3-2421-4EEA-928B-7BA9BC4A845D";
paths = (
{
closed = 1;
nodes = (
"283 -31 LINE",
"218 -31 OFFCURVE",
"169 -2 OFFCURVE",
"169 74 CURVE SMOOTH",
"169 331 LINE SMOOTH",
"169 406 OFFCURVE",
"218 435 OFFCURVE",
"283 435 CURVE",
"283 575 LINE",
"168 575 OFFCURVE",
"30 531 OFFCURVE",
"31 331 CURVE SMOOTH",
"31 74 LINE SMOOTH",
"31 -123 OFFCURVE",
"173 -171 OFFCURVE",
"283 -171 CURVE"
);
},
{
closed = 1;
nodes = (
"443 -173 OFFCURVE",
"560 -140 OFFCURVE",
"589 -1 CURVE",
"454 37 LINE",
"441 -13 OFFCURVE",
"398 -33 OFFCURVE",
"344 -33 CURVE",
"344 -173 LINE"
);
},
{
closed = 1;
nodes = (
"418 251 LINE",
"418 365 LINE",
"206 365 LINE",
"206 251 LINE"
);
},
{
closed = 1;
nodes = (
"532 54 OFFCURVE",
"596 122 OFFCURVE",
"596 240 CURVE SMOOTH",
"596 331 LINE SMOOTH",
"596 531 OFFCURVE",
"458 575 OFFCURVE",
"344 575 CURVE",
"344 435 LINE",
"409 435 OFFCURVE",
"458 406 OFFCURVE",
"458 331 CURVE SMOOTH",
"458 240 LINE SMOOTH",
"458 230 OFFCURVE",
"458 194 OFFCURVE",
"416 194 CURVE SMOOTH",
"383 194 OFFCURVE",
"376 216 OFFCURVE",
"376 235 CURVE SMOOTH",
"376 323 LINE",
"248 323 LINE",
"248 215 LINE SMOOTH",
"248 184 OFFCURVE",
"248 54 OFFCURVE",
"413 54 CURVE SMOOTH"
);
}
);
width = 626;
}
);
unicode = 0DBD;
userData = {
com.fontlab.hintData = {
hhints = (
{
position = -169;
width = 40;
},
{
position = 290;
width = 40;
},
{
position = 290;
width = 9;
},
{
position = 530;
width = 40;
}
);
vhints = (
{
position = 30;
width = 43;
},
{
position = 276;
width = 43;
},
{
position = 534;
width = 42;
}
);
};
};
},
{
glyphname = sinVa;
lastChange = "2021-06-28 01:55:44 +0000";
layers = (
{
layerId = "DC4431BF-9234-4C16-9154-22D387E42D10";
paths = (
{
closed = 1;
nodes = (
"455 0 OFFCURVE",
"521 84 OFFCURVE",
"521 241 CURVE SMOOTH",
"521 514 LINE SMOOTH",
"521 671 OFFCURVE",
"455 755 OFFCURVE",
"296 755 CURVE",
"296 715 LINE",
"409 715 OFFCURVE",
"480 662 OFFCURVE",
"480 514 CURVE SMOOTH",
"480 241 LINE SMOOTH",
"480 95 OFFCURVE",
"409 40 OFFCURVE",
"296 40 CURVE",
"296 0 LINE"
);
},
{
closed = 1;
nodes = (
"240 40 LINE",
"133 40 OFFCURVE",
"73 112 OFFCURVE",
"73 181 CURVE SMOOTH",
"73 286 OFFCURVE",
"127 309 OFFCURVE",
"265 309 CURVE SMOOTH",
"314 309 LINE",
"314 354 LINE SMOOTH",
"314 438 OFFCURVE",
"245 479 OFFCURVE",
"178 479 CURVE SMOOTH",
"123 479 OFFCURVE",
"70 452 OFFCURVE",
"56 399 CURVE",
"95 389 LINE",
"109 422 OFFCURVE",
"143 438 OFFCURVE",
"177 438 CURVE SMOOTH",
"225 438 OFFCURVE",
"274 408 OFFCURVE",
"274 349 CURVE",
"179 349 OFFCURVE",
"113 342 OFFCURVE",
"70 296 CURVE SMOOTH",
"44 268 OFFCURVE",
"33 231 OFFCURVE",
"33 181 CURVE SMOOTH",
"33 86 OFFCURVE",
"121 0 OFFCURVE",
"240 0 CURVE"
);
},
{
closed = 1;
nodes = (
"69 644 OFFCURVE",
"156 715 OFFCURVE",
"240 715 CURVE",
"240 755 LINE",
"144 755 OFFCURVE",
"30 674 OFFCURVE",
"30 563 CURVE",
"69 553 LINE"
);
}
);
width = 551;
},
{
layerId = "4EACF7E3-2421-4EEA-928B-7BA9BC4A845D";
paths = (
{
closed = 1;
nodes = (
"458 -5 OFFCURVE",
"538 78 OFFCURVE",
"538 250 CURVE SMOOTH",
"538 520 LINE SMOOTH",
"538 700 OFFCURVE",
"437 755 OFFCURVE",
"303 755 CURVE",
"303 616 LINE",
"381 616 OFFCURVE",
"398 577 OFFCURVE",
"398 498 CURVE SMOOTH",
"398 250 LINE SMOOTH",
"398 149 OFFCURVE",
"345 135 OFFCURVE",
"303 135 CURVE",
"303 -5 LINE"
);
},
{
closed = 1;
nodes = (
"247 135 LINE",
"199 135 OFFCURVE",
"171 160 OFFCURVE",
"171 200 CURVE SMOOTH",
"171 252 OFFCURVE",
"220 252 OFFCURVE",
"230 252 CURVE SMOOTH",
"314 252 LINE",
"314 369 LINE SMOOTH",
"314 450 OFFCURVE",
"252 502 OFFCURVE",
"170 502 CURVE SMOOTH",
"116 502 OFFCURVE",
"55 480 OFFCURVE",
"30 401 CURVE",
"129 375 LINE",
"133 393 OFFCURVE",
"153 399 OFFCURVE",
"170 399 CURVE SMOOTH",
"194 399 OFFCURVE",
"211 388 OFFCURVE",
"211 369 CURVE",
"159 369 OFFCURVE",
"124 357 OFFCURVE",
"91 333 CURVE SMOOTH",
"34 291 OFFCURVE",
"33 241 OFFCURVE",
"33 192 CURVE SMOOTH",
"33 87 OFFCURVE",
"120 -5 OFFCURVE",
"247 -5 CURVE"
);
},
{
closed = 1;
nodes = (
"167 596 OFFCURVE",
"207 617 OFFCURVE",
"247 617 CURVE",
"247 755 LINE",
"140 755 OFFCURVE",
"30 672 OFFCURVE",
"30 566 CURVE",
"167 530 LINE"
);
}
);
width = 568;
}
);
unicode = 0DC0;
userData = {
com.fontlab.hintData = {
hhints = (
{
position = 0;
width = 40;
},
{
position = 309;
width = 40;
},
{
position = 715;
width = 40;
}
);
vhints = (
{
position = 33;
width = 40;
},
{
position = 274;
width = 40;
},
{
position = 480;
width = 41;
}
);
};
};
},
{
glyphname = sinSha;
lastChange = "2021-06-28 01:55:44 +0000";
layers = (
{
layerId = "DC4431BF-9234-4C16-9154-22D387E42D10";
paths = (
{
closed = 1;
nodes = (
"30 216 LINE SMOOTH",
"30 80 OFFCURVE",
"97 -8 OFFCURVE",
"216 -8 CURVE",
"216 32 LINE",
"124 32 OFFCURVE",
"70 98 OFFCURVE",
"70 216 CURVE SMOOTH",
"70 340 LINE SMOOTH",
"70 458 OFFCURVE",
"121 524 OFFCURVE",
"216 524 CURVE",
"216 564 LINE",
"97 564 OFFCURVE",
"30 476 OFFCURVE",
"30 340 CURVE SMOOTH"
);
},
{
closed = 1;
nodes = (
"252 271 LINE",
"306 271 LINE SMOOTH",
"391 271 OFFCURVE",
"399 200 OFFCURVE",
"399 152 CURVE SMOOTH",
"399 66 OFFCURVE",
"352 32 OFFCURVE",
"272 32 CURVE",
"272 -8 LINE",
"372 -8 OFFCURVE",
"439 43 OFFCURVE",
"439 145 CURVE SMOOTH",
"439 164 LINE SMOOTH",
"439 233 OFFCURVE",
"408 311 OFFCURVE",
"306 311 CURVE SMOOTH",
"293 311 LINE",
"293 361 LINE SMOOTH",
"293 443 OFFCURVE",
"324 524 OFFCURVE",
"431 524 CURVE",
"431 564 LINE",
"309 564 OFFCURVE",
"252 478 OFFCURVE",
"252 360 CURVE SMOOTH"
);
},
{
closed = 1;
nodes = (
"633 98 OFFCURVE",
"579 32 OFFCURVE",
"487 32 CURVE",
"487 -8 LINE",
"606 -8 OFFCURVE",
"673 80 OFFCURVE",
"673 216 CURVE SMOOTH",
"673 340 LINE SMOOTH",
"673 476 OFFCURVE",
"606 564 OFFCURVE",
"487 564 CURVE",
"487 524 LINE",
"582 524 OFFCURVE",
"633 458 OFFCURVE",
"633 340 CURVE SMOOTH",
"633 216 LINE SMOOTH"
);
},
{
closed = 1;
nodes = (
"438 124 LINE",
"438 157 OFFCURVE",
"447 235 OFFCURVE",
"545 235 CURVE SMOOTH",
"574 235 LINE",
"574 275 LINE",
"555 275 LINE SMOOTH",
"385 275 OFFCURVE",
"401 138 OFFCURVE",
"401 124 CURVE"
);
}
);
width = 703;
},
{
layerId = "4EACF7E3-2421-4EEA-928B-7BA9BC4A845D";
paths = (
{
closed = 1;
nodes = (
"30 198 LINE SMOOTH",
"30 82 OFFCURVE",
"88 -8 OFFCURVE",
"227 -8 CURVE",
"227 135 LINE",
"175 135 OFFCURVE",
"171 174 OFFCURVE",
"171 198 CURVE SMOOTH",
"171 348 LINE SMOOTH",
"171 376 OFFCURVE",
"175 421 OFFCURVE",
"227 421 CURVE",
"227 564 LINE",
"88 564 OFFCURVE",
"30 474 OFFCURVE",
"30 358 CURVE SMOOTH"
);
},
{
closed = 1;
nodes = (
"254 241 LINE",
"288 241 LINE SMOOTH",
"317 241 OFFCURVE",
"337 230 OFFCURVE",
"337 184 CURVE SMOOTH",
"337 170 OFFCURVE",
"335 135 OFFCURVE",
"283 135 CURVE",
"283 -8 LINE",
"400 -8 OFFCURVE",
"461 48 OFFCURVE",
"461 176 CURVE SMOOTH",
"461 206 LINE SMOOTH",
"461 276 OFFCURVE",
"436 331 OFFCURVE",
"389 331 CURVE SMOOTH",
"384 331 LINE",
"384 360 LINE SMOOTH",
"384 394 OFFCURVE",
"390 421 OFFCURVE",
"434 421 CURVE",
"434 564 LINE",
"290 564 OFFCURVE",
"254 468 OFFCURVE",
"254 350 CURVE SMOOTH"
);
},
{
closed = 1;
nodes = (
"546 174 OFFCURVE",
"542 135 OFFCURVE",
"490 135 CURVE",
"490 -8 LINE",
"629 -8 OFFCURVE",
"687 82 OFFCURVE",
"687 198 CURVE SMOOTH",
"687 358 LINE SMOOTH",
"687 474 OFFCURVE",
"629 564 OFFCURVE",
"490 564 CURVE",
"490 421 LINE",
"542 421 OFFCURVE",
"546 376 OFFCURVE",
"546 348 CURVE SMOOTH",
"546 198 LINE SMOOTH"
);
},
{
closed = 1;
nodes = (
"461 169 LINE",
"461 215 OFFCURVE",
"474 235 OFFCURVE",
"525 235 CURVE SMOOTH",
"546 235 LINE",
"546 338 LINE",
"525 338 LINE SMOOTH",
"443 338 OFFCURVE",
"373 304 OFFCURVE",
"373 168 CURVE"
);
}
);
width = 717;
}
);
unicode = 0DC1;
userData = {
com.fontlab.hintData = {
hhints = (
{
position = -8;
width = 40;
},
{
position = 271;
width = 40;
},
{
position = 524;
width = 40;
}
);
vhints = (
{
position = 30;
width = 40;
},
{
position = 252;
width = 41;
},
{
position = 399;
width = 40;
},
{
position = 633;
width = 40;
}
);
};
};
},
{
glyphname = sinSsa;
lastChange = "2021-06-28 01:55:44 +0000";
layers = (
{
layerId = "DC4431BF-9234-4C16-9154-22D387E42D10";
paths = (
{
closed = 1;
nodes = (
"341 -6 LINE SMOOTH",
"518 -6 OFFCURVE",
"590 50 OFFCURVE",
"590 193 CURVE",
"550 193 LINE",
"550 62 OFFCURVE",
"474 34 OFFCURVE",
"341 34 CURVE SMOOTH",
"279 34 LINE SMOOTH",
"146 34 OFFCURVE",
"70 61 OFFCURVE",
"70 193 CURVE",
"30 193 LINE",
"30 50 OFFCURVE",
"102 -6 OFFCURVE",
"279 -6 CURVE SMOOTH"
);
},
{
closed = 1;
nodes = (
"70 242 LINE",
"70 308 OFFCURVE",
"86 362 OFFCURVE",
"195 362 CURVE SMOOTH",
"421 362 LINE SMOOTH",
"530 362 OFFCURVE",
"550 320 OFFCURVE",
"550 242 CURVE",
"590 242 LINE",
"590 368 OFFCURVE",
"527 402 OFFCURVE",
"419 402 CURVE SMOOTH",
"194 402 LINE SMOOTH",
"97 402 OFFCURVE",
"30 364 OFFCURVE",
"30 242 CURVE"
);
},
{
closed = 1;
nodes = (
"322 168 LINE",
"322 277 OFFCURVE",
"402 318 OFFCURVE",
"510 367 CURVE",
"444 367 LINE",
"340 337 OFFCURVE",
"282 258 OFFCURVE",
"282 168 CURVE"
);
},
{
closed = 1;
nodes = (
"330 379 LINE",
"330 415 LINE SMOOTH",
"330 469 OFFCURVE",
"361 524 OFFCURVE",
"439 524 CURVE SMOOTH",
"502 524 OFFCURVE",
"537 500 OFFCURVE",
"550 464 CURVE",
"589 477 LINE",
"563 542 OFFCURVE",
"503 564 OFFCURVE",
"439 564 CURVE SMOOTH",
"402 564 OFFCURVE",
"341 551 OFFCURVE",
"310 498 CURVE",
"279 551 OFFCURVE",
"218 564 OFFCURVE",
"181 564 CURVE SMOOTH",
"117 564 OFFCURVE",
"57 542 OFFCURVE",
"31 477 CURVE",
"70 464 LINE",
"83 500 OFFCURVE",
"118 524 OFFCURVE",
"181 524 CURVE SMOOTH",
"259 524 OFFCURVE",
"290 469 OFFCURVE",
"290 415 CURVE SMOOTH",
"290 379 LINE"
);
}
);
width = 620;
},
{
layerId = "4EACF7E3-2421-4EEA-928B-7BA9BC4A845D";
paths = (
{
closed = 1;
nodes = (
"378 -12 LINE SMOOTH",
"547 -12 OFFCURVE",
"630 64 OFFCURVE",
"630 202 CURVE",
"490 202 LINE",
"490 151 OFFCURVE",
"451 123 OFFCURVE",
"386 123 CURVE SMOOTH",
"274 123 LINE SMOOTH",
"211 123 OFFCURVE",
"170 149 OFFCURVE",
"170 202 CURVE",
"30 202 LINE",
"30 59 OFFCURVE",
"108 -12 OFFCURVE",
"285 -12 CURVE SMOOTH"
);
},
{
closed = 1;
nodes = (
"170 251 LINE",
"170 264 OFFCURVE",
"172 288 OFFCURVE",
"205 288 CURVE SMOOTH",
"462 288 LINE SMOOTH",
"491 288 OFFCURVE",
"491 265 OFFCURVE",
"491 251 CURVE",
"630 251 LINE",
"630 381 OFFCURVE",
"567 407 OFFCURVE",
"459 407 CURVE SMOOTH",
"194 407 LINE SMOOTH",
"97 407 OFFCURVE",
"31 377 OFFCURVE",
"31 251 CURVE"
);
},
{
closed = 1;
nodes = (
"378 170 LINE",
"378 260 OFFCURVE",
"483 342 OFFCURVE",
"558 367 CURVE",
"392 367 LINE",
"330 345 OFFCURVE",
"244 277 OFFCURVE",
"244 168 CURVE"
);
},
{
closed = 1;
nodes = (
"396 378 LINE",
"396 397 LINE SMOOTH",
"396 443 OFFCURVE",
"436 451 OFFCURVE",
"454 451 CURVE SMOOTH",
"478 451 OFFCURVE",
"494 436 OFFCURVE",
"498 421 CURVE",
"616 460 LINE",
"592 537 OFFCURVE",
"524 575 OFFCURVE",
"453 575 CURVE SMOOTH",
"411 575 OFFCURVE",
"368 562 OFFCURVE",
"332 536 CURVE",
"296 562 OFFCURVE",
"253 575 OFFCURVE",
"211 575 CURVE SMOOTH",
"140 575 OFFCURVE",
"72 537 OFFCURVE",
"48 460 CURVE",
"166 421 LINE",
"170 436 OFFCURVE",
"186 451 OFFCURVE",
"210 451 CURVE SMOOTH",
"228 451 OFFCURVE",
"268 443 OFFCURVE",
"268 397 CURVE SMOOTH",
"268 378 LINE"
);
}
);
width = 660;
}
);
unicode = 0DC2;
},
{
glyphname = sinSa;
lastChange = "2021-06-28 01:55:44 +0000";
layers = (
{
layerId = "DC4431BF-9234-4C16-9154-22D387E42D10";
paths = (
{
closed = 1;
nodes = (
"286 0 OFFCURVE",
"336 25 OFFCURVE",
"362 67 CURVE",
"388 25 OFFCURVE",
"438 0 OFFCURVE",
"495 0 CURVE SMOOTH",
"579 0 OFFCURVE",
"647 56 OFFCURVE",
"647 140 CURVE SMOOTH",
"647 193 LINE",
"607 193 LINE",
"607 141 LINE SMOOTH",
"607 74 OFFCURVE",
"558 40 OFFCURVE",
"495 40 CURVE SMOOTH",
"431 40 OFFCURVE",
"382 74 OFFCURVE",
"382 141 CURVE SMOOTH",
"382 193 LINE",
"342 193 LINE",
"342 141 LINE SMOOTH",
"342 74 OFFCURVE",
"293 40 OFFCURVE",
"229 40 CURVE SMOOTH",
"166 40 OFFCURVE",
"117 74 OFFCURVE",
"117 141 CURVE SMOOTH",
"117 193 LINE",
"77 193 LINE",
"77 140 LINE SMOOTH",
"77 56 OFFCURVE",
"145 0 OFFCURVE",
"229 0 CURVE SMOOTH"
);
},
{
closed = 1;
nodes = (
"117 242 LINE",
"117 288 LINE SMOOTH",
"117 355 OFFCURVE",
"156 362 OFFCURVE",
"192 362 CURVE SMOOTH",
"532 362 LINE SMOOTH",
"568 362 OFFCURVE",
"607 355 OFFCURVE",
"607 288 CURVE SMOOTH",
"607 242 LINE",
"647 242 LINE",
"647 288 LINE SMOOTH",
"647 337 OFFCURVE",
"642 402 OFFCURVE",
"531 402 CURVE SMOOTH",
"30 402 LINE",
"30 362 LINE",
"105 362 LINE",
"84 351 OFFCURVE",
"77 320 OFFCURVE",
"77 288 CURVE SMOOTH",
"77 242 LINE"
);
},
{
closed = 1;
nodes = (
"383 379 LINE",
"383 415 LINE SMOOTH",
"383 469 OFFCURVE",
"414 524 OFFCURVE",
"492 524 CURVE SMOOTH",
"555 524 OFFCURVE",
"590 500 OFFCURVE",
"603 464 CURVE",
"642 477 LINE",
"616 542 OFFCURVE",
"556 564 OFFCURVE",
"492 564 CURVE SMOOTH",
"455 564 OFFCURVE",
"394 551 OFFCURVE",
"363 498 CURVE",
"332 551 OFFCURVE",
"271 564 OFFCURVE",
"234 564 CURVE SMOOTH",
"170 564 OFFCURVE",
"110 542 OFFCURVE",
"84 477 CURVE",
"123 464 LINE",
"136 500 OFFCURVE",
"171 524 OFFCURVE",
"234 524 CURVE SMOOTH",
"312 524 OFFCURVE",
"343 469 OFFCURVE",
"343 415 CURVE SMOOTH",
"343 379 LINE"
);
}
);
width = 677;
},
{
layerId = "4EACF7E3-2421-4EEA-928B-7BA9BC4A845D";
paths = (
{
closed = 1;
nodes = (
"292 -8 OFFCURVE",
"330 4 OFFCURVE",
"359 36 CURVE",
"389 4 OFFCURVE",
"431 -8 OFFCURVE",
"479 -8 CURVE SMOOTH",
"584 -8 OFFCURVE",
"657 50 OFFCURVE",
"657 160 CURVE SMOOTH",
"657 202 LINE",
"518 202 LINE",
"518 171 LINE SMOOTH",
"518 145 OFFCURVE",
"495 131 OFFCURVE",
"472 131 CURVE SMOOTH",
"449 131 OFFCURVE",
"426 145 OFFCURVE",
"426 173 CURVE SMOOTH",
"426 202 LINE",
"298 202 LINE",
"298 173 LINE SMOOTH",
"298 145 OFFCURVE",
"275 131 OFFCURVE",
"252 131 CURVE SMOOTH",
"229 131 OFFCURVE",
"206 145 OFFCURVE",
"206 171 CURVE SMOOTH",
"206 202 LINE",
"67 202 LINE",
"67 160 LINE SMOOTH",
"67 58 OFFCURVE",
"142 -8 OFFCURVE",
"247 -8 CURVE SMOOTH"
);
},
{
closed = 1;
nodes = (
"206 251 LINE",
"206 252 LINE SMOOTH",
"206 272 OFFCURVE",
"224 283 OFFCURVE",
"246 283 CURVE SMOOTH",
"481 283 LINE SMOOTH",
"503 283 OFFCURVE",
"518 273 OFFCURVE",
"518 252 CURVE SMOOTH",
"518 251 LINE",
"657 251 LINE",
"657 279 LINE SMOOTH",
"657 392 OFFCURVE",
"565 402 OFFCURVE",
"503 402 CURVE SMOOTH",
"30 402 LINE",
"30 283 LINE",
"75 283 LINE",
"71 281 OFFCURVE",
"67 274 OFFCURVE",
"67 261 CURVE SMOOTH",
"67 251 LINE"
);
},
{
closed = 1;
nodes = (
"426 378 LINE",
"426 397 LINE SMOOTH",
"426 443 OFFCURVE",
"466 451 OFFCURVE",
"484 451 CURVE SMOOTH",
"508 451 OFFCURVE",
"524 436 OFFCURVE",
"528 421 CURVE",
"646 460 LINE",
"622 537 OFFCURVE",
"554 575 OFFCURVE",
"483 575 CURVE SMOOTH",
"441 575 OFFCURVE",
"398 562 OFFCURVE",
"362 536 CURVE",
"326 562 OFFCURVE",
"283 575 OFFCURVE",
"241 575 CURVE SMOOTH",
"170 575 OFFCURVE",
"102 537 OFFCURVE",
"78 460 CURVE",
"196 421 LINE",
"200 436 OFFCURVE",
"216 451 OFFCURVE",
"240 451 CURVE SMOOTH",
"258 451 OFFCURVE",
"298 443 OFFCURVE",
"298 397 CURVE SMOOTH",
"298 378 LINE"
);
}
);
width = 687;
}
);
unicode = 0DC3;
userData = {
com.fontlab.hintData = {
hhints = (
{
position = 0;
width = 40;
},
{
position = 362;
width = 40;
},
{
position = 523;
width = 40;
}
);
vhints = (
{
position = 77;
width = 40;
},
{
position = 342;
width = 40;
},
{
position = 607;
width = 40;
}
);
};
};
},
{
glyphname = sinHa;
lastChange = "2021-06-28 01:55:44 +0000";
layers = (
{
layerId = "DC4431BF-9234-4C16-9154-22D387E42D10";
paths = (
{
closed = 1;
nodes = (
"216 32 LINE",
"124 32 OFFCURVE",
"70 98 OFFCURVE",
"70 196 CURVE SMOOTH",
"70 250 LINE SMOOTH",
"70 358 OFFCURVE",
"121 394 OFFCURVE",
"216 394 CURVE SMOOTH",
"295 394 LINE",
"295 439 LINE SMOOTH",
"295 523 OFFCURVE",
"226 564 OFFCURVE",
"159 564 CURVE SMOOTH",
"104 564 OFFCURVE",
"51 537 OFFCURVE",
"37 484 CURVE",
"76 474 LINE",
"90 507 OFFCURVE",
"124 523 OFFCURVE",
"158 523 CURVE SMOOTH",
"206 523 OFFCURVE",
"255 493 OFFCURVE",
"255 434 CURVE",
"215 434 LINE SMOOTH",
"85 434 OFFCURVE",
"30 374 OFFCURVE",
"30 250 CURVE SMOOTH",
"30 196 LINE SMOOTH",
"30 80 OFFCURVE",
"97 -8 OFFCURVE",
"216 -8 CURVE"
);
},
{
closed = 1;
nodes = (
"372 -8 OFFCURVE",
"439 43 OFFCURVE",
"439 145 CURVE SMOOTH",
"439 164 LINE SMOOTH",
"439 233 OFFCURVE",
"408 311 OFFCURVE",
"293 311 CURVE",
"293 361 LINE SMOOTH",
"293 443 OFFCURVE",
"324 524 OFFCURVE",
"431 524 CURVE",
"431 564 LINE",
"309 564 OFFCURVE",
"252 478.007 OFFCURVE",
"252 360 CURVE SMOOTH",
"252 271 LINE",
"306 271 LINE SMOOTH",
"391 271 OFFCURVE",
"399 200 OFFCURVE",
"399 152 CURVE SMOOTH",
"399 66 OFFCURVE",
"352 32 OFFCURVE",
"272 32 CURVE",
"272 -8 LINE"
);
},
{
closed = 1;
nodes = (
"606 -8 OFFCURVE",
"673 80 OFFCURVE",
"673 216 CURVE SMOOTH",
"673 340 LINE SMOOTH",
"673 476 OFFCURVE",
"606 564 OFFCURVE",
"487 564 CURVE",
"487 524 LINE",
"582 524 OFFCURVE",
"633 458 OFFCURVE",
"633 340 CURVE SMOOTH",
"633 216 LINE SMOOTH",
"633 98 OFFCURVE",
"579 32 OFFCURVE",
"487 32 CURVE",
"487 -8 LINE"
);
}
);
width = 703;
},
{
layerId = "4EACF7E3-2421-4EEA-928B-7BA9BC4A845D";
paths = (
{
closed = 1;
nodes = (
"227 135 LINE",
"164 135 OFFCURVE",
"160 174 OFFCURVE",
"160 198 CURVE SMOOTH",
"160 228 LINE SMOOTH",
"160 248 OFFCURVE",
"164 281 OFFCURVE",
"227 281 CURVE SMOOTH",
"316 281 LINE",
"316 433 LINE SMOOTH",
"316 516 OFFCURVE",
"245 564 OFFCURVE",
"173 564 CURVE SMOOTH",
"114 564 OFFCURVE",
"55 532 OFFCURVE",
"32 463 CURVE",
"131 437 LINE",
"135 454 OFFCURVE",
"152 462 OFFCURVE",
"170 462 CURVE SMOOTH",
"201 462 OFFCURVE",
"213 442 OFFCURVE",
"213 417 CURVE",
"199 417 LINE SMOOTH",
"95 417 OFFCURVE",
"30 333 OFFCURVE",
"30 238 CURVE SMOOTH",
"30 198 LINE SMOOTH",
"30 82 OFFCURVE",
"88 -8 OFFCURVE",
"227 -8 CURVE"
);
},
{
closed = 1;
nodes = (
"399 -8 OFFCURVE",
"460 45 OFFCURVE",
"460 166 CURVE SMOOTH",
"460 216 LINE SMOOTH",
"460 305 OFFCURVE",
"425 339 OFFCURVE",
"392 344 CURVE",
"392 353 LINE SMOOTH",
"392 382 OFFCURVE",
"391 421 OFFCURVE",
"433 421 CURVE",
"433 564 LINE",
"289 564 OFFCURVE",
"253 468.007 OFFCURVE",
"253 350 CURVE SMOOTH",
"253 241 LINE",
"287 241 LINE SMOOTH",
"335 239 OFFCURVE",
"336 205 OFFCURVE",
"336 188 CURVE SMOOTH",
"336 171 OFFCURVE",
"335 135 OFFCURVE",
"282 135 CURVE",
"282 -8 LINE"
);
},
{
closed = 1;
nodes = (
"628 -8 OFFCURVE",
"686 82 OFFCURVE",
"686 198 CURVE SMOOTH",
"686 358 LINE SMOOTH",
"686 474 OFFCURVE",
"628 564 OFFCURVE",
"489 564 CURVE",
"489 421 LINE",
"541 421 OFFCURVE",
"545 376 OFFCURVE",
"545 348 CURVE SMOOTH",
"545 198 LINE SMOOTH",
"545 174 OFFCURVE",
"541 135 OFFCURVE",
"489 135 CURVE",
"489 -8 LINE"
);
}
);
width = 716;
}
);
unicode = 0DC4;
userData = {
com.fontlab.hintData = {
hhints = (
{
position = -8;
width = 40;
},
{
position = 271;
width = 40;
},
{
position = 394;
width = 40;
},
{
position = 524;
width = 40;
}
);
vhints = (
{
position = 30;
width = 40;
},
{
position = 210;
width = 6;
},
{
position = 252;
width = 41;
},
{
position = 399;
width = 40;
},
{
position = 633;
width = 40;
}
);
};
};
},
